SplineFontDB: 3.2
FontName: gurmukhi15m
FullName: gurmukhi15m
FamilyName: gurmukhi15m
Weight: Regular
Copyright: Copyright 2022 The Noto Project Authors (https://github.com/notofonts/gurmukhi)
Version: 2.003
ItalicAngle: 0
UnderlinePosition: -125
UnderlineWidth: 50
Ascent: 800
Descent: 200
InvalidEm: 0
sfntRevision: 0x000200c5
LayerCount: 2
Layer: 0 1 "Back" 1
Layer: 1 1 "Fore" 0
XUID: [1021 467 -1121320856 7114971]
StyleMap: 0x0040
FSType: 0
OS2Version: 4
OS2_WeightWidthSlopeOnly: 0
OS2_UseTypoMetrics: 1
CreationTime: 1550733484
ModificationTime: 1741115861
PfmFamily: 81
TTFWeight: 400
TTFWidth: 5
LineGap: 0
VLineGap: 0
Panose: 0 0 0 0 0 0 0 0 0 0
OS2TypoAscent: 896
OS2TypoAOffset: 0
OS2TypoDescent: -408
OS2TypoDOffset: 0
OS2TypoLinegap: 0
OS2WinAscent: 896
OS2WinAOffset: 0
OS2WinDescent: 408
OS2WinDOffset: 0
HheadAscent: 896
HheadAOffset: 0
HheadDescent: -408
HheadDOffset: 0
OS2SubXSize: 650
OS2SubYSize: 600
OS2SubXOff: 0
OS2SubYOff: 75
OS2SupXSize: 650
OS2SupYSize: 600
OS2SupXOff: 0
OS2SupYOff: 350
OS2StrikeYSize: 50
OS2StrikeYPos: 373
OS2CapHeight: 622
OS2XHeight: 622
OS2Vendor: 'GOOG'
OS2CodePages: 00000093.00000000
OS2UnicodeRanges: 80028003.00006042.00000000.00000000




































MarkAttachClasses: 1
DEI: 91125

 165 ae b eth e eacute ecaron ecircumflex edieresis edotaccent egrave emacron eogonek o oacute ocircumflex odieresis ograve ohungarumlaut omacron oslash otilde oe p thorn
 98 a aacute abreve acircumflex adieresis agrave amacron aogonek aring atilde h m n nacute uni0146 eng
 95 D Eth Dcaron Dcroat O Oacute Ocircumflex Odieresis Ograve Ohungarumlaut Omacron Oslash Otilde Q
 77 v w wacute wcircumflex wdieresis wgrave y yacute ycircumflex ydieresis ygrave
 73 A Aacute Abreve Acircumflex Adieresis Agrave Amacron Aogonek Aring Atilde
 80 U Uacute Ubreve Ucircumflex Udieresis Ugrave Uhungarumlaut Umacron Uogonek Uring
 39 V W Wacute Wcircumflex Wdieresis Wgrave
 35 C Cacute Ccaron Ccedilla Cdotaccent
 30 L Lacute Lcaron uni013B Lslash

StartChar: exclam.guru
Encoding: 33 33 3
Width: 620
Flags: W
LayerCount: 2
Fore
SplineSet
305 112 m 0,0,1
 289 112 289 112 280 123 c 128,-1,2
 271 134 271 134 266.5 161 c 128,-1,3
 262 188 262 188 261 233.5 c 128,-1,4
 260 279 260 279 260 348 c 0,5,6
 260 445 260 445 261 499 c 128,-1,7
 262 553 262 553 268 579 c 128,-1,8
 274 605 274 605 286.5 610.5 c 128,-1,9
 299 616 299 616 322 616 c 0,10,11
 334 616 334 616 341 609 c 128,-1,12
 348 602 348 602 352.5 579 c 128,-1,13
 357 556 357 556 358.5 511 c 128,-1,14
 360 466 360 466 360 389 c 0,15,16
 360 249 360 249 350 180.5 c 128,-1,17
 340 112 340 112 305 112 c 0,0,1
292 593 m 0,18,19
 288 593 288 593 282 581 c 128,-1,20
 276 569 276 569 276 544 c 0,21,22
 276 531 276 531 277.5 518.5 c 128,-1,23
 279 506 279 506 286 506 c 0,24,25
 292 506 292 506 294 510 c 128,-1,26
 296 514 296 514 296 519.5 c 128,-1,27
 296 525 296 525 295.5 532 c 128,-1,28
 295 539 295 539 295 545 c 0,29,30
 296 562 296 562 298 577.5 c 128,-1,31
 300 593 300 593 292 593 c 0,18,19
306 -8 m 0,32,33
 287 -8 287 -8 275.5 4.5 c 128,-1,34
 264 17 264 17 264 38 c 0,35,36
 264 57 264 57 274 73.5 c 128,-1,37
 284 90 284 90 306 90 c 0,38,39
 329 90 329 90 341 74.5 c 128,-1,40
 353 59 353 59 353 38 c 0,41,42
 353 15 353 15 339.5 3.5 c 128,-1,43
 326 -8 326 -8 306 -8 c 0,32,33
288 44 m 0,44,45
 289 55 289 55 293 64 c 128,-1,46
 297 73 297 73 292 73 c 0,47,48
 285 73 285 73 280.5 58.5 c 128,-1,49
 276 44 276 44 276 33 c 0,50,51
 276 23 276 23 281 23 c 0,52,53
 285 23 285 23 286 30.5 c 128,-1,54
 287 38 287 38 288 44 c 0,44,45
EndSplineSet
EndChar

StartChar: quotedbl.guru
Encoding: 34 34 4
Width: 620
Flags: W
LayerCount: 2
Fore
SplineSet
266 714 m 1,0,-1
 246 456 l 1,1,-1
 191 456 l 1,2,-1
 171 714 l 1,3,-1
 266 714 l 1,0,-1
449 714 m 1,4,-1
 429 456 l 1,5,-1
 374 456 l 1,6,-1
 354 714 l 1,7,-1
 449 714 l 1,4,-1
EndSplineSet
EndChar

StartChar: numbersign.guru
Encoding: 35 35 5
Width: 620
Flags: W
LayerCount: 2
Fore
SplineSet
323.954101562 108 m 0,0,1
 305.954101562 108 305.954101562 108 299.454101562 120 c 128,-1,2
 292.954101562 132 292.954101562 132 291.954101562 147 c 0,3,4
 290.954101562 164 290.954101562 164 297.454101562 181 c 128,-1,5
 303.954101562 198 303.954101562 198 302.954101562 211 c 0,6,7
 302.954101562 214 302.954101562 214 295.454101562 215 c 128,-1,8
 287.954101562 216 287.954101562 216 285.954101562 216 c 2,9,-1
 254.954101562 216 l 1,10,11
 251.954101562 207 251.954101562 207 245.954101562 192 c 128,-1,12
 239.954101562 177 239.954101562 177 231.954101562 162 c 128,-1,13
 223.954101562 147 223.954101562 147 213.454101562 136.5 c 128,-1,14
 202.954101562 126 202.954101562 126 189.954101562 126 c 0,15,16
 173.954101562 126 173.954101562 126 167.454101562 136 c 128,-1,17
 160.954101562 146 160.954101562 146 159.954101562 160 c 0,18,19
 158.954101562 177 158.954101562 177 163.454101562 187.5 c 128,-1,20
 167.954101562 198 167.954101562 198 166.954101562 214 c 0,21,22
 166.954101562 222 166.954101562 222 157.454101562 222.5 c 128,-1,23
 147.954101562 223 147.954101562 223 135.954101562 225 c 128,-1,24
 123.954101562 227 123.954101562 227 113.954101562 234.5 c 128,-1,25
 103.954101562 242 103.954101562 242 102.954101562 264 c 0,26,27
 102.954101562 276 102.954101562 276 108.954101562 283.5 c 128,-1,28
 114.954101562 291 114.954101562 291 123.954101562 295 c 128,-1,29
 132.954101562 299 132.954101562 299 143.954101562 300.5 c 128,-1,30
 154.954101562 302 154.954101562 302 164.954101562 302 c 0,31,32
 176.954101562 302 176.954101562 302 184.454101562 309.5 c 128,-1,33
 191.954101562 317 191.954101562 317 195.954101562 328 c 128,-1,34
 199.954101562 339 199.954101562 339 202.454101562 351 c 128,-1,35
 204.954101562 363 204.954101562 363 206.954101562 372 c 1,36,37
 198.954101562 372 198.954101562 372 186.954101562 373.5 c 128,-1,38
 174.954101562 375 174.954101562 375 163.454101562 378.5 c 128,-1,39
 151.954101562 382 151.954101562 382 143.954101562 389.5 c 128,-1,40
 135.954101562 397 135.954101562 397 135.954101562 409 c 0,41,42
 134.954101562 435 134.954101562 435 149.454101562 442 c 128,-1,43
 163.954101562 449 163.954101562 449 201.954101562 449 c 0,44,45
 217.954101562 449 217.954101562 449 223.954101562 452.5 c 128,-1,46
 229.954101562 456 229.954101562 456 234.954101562 472 c 0,47,48
 237.954101562 479 237.954101562 479 240.954101562 489.5 c 128,-1,49
 243.954101562 500 243.954101562 500 249.454101562 510 c 128,-1,50
 254.954101562 520 254.954101562 520 263.954101562 527 c 128,-1,51
 272.954101562 534 272.954101562 534 287.954101562 534 c 0,52,53
 307.954101562 534 307.954101562 534 315.454101562 522 c 128,-1,54
 322.954101562 510 322.954101562 510 323.954101562 499 c 0,55,56
 323.954101562 489 323.954101562 489 320.454101562 480.5 c 128,-1,57
 316.954101562 472 316.954101562 472 317.954101562 462 c 0,58,59
 317.954101562 457 317.954101562 457 322.454101562 454.5 c 128,-1,60
 326.954101562 452 326.954101562 452 332.454101562 450.5 c 128,-1,61
 337.954101562 449 337.954101562 449 343.954101562 449 c 128,-1,62
 349.954101562 449 349.954101562 449 352.954101562 449 c 0,63,64
 362.954101562 449 362.954101562 449 368.954101562 461 c 128,-1,65
 374.954101562 473 374.954101562 473 380.954101562 488 c 128,-1,66
 386.954101562 503 386.954101562 503 394.954101562 515 c 128,-1,67
 402.954101562 527 402.954101562 527 417.954101562 527 c 0,68,69
 437.954101562 527 437.954101562 527 446.954101562 511 c 128,-1,70
 455.954101562 495 455.954101562 495 456.954101562 483 c 0,71,72
 456.954101562 475 456.954101562 475 453.954101562 467.5 c 128,-1,73
 450.954101562 460 450.954101562 460 450.954101562 451 c 0,74,75
 450.954101562 444 450.954101562 444 461.454101562 443.5 c 128,-1,76
 471.954101562 443 471.954101562 443 483.954101562 441.5 c 128,-1,77
 495.954101562 440 495.954101562 440 505.954101562 434.5 c 128,-1,78
 515.954101562 429 515.954101562 429 516.954101562 412 c 0,79,80
 517.954101562 398 517.954101562 398 507.954101562 390 c 128,-1,81
 497.954101562 382 497.954101562 382 484.454101562 377.5 c 128,-1,82
 470.954101562 373 470.954101562 373 455.954101562 371.5 c 128,-1,83
 440.954101562 370 440.954101562 370 431.954101562 370 c 1,84,85
 424.954101562 351 424.954101562 351 420.454101562 335 c 128,-1,86
 415.954101562 319 415.954101562 319 408.954101562 299 c 1,87,88
 419.954101562 299 419.954101562 299 431.954101562 299.5 c 128,-1,89
 443.954101562 300 443.954101562 300 453.954101562 297.5 c 128,-1,90
 463.954101562 295 463.954101562 295 470.454101562 288 c 128,-1,91
 476.954101562 281 476.954101562 281 477.954101562 265 c 0,92,93
 478.954101562 251 478.954101562 251 472.954101562 241.5 c 128,-1,94
 466.954101562 232 466.954101562 232 456.954101562 226 c 128,-1,95
 446.954101562 220 446.954101562 220 435.454101562 217.5 c 128,-1,96
 423.954101562 215 423.954101562 215 412.954101562 215 c 2,97,-1
 407.954101562 215 l 1,98,-1
 396.954101562 216 l 1,99,-1
 391.954101562 216 l 1,100,101
 388.954101562 204 388.954101562 204 385.454101562 186 c 128,-1,102
 381.954101562 168 381.954101562 168 375.454101562 150.5 c 128,-1,103
 368.954101562 133 368.954101562 133 356.954101562 120.5 c 128,-1,104
 344.954101562 108 344.954101562 108 323.954101562 108 c 0,0,1
255.954101562 457 m 0,105,106
 258.954101562 457 258.954101562 457 262.954101562 463 c 128,-1,107
 266.954101562 469 266.954101562 469 270.454101562 476.5 c 128,-1,108
 273.954101562 484 273.954101562 484 276.954101562 492 c 128,-1,109
 279.954101562 500 279.954101562 500 279.954101562 503 c 0,110,111
 279.954101562 508 279.954101562 508 274.954101562 508 c 0,112,113
 270.954101562 509 270.954101562 509 266.454101562 504 c 128,-1,114
 261.954101562 499 261.954101562 499 258.454101562 492 c 128,-1,115
 254.954101562 485 254.954101562 485 252.454101562 477.5 c 128,-1,116
 249.954101562 470 249.954101562 470 249.954101562 466 c 0,117,118
 249.954101562 463 249.954101562 463 251.954101562 460 c 128,-1,119
 253.954101562 457 253.954101562 457 255.954101562 457 c 0,105,106
153.954101562 404 m 0,120,121
 158.954101562 404 158.954101562 404 161.954101562 415 c 128,-1,122
 164.954101562 426 164.954101562 426 163.954101562 430 c 0,123,124
 163.954101562 434 163.954101562 434 160.954101562 434 c 0,125,126
 155.954101562 436 155.954101562 436 151.454101562 429 c 128,-1,127
 146.954101562 422 146.954101562 422 147.954101562 416 c 0,128,129
 147.954101562 404 147.954101562 404 153.954101562 404 c 0,120,121
300.954101562 298 m 0,130,131
 311.954101562 298 311.954101562 298 319.954101562 305.5 c 128,-1,132
 327.954101562 313 327.954101562 313 332.954101562 323.5 c 128,-1,133
 337.954101562 334 337.954101562 334 339.954101562 345.5 c 128,-1,134
 341.954101562 357 341.954101562 357 341.954101562 366 c 0,135,136
 341.954101562 369 341.954101562 369 340.954101562 372 c 128,-1,137
 339.954101562 375 339.954101562 375 335.954101562 375 c 0,138,139
 312.954101562 375 312.954101562 375 303.954101562 369 c 128,-1,140
 294.954101562 363 294.954101562 363 286.954101562 342 c 0,141,142
 284.954101562 336 284.954101562 336 280.454101562 323 c 128,-1,143
 275.954101562 310 275.954101562 310 276.954101562 304 c 2,144,-1
 276.954101562 303 l 1,145,146
 281.954101562 300 281.954101562 300 288.454101562 299 c 128,-1,147
 294.954101562 298 294.954101562 298 300.954101562 298 c 0,130,131
135.954101562 279 m 0,148,149
 135.954101562 285 135.954101562 285 128.954101562 285 c 0,150,151
 119.954101562 285 119.954101562 285 116.954101562 273 c 128,-1,152
 113.954101562 261 113.954101562 261 115.954101562 256 c 256,153,154
 117.954101562 251 117.954101562 251 119.954101562 250 c 0,155,156
 121.954101562 250 121.954101562 250 124.954101562 253.5 c 128,-1,157
 127.954101562 257 127.954101562 257 130.454101562 262 c 128,-1,158
 132.954101562 267 132.954101562 267 134.454101562 272 c 128,-1,159
 135.954101562 277 135.954101562 277 135.954101562 279 c 0,148,149
EndSplineSet
EndChar

StartChar: percent.guru
Encoding: 37 37 6
Width: 620
Flags: W
LayerCount: 2
Fore
SplineSet
172.5 -6 m 0,0,1
 168.5 -6 168.5 -6 161 -4 c 128,-1,2
 153.5 -2 153.5 -2 146.5 2 c 128,-1,3
 139.5 6 139.5 6 134.5 11.5 c 128,-1,4
 129.5 17 129.5 17 129.5 23 c 0,5,6
 129.5 30 129.5 30 133.5 46.5 c 128,-1,7
 137.5 63 137.5 63 149.5 93 c 128,-1,8
 161.5 123 161.5 123 183 168.5 c 128,-1,9
 204.5 214 204.5 214 239.5 280 c 0,10,11
 293.5 383 293.5 383 327 450 c 128,-1,12
 360.5 517 360.5 517 381.5 556 c 0,13,14
 402.5 596 402.5 596 420 607.5 c 128,-1,15
 437.5 619 437.5 619 450.5 619 c 0,16,17
 467.5 619 467.5 619 474 607 c 128,-1,18
 480.5 595 480.5 595 479.5 577.5 c 128,-1,19
 478.5 560 478.5 560 473 541.5 c 128,-1,20
 467.5 523 467.5 523 461.5 510 c 0,21,22
 447.5 481 447.5 481 424.5 434.5 c 128,-1,23
 401.5 388 401.5 388 375 335.5 c 128,-1,24
 348.5 283 348.5 283 321 229 c 128,-1,25
 293.5 175 293.5 175 270.5 130.5 c 128,-1,26
 247.5 86 247.5 86 232 56 c 128,-1,27
 216.5 26 216.5 26 213.5 22 c 0,28,29
 202.5 5 202.5 5 192 -0.5 c 128,-1,30
 181.5 -6 181.5 -6 172.5 -6 c 0,0,1
178.5 393 m 0,31,32
 155.5 393 155.5 393 138 402.5 c 128,-1,33
 120.5 412 120.5 412 108.5 428 c 128,-1,34
 96.5 444 96.5 444 90.5 465 c 128,-1,35
 84.5 486 84.5 486 84.5 510 c 0,36,37
 84.5 529 84.5 529 91 548 c 128,-1,38
 97.5 567 97.5 567 109.5 582.5 c 128,-1,39
 121.5 598 121.5 598 138.5 608 c 128,-1,40
 155.5 618 155.5 618 176.5 618 c 0,41,42
 218.5 618 218.5 618 242.5 594.5 c 128,-1,43
 266.5 571 266.5 571 266.5 517 c 0,44,45
 266.5 490 266.5 490 259.5 467.5 c 128,-1,46
 252.5 445 252.5 445 240.5 428.5 c 128,-1,47
 228.5 412 228.5 412 212.5 402.5 c 128,-1,48
 196.5 393 196.5 393 178.5 393 c 0,31,32
178.5 460 m 0,49,50
 185.5 460 185.5 460 190.5 465.5 c 128,-1,51
 195.5 471 195.5 471 198.5 479.5 c 128,-1,52
 201.5 488 201.5 488 203 498 c 128,-1,53
 204.5 508 204.5 508 204.5 517 c 0,54,55
 204.5 534 204.5 534 197.5 546 c 128,-1,56
 190.5 558 190.5 558 178.5 558 c 0,57,58
 167.5 558 167.5 558 159.5 543.5 c 128,-1,59
 151.5 529 151.5 529 151.5 512 c 256,60,61
 151.5 495 151.5 495 158.5 477.5 c 128,-1,62
 165.5 460 165.5 460 178.5 460 c 0,49,50
110.5 512 m 256,63,64
 110.5 528 110.5 528 110.5 535.5 c 128,-1,65
 110.5 543 110.5 543 107.5 543 c 0,66,67
 101.5 543 101.5 543 99.5 530.5 c 128,-1,68
 97.5 518 97.5 518 97.5 514 c 0,69,70
 97.5 511 97.5 511 97.5 505.5 c 128,-1,71
 97.5 500 97.5 500 99 494.5 c 128,-1,72
 100.5 489 100.5 489 103 484.5 c 128,-1,73
 105.5 480 105.5 480 110.5 480 c 0,74,75
 114.5 480 114.5 480 112.5 488 c 128,-1,76
 110.5 496 110.5 496 110.5 512 c 256,63,64
135.5 453 m 0,77,78
 135.5 464 135.5 464 126.5 464 c 0,79,80
 120.5 464 120.5 464 120.5 456 c 0,81,82
 120.5 454 120.5 454 123 450 c 128,-1,83
 125.5 446 125.5 446 128.5 446 c 0,84,85
 135.5 446 135.5 446 135.5 453 c 0,77,78
447.5 -6 m 0,86,87
 424.5 -6 424.5 -6 407 3.5 c 128,-1,88
 389.5 13 389.5 13 377.5 29 c 128,-1,89
 365.5 45 365.5 45 359.5 66 c 128,-1,90
 353.5 87 353.5 87 353.5 111 c 0,91,92
 353.5 130 353.5 130 360 149 c 128,-1,93
 366.5 168 366.5 168 378.5 183.5 c 128,-1,94
 390.5 199 390.5 199 407.5 209 c 128,-1,95
 424.5 219 424.5 219 445.5 219 c 0,96,97
 487.5 219 487.5 219 511.5 195.5 c 128,-1,98
 535.5 172 535.5 172 535.5 118 c 0,99,100
 535.5 91 535.5 91 528.5 68.5 c 128,-1,101
 521.5 46 521.5 46 509.5 29.5 c 128,-1,102
 497.5 13 497.5 13 481.5 3.5 c 128,-1,103
 465.5 -6 465.5 -6 447.5 -6 c 0,86,87
447.5 61 m 0,104,105
 454.5 61 454.5 61 459.5 66.5 c 128,-1,106
 464.5 72 464.5 72 467.5 80.5 c 128,-1,107
 470.5 89 470.5 89 472 99 c 128,-1,108
 473.5 109 473.5 109 473.5 118 c 0,109,110
 473.5 135 473.5 135 466.5 147 c 128,-1,111
 459.5 159 459.5 159 447.5 159 c 0,112,113
 436.5 159 436.5 159 428.5 144.5 c 128,-1,114
 420.5 130 420.5 130 420.5 113 c 256,115,116
 420.5 96 420.5 96 427.5 78.5 c 128,-1,117
 434.5 61 434.5 61 447.5 61 c 0,104,105
379.5 113 m 256,118,119
 379.5 129 379.5 129 379.5 136.5 c 128,-1,120
 379.5 144 379.5 144 376.5 144 c 0,121,122
 370.5 144 370.5 144 368.5 131.5 c 128,-1,123
 366.5 119 366.5 119 366.5 115 c 0,124,125
 366.5 112 366.5 112 366.5 106.5 c 128,-1,126
 366.5 101 366.5 101 368 95.5 c 128,-1,127
 369.5 90 369.5 90 372 85.5 c 128,-1,128
 374.5 81 374.5 81 379.5 81 c 0,129,130
 383.5 81 383.5 81 381.5 89 c 128,-1,131
 379.5 97 379.5 97 379.5 113 c 256,118,119
170.5 82 m 0,132,133
 165.5 87 165.5 87 160 82 c 128,-1,134
 154.5 77 154.5 77 151.5 69 c 256,135,136
 148.5 61 148.5 61 145.5 50 c 128,-1,137
 142.5 39 142.5 39 142.5 34 c 0,138,139
 143.5 23 143.5 23 147 23 c 128,-1,140
 150.5 23 150.5 23 157.5 40 c 0,141,142
 162.5 52 162.5 52 167.5 66 c 128,-1,143
 172.5 80 172.5 80 170.5 82 c 0,132,133
404.5 54 m 0,144,145
 404.5 65 404.5 65 395.5 65 c 0,146,147
 389.5 65 389.5 65 389.5 57 c 0,148,149
 389.5 55 389.5 55 392 51 c 128,-1,150
 394.5 47 394.5 47 397.5 47 c 0,151,152
 404.5 47 404.5 47 404.5 54 c 0,144,145
EndSplineSet
EndChar

StartChar: quotesingle.guru
Encoding: 39 39 7
Width: 620
Flags: W
LayerCount: 2
Fore
SplineSet
357.5 714 m 1,0,-1
 337.5 456 l 1,1,-1
 282.5 456 l 1,2,-1
 262.5 714 l 1,3,-1
 357.5 714 l 1,0,-1
EndSplineSet
EndChar

StartChar: parenleft.guru
Encoding: 40 40 8
Width: 620
Flags: W
LayerCount: 2
Fore
SplineSet
374.5 -72 m 0,0,1
 320.5 -51 320.5 -51 284 -13 c 128,-1,2
 247.5 25 247.5 25 225 71.5 c 128,-1,3
 202.5 118 202.5 118 192.5 169.5 c 128,-1,4
 182.5 221 182.5 221 182.5 269 c 0,5,6
 182.5 315 182.5 315 191 363 c 128,-1,7
 199.5 411 199.5 411 215 456 c 128,-1,8
 230.5 501 230.5 501 253.5 540.5 c 128,-1,9
 276.5 580 276.5 580 304.5 609 c 0,10,11
 331.5 636 331.5 636 356.5 654 c 128,-1,12
 381.5 672 381.5 672 401.5 672 c 0,13,14
 416.5 672 416.5 672 425.5 660 c 128,-1,15
 434.5 648 434.5 648 434.5 636 c 0,16,17
 434.5 628 434.5 628 422 617 c 128,-1,18
 409.5 606 409.5 606 386.5 582 c 0,19,20
 356.5 550 356.5 550 336.5 512 c 128,-1,21
 316.5 474 316.5 474 304.5 433.5 c 128,-1,22
 292.5 393 292.5 393 288 351.5 c 128,-1,23
 283.5 310 283.5 310 283.5 272 c 256,24,25
 283.5 234 283.5 234 289.5 192.5 c 128,-1,26
 295.5 151 295.5 151 309.5 113 c 128,-1,27
 323.5 75 323.5 75 346.5 43.5 c 128,-1,28
 369.5 12 369.5 12 403.5 -7 c 0,29,30
 420.5 -16 420.5 -16 429 -22.5 c 128,-1,31
 437.5 -29 437.5 -29 437.5 -43 c 0,32,33
 437.5 -56 437.5 -56 424.5 -66 c 128,-1,34
 411.5 -76 411.5 -76 394.5 -76 c 0,35,36
 383.5 -76 383.5 -76 374.5 -72 c 0,0,1
360.5 620 m 0,37,38
 365.5 625 365.5 625 371.5 630.5 c 128,-1,39
 377.5 636 377.5 636 370.5 636 c 0,40,41
 362.5 636 362.5 636 352 628.5 c 128,-1,42
 341.5 621 341.5 621 331.5 611 c 128,-1,43
 321.5 601 321.5 601 315 590.5 c 128,-1,44
 308.5 580 308.5 580 308.5 574 c 0,45,46
 308.5 569 308.5 569 312.5 569 c 0,47,48
 317.5 569 317.5 569 322 575.5 c 128,-1,49
 326.5 582 326.5 582 329.5 587 c 0,50,51
 333.5 594 333.5 594 340.5 601.5 c 128,-1,52
 347.5 609 347.5 609 360.5 620 c 0,37,38
302.5 547 m 0,53,54
 302.5 555 302.5 555 296.5 555 c 0,55,56
 284.5 555 284.5 555 284.5 547 c 0,57,58
 284.5 541 284.5 541 287.5 539.5 c 128,-1,59
 290.5 538 290.5 538 292.5 538 c 256,60,61
 294.5 538 294.5 538 298.5 539.5 c 128,-1,62
 302.5 541 302.5 541 302.5 547 c 0,53,54
EndSplineSet
EndChar

StartChar: parenright.guru
Encoding: 41 41 9
Width: 620
Flags: W
LayerCount: 2
Fore
SplineSet
239 -93 m 0,0,1
 225 -93 225 -93 212.5 -84.5 c 128,-1,2
 200 -76 200 -76 200 -66 c 0,3,4
 200 -57 200 -57 210 -43 c 128,-1,5
 220 -29 220 -29 234.5 -8.5 c 128,-1,6
 249 12 249 12 266.5 41 c 128,-1,7
 284 70 284 70 298.5 108 c 128,-1,8
 313 146 313 146 323 195 c 128,-1,9
 333 244 333 244 333 305 c 0,10,11
 333 352 333 352 325.5 398.5 c 128,-1,12
 318 445 318 445 304 484 c 128,-1,13
 290 523 290 523 270.5 552 c 128,-1,14
 251 581 251 581 227 594 c 0,15,16
 215 601 215 601 201 610.5 c 128,-1,17
 187 620 187 620 187 638 c 0,18,19
 187 653 187 653 200 662.5 c 128,-1,20
 213 672 213 672 234 672 c 0,21,22
 271 672 271 672 307 646 c 128,-1,23
 343 620 343 620 371 572 c 128,-1,24
 399 524 399 524 416 455.5 c 128,-1,25
 433 387 433 387 433 302 c 0,26,27
 433 227 433 227 424.5 175 c 128,-1,28
 416 123 416 123 400.5 85 c 128,-1,29
 385 47 385 47 364 17 c 128,-1,30
 343 -13 343 -13 318 -44 c 0,31,32
 295 -73 295 -73 275.5 -83 c 128,-1,33
 256 -93 256 -93 239 -93 c 0,0,1
207 621 m 0,34,35
 211 621 211 621 214.5 628.5 c 128,-1,36
 218 636 218 636 218 644 c 0,37,38
 218 657 218 657 211 657 c 0,39,40
 207 657 207 657 203.5 649.5 c 128,-1,41
 200 642 200 642 200 634 c 0,42,43
 200 621 200 621 207 621 c 0,34,35
234 -60 m 256,44,45
 239 -50 239 -50 239.5 -40 c 128,-1,46
 240 -30 240 -30 236 -29 c 0,47,48
 234 -29 234 -29 230.5 -33 c 128,-1,49
 227 -37 227 -37 223.5 -43 c 128,-1,50
 220 -49 220 -49 217.5 -55 c 128,-1,51
 215 -61 215 -61 215 -64 c 0,52,53
 215 -72 215 -72 219 -73 c 0,54,55
 222 -74 222 -74 225.5 -72 c 128,-1,56
 229 -70 229 -70 234 -60 c 256,44,45
EndSplineSet
EndChar

StartChar: asterisk.guru
Encoding: 42 42 10
Width: 620
Flags: W
LayerCount: 2
Fore
SplineSet
357.5 760 m 1,0,-1
 337.5 568 l 1,1,-1
 529.5 622 l 1,2,-1
 543.5 530 l 1,3,-1
 359.5 515 l 1,4,-1
 478.5 357 l 1,5,-1
 392.5 310 l 1,6,-1
 307.5 485 l 1,7,-1
 230.5 310 l 1,8,-1
 141.5 357 l 1,9,-1
 258.5 515 l 1,10,-1
 76.5 530 l 1,11,-1
 90.5 622 l 1,12,-1
 280.5 568 l 1,13,-1
 259.5 760 l 1,14,-1
 357.5 760 l 1,0,-1
EndSplineSet
EndChar

StartChar: plus.guru
Encoding: 43 43 11
Width: 620
Flags: W
LayerCount: 2
Fore
SplineSet
346 388 m 1,0,-1
 545 388 l 1,1,-1
 545 317 l 1,2,-1
 346 317 l 1,3,-1
 346 111 l 1,4,-1
 274 111 l 1,5,-1
 274 317 l 1,6,-1
 75 317 l 1,7,-1
 75 388 l 1,8,-1
 274 388 l 1,9,-1
 274 595 l 1,10,-1
 346 595 l 1,11,-1
 346 388 l 1,0,-1
EndSplineSet
EndChar

StartChar: comma.guru
Encoding: 44 44 12
Width: 620
Flags: W
LayerCount: 2
Fore
SplineSet
385.5 105 m 1,0,1
 376.5 70 376.5 70 362.5 29 c 128,-1,2
 348.5 -12 348.5 -12 332 -52.5 c 128,-1,3
 315.5 -93 315.5 -93 299.5 -129 c 1,4,-1
 234.5 -129 l 1,5,6
 244.5 -91 244.5 -91 254 -47.5 c 128,-1,7
 263.5 -4 263.5 -4 271.5 38.5 c 128,-1,8
 279.5 81 279.5 81 284.5 116 c 1,9,-1
 378.5 116 l 1,10,-1
 385.5 105 l 1,0,1
EndSplineSet
EndChar

StartChar: hyphen.guru
Encoding: 45 45 13
Width: 620
Flags: W
LayerCount: 2
Fore
SplineSet
189 229 m 1,0,-1
 189 307 l 1,1,-1
 431 307 l 1,2,-1
 431 229 l 1,3,-1
 189 229 l 1,0,-1
EndSplineSet
EndChar

StartChar: period.guru
Encoding: 46 46 14
Width: 620
Flags: W
LayerCount: 2
Fore
SplineSet
304.5 -8 m 0,0,1
 264.5 -8 264.5 -8 236 20 c 128,-1,2
 207.5 48 207.5 48 207.5 92 c 0,3,4
 207.5 116 207.5 116 216 137.5 c 128,-1,5
 224.5 159 224.5 159 239.5 174.5 c 128,-1,6
 254.5 190 254.5 190 275.5 199.5 c 128,-1,7
 296.5 209 296.5 209 321.5 209 c 0,8,9
 341.5 209 341.5 209 358.5 200.5 c 128,-1,10
 375.5 192 375.5 192 387.5 177 c 128,-1,11
 399.5 162 399.5 162 406 143 c 128,-1,12
 412.5 124 412.5 124 412.5 103 c 0,13,14
 412.5 76 412.5 76 404 55.5 c 128,-1,15
 395.5 35 395.5 35 380.5 21 c 128,-1,16
 365.5 7 365.5 7 346 -0.5 c 128,-1,17
 326.5 -8 326.5 -8 304.5 -8 c 0,0,1
267.5 165 m 0,18,19
 274.5 172 274.5 172 276 177 c 128,-1,20
 277.5 182 277.5 182 275.5 182 c 0,21,22
 267.5 182 267.5 182 258.5 174.5 c 128,-1,23
 249.5 167 249.5 167 242 156.5 c 128,-1,24
 234.5 146 234.5 146 229.5 134 c 128,-1,25
 224.5 122 224.5 122 224.5 112 c 0,26,27
 224.5 110 224.5 110 226 104 c 128,-1,28
 227.5 98 227.5 98 230.5 98 c 0,29,30
 234.5 98 234.5 98 240.5 120 c 0,31,32
 243.5 134 243.5 134 251.5 145.5 c 128,-1,33
 259.5 157 259.5 157 267.5 165 c 0,18,19
308.5 49 m 0,34,35
 320.5 49 320.5 49 337 63 c 128,-1,36
 353.5 77 353.5 77 353.5 103 c 0,37,38
 353.5 123 353.5 123 343 136.5 c 128,-1,39
 332.5 150 332.5 150 315.5 150 c 256,40,41
 298.5 150 298.5 150 284.5 136.5 c 128,-1,42
 270.5 123 270.5 123 270.5 99 c 256,43,44
 270.5 75 270.5 75 281.5 62 c 128,-1,45
 292.5 49 292.5 49 308.5 49 c 0,34,35
EndSplineSet
EndChar

StartChar: slash.guru
Encoding: 47 47 15
Width: 620
Flags: W
LayerCount: 2
Fore
SplineSet
196.5 -77 m 0,0,1
 192.5 -77 192.5 -77 181 -75 c 128,-1,2
 169.5 -73 169.5 -73 157.5 -68.5 c 128,-1,3
 145.5 -64 145.5 -64 136.5 -57 c 128,-1,4
 127.5 -50 127.5 -50 127.5 -41 c 0,5,6
 127.5 -38 127.5 -38 138 -9.5 c 128,-1,7
 148.5 19 148.5 19 165.5 64 c 128,-1,8
 182.5 109 182.5 109 205 166 c 128,-1,9
 227.5 223 227.5 223 251.5 283 c 128,-1,10
 275.5 343 275.5 343 299.5 402 c 128,-1,11
 323.5 461 323.5 461 343.5 509.5 c 128,-1,12
 363.5 558 363.5 558 378.5 592 c 128,-1,13
 393.5 626 393.5 626 399.5 636 c 0,14,15
 406.5 647 406.5 647 418 656.5 c 128,-1,16
 429.5 666 429.5 666 443.5 666 c 0,17,18
 450.5 666 450.5 666 459 663.5 c 128,-1,19
 467.5 661 467.5 661 475 656.5 c 128,-1,20
 482.5 652 482.5 652 487.5 646 c 128,-1,21
 492.5 640 492.5 640 492.5 633 c 0,22,23
 492.5 625 492.5 625 484 599.5 c 128,-1,24
 475.5 574 475.5 574 464 544.5 c 128,-1,25
 452.5 515 452.5 515 441 487.5 c 128,-1,26
 429.5 460 429.5 460 423.5 447 c 0,27,28
 419.5 438 419.5 438 408.5 410.5 c 128,-1,29
 397.5 383 397.5 383 382.5 344.5 c 128,-1,30
 367.5 306 367.5 306 349.5 259.5 c 128,-1,31
 331.5 213 331.5 213 312.5 166.5 c 128,-1,32
 293.5 120 293.5 120 275 76 c 128,-1,33
 256.5 32 256.5 32 241 -2 c 128,-1,34
 225.5 -36 225.5 -36 213.5 -56.5 c 128,-1,35
 201.5 -77 201.5 -77 196.5 -77 c 0,0,1
171.5 -37 m 0,36,37
 175.5 -25 175.5 -25 183.5 -7 c 128,-1,38
 191.5 11 191.5 11 198.5 27.5 c 128,-1,39
 205.5 44 205.5 44 209 56.5 c 128,-1,40
 212.5 69 212.5 69 207.5 70 c 0,41,42
 205.5 71 205.5 71 200.5 71 c 128,-1,43
 195.5 71 195.5 71 192.5 66 c 0,44,45
 190.5 62 190.5 62 184 48.5 c 128,-1,46
 177.5 35 177.5 35 171 19.5 c 128,-1,47
 164.5 4 164.5 4 159.5 -10.5 c 128,-1,48
 154.5 -25 154.5 -25 154.5 -31 c 0,49,50
 154.5 -38 154.5 -38 162 -40 c 128,-1,51
 169.5 -42 169.5 -42 171.5 -37 c 0,36,37
EndSplineSet
EndChar

StartChar: zero.guru
Encoding: 48 48 16
Width: 620
Flags: W
LayerCount: 2
Fore
SplineSet
315 -17 m 0,0,1
 263 -17 263 -17 228.5 11.5 c 128,-1,2
 194 40 194 40 173 86 c 128,-1,3
 152 132 152 132 143.5 190 c 128,-1,4
 135 248 135 248 135 307 c 256,5,6
 135 366 135 366 145 422.5 c 128,-1,7
 155 479 155 479 177.5 523 c 128,-1,8
 200 567 200 567 236 594 c 128,-1,9
 272 621 272 621 323 621 c 0,10,11
 357 621 357 621 382 604 c 128,-1,12
 407 587 407 587 425 560 c 128,-1,13
 443 533 443 533 455 499 c 128,-1,14
 467 465 467 465 473.5 430 c 128,-1,15
 480 395 480 395 482.5 362.5 c 128,-1,16
 485 330 485 330 485 307 c 0,17,18
 485 258 485 258 476 201 c 128,-1,19
 467 144 467 144 447 95.5 c 128,-1,20
 427 47 427 47 394.5 15 c 128,-1,21
 362 -17 362 -17 315 -17 c 0,0,1
208 512 m 0,22,23
 217 531 217 531 222 540.5 c 128,-1,24
 227 550 227 550 227 553 c 0,25,26
 227 555 227 555 223 555.5 c 128,-1,27
 219 556 219 556 214 549 c 0,28,29
 210 543 210 543 203 530.5 c 128,-1,30
 196 518 196 518 189 504 c 128,-1,31
 182 490 182 490 177.5 476.5 c 128,-1,32
 173 463 173 463 173 456 c 256,33,34
 173 449 173 449 178 451 c 128,-1,35
 183 453 183 453 186 460 c 0,36,37
 189 468 189 468 194 481 c 128,-1,38
 199 494 199 494 208 512 c 0,22,23
316 59 m 0,39,40
 347 59 347 59 365 85 c 128,-1,41
 383 111 383 111 392.5 150 c 128,-1,42
 402 189 402 189 404.5 234 c 128,-1,43
 407 279 407 279 407 316 c 0,44,45
 407 339 407 339 404 377 c 128,-1,46
 401 415 401 415 392 451.5 c 128,-1,47
 383 488 383 488 366.5 514.5 c 128,-1,48
 350 541 350 541 323 541 c 0,49,50
 301 541 301 541 285 514 c 128,-1,51
 269 487 269 487 258.5 449.5 c 128,-1,52
 248 412 248 412 243 371 c 128,-1,53
 238 330 238 330 238 301 c 0,54,55
 238 286 238 286 238 262.5 c 128,-1,56
 238 239 238 239 240 212 c 128,-1,57
 242 185 242 185 246.5 158 c 128,-1,58
 251 131 251 131 259.5 109 c 128,-1,59
 268 87 268 87 282 73 c 128,-1,60
 296 59 296 59 316 59 c 0,39,40
EndSplineSet
EndChar

StartChar: one.guru
Encoding: 49 49 17
Width: 620
Flags: W
LayerCount: 2
Fore
SplineSet
359.5 0 m 0,0,1
 314.5 0 314.5 0 314.5 47 c 2,2,-1
 314.5 450 l 2,3,4
 314.5 459 314.5 459 314 466 c 128,-1,5
 313.5 473 313.5 473 311.5 473 c 0,6,7
 308.5 473 308.5 473 302.5 465.5 c 128,-1,8
 296.5 458 296.5 458 289 448.5 c 128,-1,9
 281.5 439 281.5 439 273 429.5 c 128,-1,10
 264.5 420 264.5 420 256.5 416 c 0,11,12
 247.5 411 247.5 411 237.5 411 c 0,13,14
 223.5 411 223.5 411 214.5 421 c 128,-1,15
 205.5 431 205.5 431 205.5 445 c 0,16,17
 205.5 450 205.5 450 215 463 c 128,-1,18
 224.5 476 224.5 476 231.5 486 c 0,19,20
 240.5 499 240.5 499 258.5 521 c 128,-1,21
 276.5 543 276.5 543 297 564 c 128,-1,22
 317.5 585 317.5 585 336.5 600.5 c 128,-1,23
 355.5 616 355.5 616 367.5 616 c 0,24,25
 373.5 616 373.5 616 381.5 615 c 128,-1,26
 389.5 614 389.5 614 397 611 c 128,-1,27
 404.5 608 404.5 608 409.5 602.5 c 128,-1,28
 414.5 597 414.5 597 414.5 587 c 2,29,-1
 414.5 48 l 2,30,31
 414.5 30 414.5 30 398 15 c 128,-1,32
 381.5 0 381.5 0 359.5 0 c 0,0,1
358.5 592 m 0,33,34
 363.5 600 363.5 600 366.5 602.5 c 128,-1,35
 369.5 605 369.5 605 366.5 606 c 0,36,37
 364.5 606 364.5 606 357.5 603.5 c 128,-1,38
 350.5 601 350.5 601 344.5 595 c 0,39,40
 339.5 590 339.5 590 331.5 583 c 128,-1,41
 323.5 576 323.5 576 323.5 572 c 0,42,43
 323.5 569 323.5 569 327.5 568 c 0,44,45
 334.5 567 334.5 567 344.5 577 c 128,-1,46
 354.5 587 354.5 587 358.5 592 c 0,33,34
347.5 45 m 0,47,48
 347.5 53 347.5 53 345 58 c 128,-1,49
 342.5 63 342.5 63 342.5 74 c 0,50,51
 342.5 79 342.5 79 342 83 c 128,-1,52
 341.5 87 341.5 87 336.5 87 c 0,53,54
 332.5 87 332.5 87 330.5 77.5 c 128,-1,55
 328.5 68 328.5 68 328.5 57 c 128,-1,56
 328.5 46 328.5 46 330.5 36.5 c 128,-1,57
 332.5 27 332.5 27 336.5 27 c 0,58,59
 347.5 27 347.5 27 347.5 45 c 0,47,48
EndSplineSet
EndChar

StartChar: two.guru
Encoding: 50 50 18
Width: 620
Flags: W
LayerCount: 2
Fore
SplineSet
179.2109375 0 m 2,0,1
 170.2109375 0 170.2109375 0 162.7109375 13 c 128,-1,2
 155.2109375 26 155.2109375 26 157.2109375 38 c 256,3,4
 159.2109375 50 159.2109375 50 173.2109375 68 c 128,-1,5
 187.2109375 86 187.2109375 86 203.2109375 106 c 0,6,7
 239.2109375 151 239.2109375 151 268.2109375 198.5 c 128,-1,8
 297.2109375 246 297.2109375 246 317.7109375 292.5 c 128,-1,9
 338.2109375 339 338.2109375 339 349.2109375 383 c 128,-1,10
 360.2109375 427 360.2109375 427 360.2109375 465 c 0,11,12
 360.2109375 506 360.2109375 506 342.7109375 520 c 128,-1,13
 325.2109375 534 325.2109375 534 305.2109375 534 c 256,14,15
 285.2109375 534 285.2109375 534 270.2109375 517.5 c 128,-1,16
 255.2109375 501 255.2109375 501 255.2109375 464 c 0,17,18
 255.2109375 442 255.2109375 442 260.2109375 430.5 c 128,-1,19
 265.2109375 419 265.2109375 419 265.2109375 403 c 0,20,21
 265.2109375 389 265.2109375 389 249.7109375 383 c 128,-1,22
 234.2109375 377 234.2109375 377 223.2109375 377 c 0,23,24
 197.2109375 377 197.2109375 377 179.7109375 403.5 c 128,-1,25
 162.2109375 430 162.2109375 430 162.2109375 470 c 0,26,27
 162.2109375 502 162.2109375 502 172.7109375 529.5 c 128,-1,28
 183.2109375 557 183.2109375 557 202.7109375 577.5 c 128,-1,29
 222.2109375 598 222.2109375 598 248.7109375 610 c 128,-1,30
 275.2109375 622 275.2109375 622 306.2109375 622 c 0,31,32
 336.2109375 622 336.2109375 622 364.7109375 610.5 c 128,-1,33
 393.2109375 599 393.2109375 599 415.2109375 577.5 c 128,-1,34
 437.2109375 556 437.2109375 556 450.2109375 525.5 c 128,-1,35
 463.2109375 495 463.2109375 495 463.2109375 457 c 0,36,37
 463.2109375 410 463.2109375 410 451.2109375 364 c 128,-1,38
 439.2109375 318 439.2109375 318 420.7109375 277 c 128,-1,39
 402.2109375 236 402.2109375 236 381.2109375 201 c 128,-1,40
 360.2109375 166 360.2109375 166 341.7109375 140 c 128,-1,41
 323.2109375 114 323.2109375 114 311.2109375 98 c 128,-1,42
 299.2109375 82 299.2109375 82 299.2109375 79 c 1,43,44
 302.2109375 79 302.2109375 79 307.2109375 79 c 2,45,-1
 331.2109375 79 l 1,46,-1
 418.2109375 82 l 2,47,48
 436.2109375 83 436.2109375 83 445.2109375 79 c 128,-1,49
 454.2109375 75 454.2109375 75 458.2109375 67.5 c 128,-1,50
 462.2109375 60 462.2109375 60 462.2109375 50 c 128,-1,51
 462.2109375 40 462.2109375 40 462.2109375 29 c 0,52,53
 462.2109375 11 462.2109375 11 451.7109375 5.5 c 128,-1,54
 441.2109375 0 441.2109375 0 409.2109375 0 c 2,55,-1
 179.2109375 0 l 2,0,1
195.2109375 488 m 0,56,57
 196.2109375 500 196.2109375 500 194.2109375 507 c 128,-1,58
 192.2109375 514 192.2109375 514 189.2109375 513 c 0,59,60
 185.2109375 513 185.2109375 513 182.7109375 506.5 c 128,-1,61
 180.2109375 500 180.2109375 500 179.7109375 491.5 c 128,-1,62
 179.2109375 483 179.2109375 483 179.2109375 475.5 c 128,-1,63
 179.2109375 468 179.2109375 468 179.2109375 465 c 0,64,65
 181.2109375 452 181.2109375 452 184.2109375 450 c 0,66,67
 189.2109375 445 189.2109375 445 191.2109375 452 c 128,-1,68
 193.2109375 459 193.2109375 459 195.2109375 488 c 0,56,57
197.2109375 424 m 0,69,70
 197.2109375 431 197.2109375 431 190.2109375 431 c 256,71,72
 183.2109375 431 183.2109375 431 183.2109375 423 c 0,73,74
 183.2109375 421 183.2109375 421 185.2109375 418 c 128,-1,75
 187.2109375 415 187.2109375 415 189.2109375 415 c 0,76,77
 193.2109375 415 193.2109375 415 195.2109375 418 c 128,-1,78
 197.2109375 421 197.2109375 421 197.2109375 424 c 0,69,70
196.2109375 50 m 0,79,80
 204.2109375 69 204.2109375 69 201.2109375 69 c 0,81,82
 194.2109375 69 194.2109375 69 186.7109375 60 c 128,-1,83
 179.2109375 51 179.2109375 51 179.2109375 40 c 0,84,85
 179.2109375 32 179.2109375 32 183.2109375 32 c 0,86,87
 188.2109375 32 188.2109375 32 196.2109375 50 c 0,79,80
EndSplineSet
EndChar

StartChar: three.guru
Encoding: 51 51 19
Width: 620
Flags: W
LayerCount: 2
Fore
SplineSet
362 486 m 0,0,1
 362 515 362 515 348 527.5 c 128,-1,2
 334 540 334 540 306 540 c 0,3,4
 273 540 273 540 257 514.5 c 128,-1,5
 241 489 241 489 241 430 c 0,6,7
 241 416 241 416 230.5 410 c 128,-1,8
 220 404 220 404 209 404 c 0,9,10
 148 404 148 404 148 493 c 0,11,12
 148 520 148 520 161.5 543.5 c 128,-1,13
 175 567 175 567 196.5 584.5 c 128,-1,14
 218 602 218 602 246 612 c 128,-1,15
 274 622 274 622 302 622 c 0,16,17
 346 622 346 622 377.5 611 c 128,-1,18
 409 600 409 600 429 581 c 128,-1,19
 449 562 449 562 459 537.5 c 128,-1,20
 469 513 469 513 469 487 c 0,21,22
 469 447 469 447 451.5 418 c 128,-1,23
 434 389 434 389 412.5 368.5 c 128,-1,24
 391 348 391 348 373.5 336 c 128,-1,25
 356 324 356 324 356 318 c 256,26,27
 356 312 356 312 374 305.5 c 128,-1,28
 392 299 392 299 414 284 c 128,-1,29
 436 269 436 269 454 241.5 c 128,-1,30
 472 214 472 214 472 167 c 0,31,32
 472 121 472 121 454.5 88.5 c 128,-1,33
 437 56 437 56 408.5 35 c 128,-1,34
 380 14 380 14 344 4 c 128,-1,35
 308 -6 308 -6 271 -6 c 0,36,37
 255 -6 255 -6 235 -1.5 c 128,-1,38
 215 3 215 3 197.5 12.5 c 128,-1,39
 180 22 180 22 168 36.5 c 128,-1,40
 156 51 156 51 156 71 c 0,41,42
 156 86 156 86 162 95.5 c 128,-1,43
 168 105 168 105 179 105 c 0,44,45
 192 105 192 105 202.5 100.5 c 128,-1,46
 213 96 213 96 223.5 90.5 c 128,-1,47
 234 85 234 85 246 80.5 c 128,-1,48
 258 76 258 76 273 76 c 0,49,50
 300 76 300 76 318 84 c 128,-1,51
 336 92 336 92 346.5 105 c 128,-1,52
 357 118 357 118 361 134 c 128,-1,53
 365 150 365 150 365 166 c 0,54,55
 365 198 365 198 347 220 c 128,-1,56
 329 242 329 242 300 242 c 0,57,58
 258 242 258 242 241 257 c 128,-1,59
 224 272 224 272 224 292 c 0,60,61
 224 311 224 311 245.5 334.5 c 128,-1,62
 267 358 267 358 293 383 c 128,-1,63
 319 408 319 408 340.5 434.5 c 128,-1,64
 362 461 362 461 362 486 c 0,0,1
189 515 m 0,65,66
 190 527 190 527 188 534 c 128,-1,67
 186 541 186 541 183 540 c 0,68,69
 179 540 179 540 175.5 534 c 128,-1,70
 172 528 172 528 169.5 520 c 128,-1,71
 167 512 167 512 165.5 504 c 128,-1,72
 164 496 164 496 165 492 c 0,73,74
 167 479 167 479 170 477 c 0,75,76
 175 472 175 472 181 479 c 128,-1,77
 187 486 187 486 189 515 c 0,65,66
183 451 m 0,78,79
 183 458 183 458 176 458 c 256,80,81
 169 458 169 458 169 450 c 0,82,83
 169 448 169 448 171 445 c 128,-1,84
 173 442 173 442 175 442 c 0,85,86
 179 442 179 442 181 445 c 128,-1,87
 183 448 183 448 183 451 c 0,78,79
257 291 m 0,88,89
 259 296 259 296 263 304 c 128,-1,90
 267 312 267 312 272 319 c 0,91,92
 276 325 276 325 277 330 c 128,-1,93
 278 335 278 335 276 335 c 0,94,95
 272 335 272 335 266 329 c 128,-1,96
 260 323 260 323 254.5 315 c 128,-1,97
 249 307 249 307 245 298.5 c 128,-1,98
 241 290 241 290 241 284 c 0,99,100
 241 275 241 275 246 275 c 256,101,102
 251 275 251 275 257 291 c 0,88,89
187 80 m 0,103,104
 187 101 187 101 178 92 c 0,105,106
 173 87 173 87 171 78 c 128,-1,107
 169 69 169 69 170 62 c 0,108,109
 171 58 171 58 173 56.5 c 128,-1,110
 175 55 175 55 177 55 c 256,111,112
 179 55 179 55 183 63.5 c 128,-1,113
 187 72 187 72 187 80 c 0,103,104
EndSplineSet
EndChar

StartChar: four.guru
Encoding: 52 52 20
Width: 620
Flags: W
LayerCount: 2
Fore
SplineSet
417.5 0 m 0,0,1
 393.5 0 393.5 0 385 19.5 c 128,-1,2
 376.5 39 376.5 39 376.5 62 c 2,3,-1
 376.5 130 l 2,4,5
 376.5 142 376.5 142 363.5 142 c 2,6,-1
 182.5 142 l 2,7,8
 160.5 142 160.5 142 150 152 c 128,-1,9
 139.5 162 139.5 162 139.5 173 c 0,10,11
 139.5 178 139.5 178 148 209.5 c 128,-1,12
 156.5 241 156.5 241 169 286 c 128,-1,13
 181.5 331 181.5 331 196.5 382 c 128,-1,14
 211.5 433 211.5 433 225 478 c 128,-1,15
 238.5 523 238.5 523 248.5 555 c 128,-1,16
 258.5 587 258.5 587 261.5 592 c 0,17,18
 269.5 607 269.5 607 279.5 610.5 c 128,-1,19
 289.5 614 289.5 614 299.5 614 c 0,20,21
 304.5 614 304.5 614 313.5 612 c 128,-1,22
 322.5 610 322.5 610 331 606.5 c 128,-1,23
 339.5 603 339.5 603 346 598 c 128,-1,24
 352.5 593 352.5 593 352.5 587 c 256,25,26
 352.5 581 352.5 581 347.5 558.5 c 128,-1,27
 342.5 536 342.5 536 334.5 503.5 c 128,-1,28
 326.5 471 326.5 471 316.5 433 c 128,-1,29
 306.5 395 306.5 395 296.5 358.5 c 128,-1,30
 286.5 322 286.5 322 277.5 291.5 c 128,-1,31
 268.5 261 268.5 261 262.5 243 c 0,32,33
 260.5 238 260.5 238 259.5 235 c 128,-1,34
 258.5 232 258.5 232 258.5 229 c 0,35,36
 258.5 224 258.5 224 266.5 224 c 2,37,-1
 363.5 224 l 2,38,39
 371.5 224 371.5 224 374 226.5 c 128,-1,40
 376.5 229 376.5 229 376.5 235 c 2,41,-1
 376.5 536 l 2,42,43
 376.5 561 376.5 561 381 576.5 c 128,-1,44
 385.5 592 385.5 592 392.5 601 c 128,-1,45
 399.5 610 399.5 610 408.5 613 c 128,-1,46
 417.5 616 417.5 616 427.5 616 c 0,47,48
 454.5 616 454.5 616 467.5 597 c 128,-1,49
 480.5 578 480.5 578 480.5 550 c 2,50,-1
 480.5 70 l 2,51,52
 480.5 49 480.5 49 475.5 35 c 128,-1,53
 470.5 21 470.5 21 461.5 13.5 c 128,-1,54
 452.5 6 452.5 6 441 3 c 128,-1,55
 429.5 0 429.5 0 417.5 0 c 0,0,1
396.5 541 m 256,56,57
 400.5 541 400.5 541 404 547 c 128,-1,58
 407.5 553 407.5 553 410 561 c 128,-1,59
 412.5 569 412.5 569 414 577.5 c 128,-1,60
 415.5 586 415.5 586 415.5 591 c 0,61,62
 415.5 598 415.5 598 408.5 598 c 0,63,64
 405.5 598 405.5 598 402.5 593.5 c 128,-1,65
 399.5 589 399.5 589 397 582.5 c 128,-1,66
 394.5 576 394.5 576 392.5 569.5 c 128,-1,67
 390.5 563 390.5 563 390.5 558 c 0,68,69
 390.5 552 390.5 552 391.5 546.5 c 128,-1,70
 392.5 541 392.5 541 396.5 541 c 256,56,57
183.5 215 m 0,71,72
 187.5 228 187.5 228 190 235 c 128,-1,73
 192.5 242 192.5 242 191.5 251 c 0,74,75
 191.5 259 191.5 259 186.5 259 c 0,76,77
 183.5 259 183.5 259 180 251.5 c 128,-1,78
 176.5 244 176.5 244 173 234 c 128,-1,79
 169.5 224 169.5 224 167.5 214 c 128,-1,80
 165.5 204 165.5 204 165.5 199 c 0,81,82
 165.5 188 165.5 188 170.5 188 c 0,83,84
 177.5 189 177.5 189 183.5 215 c 0,71,72
173.5 169 m 0,85,86
 173.5 179 173.5 179 165.5 179 c 256,87,88
 157.5 179 157.5 179 157.5 169 c 0,89,90
 157.5 167 157.5 167 158.5 166 c 0,91,92
 162.5 162 162.5 162 165.5 162 c 0,93,94
 167.5 162 167.5 162 170.5 164 c 128,-1,95
 173.5 166 173.5 166 173.5 169 c 0,85,86
409.5 29 m 0,96,97
 406.5 35 406.5 35 403.5 37.5 c 128,-1,98
 400.5 40 400.5 40 400.5 45 c 0,99,100
 400.5 49 400.5 49 399.5 53 c 0,101,102
 399.5 61 399.5 61 394.5 61 c 0,103,104
 388.5 61 388.5 61 388.5 50 c 0,105,106
 388.5 42 388.5 42 393 28.5 c 128,-1,107
 397.5 15 397.5 15 403.5 15 c 0,108,109
 406.5 15 406.5 15 409.5 19.5 c 128,-1,110
 412.5 24 412.5 24 409.5 29 c 0,96,97
EndSplineSet
EndChar

StartChar: five.guru
Encoding: 53 53 21
Width: 620
Flags: W
LayerCount: 2
Fore
SplineSet
210 -8 m 0,0,1
 188 -8 188 -8 175.5 -1.5 c 128,-1,2
 163 5 163 5 157 14 c 128,-1,3
 151 23 151 23 149.5 32.5 c 128,-1,4
 148 42 148 42 148 48 c 0,5,6
 148 62 148 62 153.5 70 c 128,-1,7
 159 78 159 78 168 81.5 c 128,-1,8
 177 85 177 85 188 85.5 c 128,-1,9
 199 86 199 86 210 86 c 0,10,11
 297 86 297 86 333.5 112.5 c 128,-1,12
 370 139 370 139 370 196 c 0,13,14
 370 251 370 251 344 277 c 128,-1,15
 318 303 318 303 269 303 c 0,16,17
 250 303 250 303 238 300 c 128,-1,18
 226 297 226 297 217 293.5 c 128,-1,19
 208 290 208 290 200 287 c 128,-1,20
 192 284 192 284 182 284 c 256,21,22
 172 284 172 284 166 293 c 128,-1,23
 160 302 160 302 157 314.5 c 128,-1,24
 154 327 154 327 153.5 341.5 c 128,-1,25
 153 356 153 356 153 366 c 2,26,-1
 153 568 l 2,27,28
 153 595 153 595 166.5 605.5 c 128,-1,29
 180 616 180 616 199 616 c 2,30,-1
 432 616 l 2,31,32
 440 616 440 616 447 608.5 c 128,-1,33
 454 601 454 601 454 587 c 0,34,35
 454 569 454 569 446.5 552.5 c 128,-1,36
 439 536 439 536 430 536 c 2,37,-1
 262 535 l 2,38,39
 257 535 257 535 255 530.5 c 128,-1,40
 253 526 253 526 253 521 c 2,41,-1
 253 399 l 2,42,43
 253 383 253 383 256 381 c 128,-1,44
 259 379 259 379 266 379 c 2,45,-1
 290 380 l 2,46,47
 330 382 330 382 363.5 371.5 c 128,-1,48
 397 361 397 361 421 338 c 128,-1,49
 445 315 445 315 458.5 280 c 128,-1,50
 472 245 472 245 472 197 c 0,51,52
 472 158 472 158 456 121.5 c 128,-1,53
 440 85 440 85 407.5 56 c 128,-1,54
 375 27 375 27 326 9.5 c 128,-1,55
 277 -8 277 -8 210 -8 c 0,0,1
181 403 m 0,56,57
 181 422 181 422 180 432 c 128,-1,58
 179 442 179 442 173 436 c 0,59,60
 170 433 170 433 168 421 c 128,-1,61
 166 409 166 409 166 395 c 128,-1,62
 166 381 166 381 168 369 c 128,-1,63
 170 357 170 357 173 354 c 256,64,65
 176 351 176 351 177 351 c 0,66,67
 181 351 181 351 181 403 c 0,56,57
189 326 m 0,68,69
 189 336 189 336 184 336 c 0,70,71
 173 336 173 336 173 322 c 0,72,73
 173 315 173 315 181 315 c 0,74,75
 186 315 186 315 187.5 319.5 c 128,-1,76
 189 324 189 324 189 326 c 0,68,69
180 48 m 0,77,78
 179 50 179 50 179.5 54 c 128,-1,79
 180 58 180 58 180.5 61.5 c 128,-1,80
 181 65 181 65 180 67.5 c 128,-1,81
 179 70 179 70 175 70 c 0,82,83
 170 70 170 70 168 61.5 c 128,-1,84
 166 53 166 53 167 42 c 256,85,86
 168 31 168 31 171 21.5 c 128,-1,87
 174 12 174 12 180 12 c 0,88,89
 182 12 182 12 183.5 23 c 128,-1,90
 185 34 185 34 180 48 c 0,77,78
EndSplineSet
EndChar

StartChar: six.guru
Encoding: 54 54 22
Width: 620
Flags: W
LayerCount: 2
Fore
SplineSet
311.5 -11 m 0,0,1
 259.5 -11 259.5 -11 223 8.5 c 128,-1,2
 186.5 28 186.5 28 163.5 61 c 128,-1,3
 140.5 94 140.5 94 130 136.5 c 128,-1,4
 119.5 179 119.5 179 119.5 225 c 0,5,6
 119.5 276 119.5 276 127.5 328.5 c 128,-1,7
 135.5 381 135.5 381 152.5 429 c 128,-1,8
 169.5 477 169.5 477 197 518 c 128,-1,9
 224.5 559 224.5 559 263.5 587 c 0,10,11
 291.5 607 291.5 607 319.5 613.5 c 128,-1,12
 347.5 620 347.5 620 369.5 620 c 0,13,14
 374.5 620 374.5 620 382 618.5 c 128,-1,15
 389.5 617 389.5 617 396.5 614 c 128,-1,16
 403.5 611 403.5 611 409 606 c 128,-1,17
 414.5 601 414.5 601 414.5 593 c 0,18,19
 414.5 579 414.5 579 409.5 567.5 c 128,-1,20
 404.5 556 404.5 556 377.5 547 c 0,21,22
 351.5 538 351.5 538 330.5 521 c 128,-1,23
 309.5 504 309.5 504 293 482.5 c 128,-1,24
 276.5 461 276.5 461 264.5 435.5 c 128,-1,25
 252.5 410 252.5 410 243.5 385 c 0,26,27
 238.5 373 238.5 373 234.5 354.5 c 128,-1,28
 230.5 336 230.5 336 230.5 325 c 0,29,30
 230.5 315 230.5 315 234.5 315 c 0,31,32
 237.5 315 237.5 315 244.5 324.5 c 128,-1,33
 251.5 334 251.5 334 264.5 345 c 128,-1,34
 277.5 356 277.5 356 296.5 365.5 c 128,-1,35
 315.5 375 315.5 375 342.5 375 c 0,36,37
 419.5 375 419.5 375 460 323 c 128,-1,38
 500.5 271 500.5 271 500.5 187 c 0,39,40
 500.5 146 500.5 146 485.5 110 c 128,-1,41
 470.5 74 470.5 74 444.5 47 c 128,-1,42
 418.5 20 418.5 20 384 4.5 c 128,-1,43
 349.5 -11 349.5 -11 311.5 -11 c 0,0,1
306.5 80 m 0,44,45
 348.5 80 348.5 80 374 106.5 c 128,-1,46
 399.5 133 399.5 133 399.5 190 c 0,47,48
 399.5 207 399.5 207 396.5 224 c 128,-1,49
 393.5 241 393.5 241 385.5 255 c 128,-1,50
 377.5 269 377.5 269 364 277.5 c 128,-1,51
 350.5 286 350.5 286 329.5 286 c 0,52,53
 310.5 286 310.5 286 291 276 c 128,-1,54
 271.5 266 271.5 266 256.5 250.5 c 128,-1,55
 241.5 235 241.5 235 232 215.5 c 128,-1,56
 222.5 196 222.5 196 222.5 178 c 0,57,58
 222.5 137 222.5 137 240 108.5 c 128,-1,59
 257.5 80 257.5 80 306.5 80 c 0,44,45
180.5 107 m 0,60,61
 177.5 118 177.5 118 173.5 127.5 c 128,-1,62
 169.5 137 169.5 137 166.5 148 c 0,63,64
 164.5 154 164.5 154 163 159 c 128,-1,65
 161.5 164 161.5 164 157.5 163 c 0,66,67
 154.5 163 154.5 163 152.5 155 c 0,68,69
 151.5 148 151.5 148 155 135 c 128,-1,70
 158.5 122 158.5 122 163.5 110 c 128,-1,71
 168.5 98 168.5 98 174 89.5 c 128,-1,72
 179.5 81 179.5 81 181.5 81 c 0,73,74
 186.5 81 186.5 81 186.5 86 c 0,75,76
 186.5 90 186.5 90 184.5 95 c 128,-1,77
 182.5 100 182.5 100 180.5 107 c 0,60,61
EndSplineSet
EndChar

StartChar: seven.guru
Encoding: 55 55 23
Width: 620
Flags: W
LayerCount: 2
Fore
SplineSet
231.5 -2 m 0,0,1
 217.5 -2 217.5 -2 208 6.5 c 128,-1,2
 198.5 15 198.5 15 198.5 25 c 0,3,4
 198.5 34 198.5 34 208.5 70 c 128,-1,5
 218.5 106 218.5 106 233.5 156 c 128,-1,6
 248.5 206 248.5 206 266.5 263 c 128,-1,7
 284.5 320 284.5 320 301 371 c 128,-1,8
 317.5 422 317.5 422 330.5 461 c 128,-1,9
 343.5 500 343.5 500 348.5 514 c 0,10,11
 353.5 529 353.5 529 341.5 529 c 2,12,-1
 211.5 529 l 2,13,14
 184.5 529 184.5 529 169.5 537.5 c 128,-1,15
 154.5 546 154.5 546 154.5 573 c 256,16,17
 154.5 600 154.5 600 171 608 c 128,-1,18
 187.5 616 187.5 616 213.5 616 c 2,19,-1
 424.5 616 l 2,20,21
 441.5 616 441.5 616 453.5 605.5 c 128,-1,22
 465.5 595 465.5 595 465.5 581 c 0,23,24
 465.5 571 465.5 571 454.5 529 c 128,-1,25
 443.5 487 443.5 487 426 429 c 128,-1,26
 408.5 371 408.5 371 387 303.5 c 128,-1,27
 365.5 236 365.5 236 345.5 176 c 128,-1,28
 325.5 116 325.5 116 309.5 71 c 128,-1,29
 293.5 26 293.5 26 285.5 11 c 0,30,31
 283.5 6 283.5 6 269 2 c 128,-1,32
 254.5 -2 254.5 -2 231.5 -2 c 0,0,1
186.5 594 m 0,33,34
 186.5 602 186.5 602 181.5 602 c 256,35,36
 176.5 602 176.5 602 170 594.5 c 128,-1,37
 163.5 587 163.5 587 163.5 576 c 0,38,39
 163.5 556 163.5 556 171.5 556 c 0,40,41
 174.5 556 174.5 556 177.5 560.5 c 128,-1,42
 180.5 565 180.5 565 182.5 571 c 128,-1,43
 184.5 577 184.5 577 185.5 583.5 c 128,-1,44
 186.5 590 186.5 590 186.5 594 c 0,33,34
231.5 38 m 0,45,46
 233.5 48 233.5 48 235.5 58.5 c 128,-1,47
 237.5 69 237.5 69 239.5 73 c 0,48,49
 243.5 78 243.5 78 242 83 c 128,-1,50
 240.5 88 240.5 88 235.5 88 c 0,51,52
 232.5 88 232.5 88 229 81 c 128,-1,53
 225.5 74 225.5 74 223 64.5 c 128,-1,54
 220.5 55 220.5 55 218.5 45.5 c 128,-1,55
 216.5 36 216.5 36 216.5 31 c 0,56,57
 216.5 19 216.5 19 221.5 19 c 256,58,59
 226.5 19 226.5 19 231.5 38 c 0,45,46
EndSplineSet
EndChar

StartChar: eight.guru
Encoding: 56 56 24
Width: 620
Flags: W
LayerCount: 2
Fore
SplineSet
301.5 -6 m 0,0,1
 261.5 -6 261.5 -6 228 8.5 c 128,-1,2
 194.5 23 194.5 23 171 46.5 c 128,-1,3
 147.5 70 147.5 70 134.5 100.5 c 128,-1,4
 121.5 131 121.5 131 121.5 163 c 0,5,6
 121.5 201 121.5 201 138.5 228 c 128,-1,7
 155.5 255 155.5 255 176 274 c 128,-1,8
 196.5 293 196.5 293 213.5 305.5 c 128,-1,9
 230.5 318 230.5 318 230.5 325 c 0,10,11
 230.5 333 230.5 333 215 342 c 128,-1,12
 199.5 351 199.5 351 180.5 367 c 128,-1,13
 161.5 383 161.5 383 146 407.5 c 128,-1,14
 130.5 432 130.5 432 130.5 471 c 0,15,16
 130.5 503 130.5 503 145 531 c 128,-1,17
 159.5 559 159.5 559 184.5 580 c 128,-1,18
 209.5 601 209.5 601 241.5 613 c 128,-1,19
 273.5 625 273.5 625 308.5 625 c 0,20,21
 334.5 625 334.5 625 364.5 614.5 c 128,-1,22
 394.5 604 394.5 604 420 584.5 c 128,-1,23
 445.5 565 445.5 565 462 536 c 128,-1,24
 478.5 507 478.5 507 478.5 469 c 0,25,26
 478.5 432 478.5 432 464.5 409.5 c 128,-1,27
 450.5 387 450.5 387 434 373.5 c 128,-1,28
 417.5 360 417.5 360 403.5 353 c 128,-1,29
 389.5 346 389.5 346 389.5 340 c 0,30,31
 389.5 331 389.5 331 406.5 319.5 c 128,-1,32
 423.5 308 423.5 308 444 289.5 c 128,-1,33
 464.5 271 464.5 271 481.5 242 c 128,-1,34
 498.5 213 498.5 213 498.5 169 c 0,35,36
 498.5 136 498.5 136 483 104.5 c 128,-1,37
 467.5 73 467.5 73 440.5 48 c 128,-1,38
 413.5 23 413.5 23 378 8.5 c 128,-1,39
 342.5 -6 342.5 -6 301.5 -6 c 0,0,1
173.5 512 m 0,40,41
 174.5 518 174.5 518 179.5 525 c 128,-1,42
 184.5 532 184.5 532 190.5 538.5 c 128,-1,43
 196.5 545 196.5 545 202 550.5 c 128,-1,44
 207.5 556 207.5 556 210.5 559 c 0,45,46
 221.5 571 221.5 571 221.5 578 c 0,47,48
 221.5 582 221.5 582 217.5 582 c 0,49,50
 208.5 582 208.5 582 198 572.5 c 128,-1,51
 187.5 563 187.5 563 178.5 549.5 c 128,-1,52
 169.5 536 169.5 536 163.5 522.5 c 128,-1,53
 157.5 509 157.5 509 157.5 501 c 256,54,55
 157.5 493 157.5 493 161.5 493 c 0,56,57
 168.5 493 168.5 493 173.5 512 c 0,40,41
308.5 371 m 0,58,59
 321.5 371 321.5 371 334 379.5 c 128,-1,60
 346.5 388 346.5 388 356.5 402 c 128,-1,61
 366.5 416 366.5 416 373 433.5 c 128,-1,62
 379.5 451 379.5 451 379.5 469 c 0,63,64
 379.5 504 379.5 504 359.5 529.5 c 128,-1,65
 339.5 555 339.5 555 307.5 555 c 256,66,67
 275.5 555 275.5 555 252.5 533 c 128,-1,68
 229.5 511 229.5 511 229.5 473 c 0,69,70
 229.5 459 229.5 459 234.5 441.5 c 128,-1,71
 239.5 424 239.5 424 249.5 408 c 128,-1,72
 259.5 392 259.5 392 274.5 381.5 c 128,-1,73
 289.5 371 289.5 371 308.5 371 c 0,58,59
163.5 469 m 0,74,75
 163.5 478 163.5 478 156.5 478 c 0,76,77
 151.5 478 151.5 478 150 475 c 128,-1,78
 148.5 472 148.5 472 148.5 469 c 0,79,80
 148.5 467 148.5 467 149.5 465 c 0,81,82
 151.5 461 151.5 461 155.5 461 c 0,83,84
 157.5 461 157.5 461 160.5 463 c 128,-1,85
 163.5 465 163.5 465 163.5 469 c 0,74,75
303.5 73 m 0,86,87
 351.5 73 351.5 73 369 98 c 128,-1,88
 386.5 123 386.5 123 386.5 169 c 0,89,90
 386.5 188 386.5 188 379 208.5 c 128,-1,91
 371.5 229 371.5 229 360 246 c 128,-1,92
 348.5 263 348.5 263 335.5 274 c 128,-1,93
 322.5 285 322.5 285 311.5 285 c 0,94,95
 296.5 285 296.5 285 281.5 273.5 c 128,-1,96
 266.5 262 266.5 262 254.5 244.5 c 128,-1,97
 242.5 227 242.5 227 235 205.5 c 128,-1,98
 227.5 184 227.5 184 227.5 163 c 0,99,100
 227.5 147 227.5 147 233 131 c 128,-1,101
 238.5 115 238.5 115 248 102 c 128,-1,102
 257.5 89 257.5 89 271.5 81 c 128,-1,103
 285.5 73 285.5 73 303.5 73 c 0,86,87
167.5 222 m 256,104,105
 170.5 230 170.5 230 167.5 233 c 128,-1,106
 164.5 236 164.5 236 157.5 229 c 0,107,108
 154.5 226 154.5 226 149.5 218.5 c 128,-1,109
 144.5 211 144.5 211 140 202 c 128,-1,110
 135.5 193 135.5 193 132 183.5 c 128,-1,111
 128.5 174 128.5 174 128.5 166 c 0,112,113
 127.5 158 127.5 158 131 150.5 c 128,-1,114
 134.5 143 134.5 143 141.5 143 c 0,115,116
 149.5 143 149.5 143 148.5 155.5 c 128,-1,117
 147.5 168 147.5 168 149.5 179 c 0,118,119
 152.5 194 152.5 194 158.5 204 c 128,-1,120
 164.5 214 164.5 214 167.5 222 c 256,104,105
EndSplineSet
EndChar

StartChar: nine.guru
Encoding: 57 57 25
Width: 620
Flags: W
LayerCount: 2
Fore
SplineSet
308 623 m 0,0,1
 363 623 363 623 400 601.5 c 128,-1,2
 437 580 437 580 459 546 c 128,-1,3
 481 512 481 512 490.5 470 c 128,-1,4
 500 428 500 428 500 387 c 0,5,6
 500 336 500 336 488.5 284 c 128,-1,7
 477 232 477 232 456.5 185 c 128,-1,8
 436 138 436 138 408 99 c 128,-1,9
 380 60 380 60 347 34 c 0,10,11
 320 13 320 13 291.5 2.5 c 128,-1,12
 263 -8 263 -8 241 -8 c 0,13,14
 223 -8 223 -8 210.5 -1.5 c 128,-1,15
 198 5 198 5 198 21 c 0,16,17
 198 36 198 36 206 51.5 c 128,-1,18
 214 67 214 67 241 76 c 0,19,20
 267 85 267 85 287.5 100 c 128,-1,21
 308 115 308 115 324 135 c 128,-1,22
 340 155 340 155 351.5 178.5 c 128,-1,23
 363 202 363 202 372 227 c 0,24,25
 377 239 377 239 381 257.5 c 128,-1,26
 385 276 385 276 385 287 c 0,27,28
 385 297 385 297 381 297 c 0,29,30
 378 297 378 297 371.5 289 c 128,-1,31
 365 281 365 281 352 272 c 128,-1,32
 339 263 339 263 319 255 c 128,-1,33
 299 247 299 247 269 247 c 0,34,35
 199 247 199 247 159.5 295 c 128,-1,36
 120 343 120 343 120 425 c 0,37,38
 120 463 120 463 132 499 c 128,-1,39
 144 535 144 535 168 562.5 c 128,-1,40
 192 590 192 590 227 606.5 c 128,-1,41
 262 623 262 623 308 623 c 0,0,1
313 535 m 0,42,43
 271 535 271 535 245.5 508 c 128,-1,44
 220 481 220 481 220 432 c 0,45,46
 220 390 220 390 238.5 364.5 c 128,-1,47
 257 339 257 339 290 339 c 0,48,49
 310 339 310 339 328.5 347 c 128,-1,50
 347 355 347 355 361 368 c 128,-1,51
 375 381 375 381 384 398.5 c 128,-1,52
 393 416 393 416 393 434 c 0,53,54
 393 455 393 455 389.5 473 c 128,-1,55
 386 491 386 491 377 505 c 128,-1,56
 368 519 368 519 352.5 527 c 128,-1,57
 337 535 337 535 313 535 c 0,42,43
170 486 m 0,58,59
 172 496 172 496 174.5 503.5 c 128,-1,60
 177 511 177 511 177 517 c 0,61,62
 177 524 177 524 170 524 c 0,63,64
 167 524 167 524 161.5 511 c 128,-1,65
 156 498 156 498 151.5 480 c 128,-1,66
 147 462 147 462 144 444 c 128,-1,67
 141 426 141 426 143 415 c 0,68,69
 146 403 146 403 151 403 c 256,70,71
 156 403 156 403 158.5 410.5 c 128,-1,72
 161 418 161 418 163 426 c 0,73,74
 167 443 167 443 167 457 c 128,-1,75
 167 471 167 471 170 486 c 0,58,59
166 380 m 0,76,77
 166 385 166 385 164.5 388.5 c 128,-1,78
 163 392 163 392 160 392 c 0,79,80
 155 392 155 392 151 389 c 128,-1,81
 147 386 147 386 147 376 c 0,82,83
 147 373 147 373 149.5 370 c 128,-1,84
 152 367 152 367 156 367 c 0,85,86
 162 367 162 367 164 372.5 c 128,-1,87
 166 378 166 378 166 380 c 0,76,77
238 58 m 2,88,89
 238 61 238 61 233.5 60 c 128,-1,90
 229 59 229 59 224 55 c 128,-1,91
 219 51 219 51 215 44 c 128,-1,92
 211 37 211 37 211 28 c 0,93,94
 211 26 211 26 212.5 20 c 128,-1,95
 214 14 214 14 218 14 c 0,96,97
 221 14 221 14 224.5 20.5 c 128,-1,98
 228 27 228 27 231 35.5 c 128,-1,99
 234 44 234 44 236 51 c 128,-1,100
 238 58 238 58 238 58 c 2,88,89
EndSplineSet
EndChar

StartChar: colon.guru
Encoding: 58 58 26
Width: 620
Flags: W
LayerCount: 2
Fore
SplineSet
248 54 m 0,0,1
 248 91 248 91 266 106 c 128,-1,2
 284 121 284 121 309 121 c 0,3,4
 335 121 335 121 353.5 106 c 128,-1,5
 372 91 372 91 372 54 c 0,6,7
 372 18 372 18 353.5 2 c 128,-1,8
 335 -14 335 -14 309 -14 c 0,9,10
 284 -14 284 -14 266 2 c 128,-1,11
 248 18 248 18 248 54 c 0,0,1
248 482 m 0,12,13
 248 520 248 520 266 535 c 128,-1,14
 284 550 284 550 309 550 c 0,15,16
 335 550 335 550 353.5 535 c 128,-1,17
 372 520 372 520 372 482 c 0,18,19
 372 446 372 446 353.5 430 c 128,-1,20
 335 414 335 414 309 414 c 0,21,22
 284 414 284 414 266 430 c 128,-1,23
 248 446 248 446 248 482 c 0,12,13
EndSplineSet
EndChar

StartChar: semicolon.guru
Encoding: 59 59 27
Width: 620
Flags: W
LayerCount: 2
Fore
SplineSet
380.5 105 m 1,0,1
 371.5 70 371.5 70 357.5 29 c 128,-1,2
 343.5 -12 343.5 -12 327 -52.5 c 128,-1,3
 310.5 -93 310.5 -93 294.5 -129 c 1,4,-1
 228.5 -129 l 1,5,6
 235.5 -101 235.5 -101 243 -69 c 128,-1,7
 250.5 -37 250.5 -37 257.5 -4.5 c 128,-1,8
 264.5 28 264.5 28 270 59 c 128,-1,9
 275.5 90 275.5 90 279.5 116 c 1,10,-1
 373.5 116 l 1,11,-1
 380.5 105 l 1,0,1
267.5 482 m 0,12,13
 267.5 520 267.5 520 285.5 535 c 128,-1,14
 303.5 550 303.5 550 328.5 550 c 0,15,16
 354.5 550 354.5 550 373 535 c 128,-1,17
 391.5 520 391.5 520 391.5 482 c 0,18,19
 391.5 446 391.5 446 373 430 c 128,-1,20
 354.5 414 354.5 414 328.5 414 c 0,21,22
 303.5 414 303.5 414 285.5 430 c 128,-1,23
 267.5 446 267.5 446 267.5 482 c 0,12,13
EndSplineSet
EndChar

StartChar: less.guru
Encoding: 60 60 28
Width: 620
Flags: W
LayerCount: 2
Fore
SplineSet
545.5 116 m 1,0,-1
 74.5 323 l 1,1,-1
 74.5 373 l 1,2,-1
 545.5 608 l 1,3,-1
 545.5 530 l 1,4,-1
 168.5 352 l 1,5,-1
 545.5 194 l 1,6,-1
 545.5 116 l 1,0,-1
EndSplineSet
EndChar

StartChar: equal.guru
Encoding: 61 61 29
Width: 620
Flags: W
LayerCount: 2
Fore
SplineSet
81 416 m 1,0,-1
 81 487 l 1,1,-1
 539 487 l 1,2,-1
 539 416 l 1,3,-1
 81 416 l 1,0,-1
81 217 m 1,4,-1
 81 288 l 1,5,-1
 539 288 l 1,6,-1
 539 217 l 1,7,-1
 81 217 l 1,4,-1
EndSplineSet
EndChar

StartChar: greater.guru
Encoding: 62 62 30
Width: 620
Flags: W
LayerCount: 2
Fore
SplineSet
74.5 194 m 1,0,-1
 451.5 351 l 1,1,-1
 74.5 530 l 1,2,-1
 74.5 608 l 1,3,-1
 545.5 373 l 1,4,-1
 545.5 323 l 1,5,-1
 74.5 116 l 1,6,-1
 74.5 194 l 1,0,-1
EndSplineSet
EndChar

StartChar: question.guru
Encoding: 63 63 31
Width: 620
Flags: W
LayerCount: 2
Fore
SplineSet
240 199 m 6,0,1
 240 237 240 237 247.5 264.5 c 132,-1,2
 255 292 255 292 273.5 317 c 132,-1,3
 292 342 292 342 324 369 c 4,4,5
 363 402 363 402 384.5 424 c 132,-1,6
 406 446 406 446 415 467 c 132,-1,7
 424 488 424 488 424 518 c 4,8,9
 424 566 424 566 393 592 c 132,-1,10
 362 618 362 618 303 618 c 4,11,12
 254 618 254 618 216 605.5 c 132,-1,13
 178 593 178 593 143 576 c 5,14,-1
 112 646 l 5,15,16
 152 667 152 667 200.5 681 c 132,-1,17
 249 695 249 695 309 695 c 4,18,19
 404 695 404 695 456 648 c 132,-1,20
 508 601 508 601 508 520 c 4,21,22
 508 475 508 475 493.5 443.5 c 132,-1,23
 479 412 479 412 452.5 385.5 c 132,-1,24
 426 359 426 359 390 329 c 4,25,26
 357 301 357 301 339.5 280 c 132,-1,27
 322 259 322 259 316 238.5 c 132,-1,28
 310 218 310 218 310 189 c 6,29,-1
 310 172 l 5,30,-1
 240 172 l 5,31,-1
 240 199 l 6,0,1
217 25 m 4,32,33
 217 62 217 62 234.5 77 c 132,-1,34
 252 92 252 92 279 92 c 4,35,36
 304 92 304 92 322 77 c 132,-1,37
 340 62 340 62 340 25 c 4,38,39
 340 -11 340 -11 322 -27 c 132,-1,40
 304 -43 304 -43 279 -43 c 4,41,42
 252 -43 252 -43 234.5 -27 c 132,-1,43
 217 -11 217 -11 217 25 c 4,32,33
EndSplineSet
EndChar

StartChar: bracketleft.guru
Encoding: 91 91 32
Width: 620
Flags: W
LayerCount: 2
Fore
SplineSet
214.930664062 -70 m 0,0,1
 211.930664062 -67 211.930664062 -67 210.430664062 -56.5 c 128,-1,2
 208.930664062 -46 208.930664062 -46 207.930664062 -12.5 c 128,-1,3
 206.930664062 21 206.930664062 21 206.930664062 86.5 c 128,-1,4
 206.930664062 152 206.930664062 152 206.930664062 266 c 0,5,6
 206.930664062 347 206.930664062 347 206.930664062 405 c 128,-1,7
 206.930664062 463 206.930664062 463 206.930664062 503.5 c 128,-1,8
 206.930664062 544 206.930664062 544 207.930664062 570 c 128,-1,9
 208.930664062 596 208.930664062 596 210.930664062 611.5 c 128,-1,10
 212.930664062 627 212.930664062 627 215.930664062 635 c 128,-1,11
 218.930664062 643 218.930664062 643 223.930664062 649 c 0,12,13
 227.930664062 654 227.930664062 654 239.430664062 657 c 128,-1,14
 250.930664062 660 250.930664062 660 266.430664062 661.5 c 128,-1,15
 281.930664062 663 281.930664062 663 301.430664062 663.5 c 128,-1,16
 320.930664062 664 320.930664062 664 340.930664062 664 c 0,17,18
 381.930664062 664 381.930664062 664 402.430664062 650 c 128,-1,19
 422.930664062 636 422.930664062 636 403.930664062 616 c 0,20,21
 398.930664062 610 398.930664062 610 384.930664062 606 c 128,-1,22
 370.930664062 602 370.930664062 602 340.930664062 602 c 0,23,24
 326.930664062 602 326.930664062 602 319.430664062 600 c 128,-1,25
 311.930664062 598 311.930664062 598 308.930664062 593 c 128,-1,26
 305.930664062 588 305.930664062 588 305.930664062 579.5 c 128,-1,27
 305.930664062 571 305.930664062 571 305.930664062 557 c 2,28,-1
 305.930664062 -20 l 1,29,-1
 323.930664062 -20 l 2,30,31
 366.930664062 -20 366.930664062 -20 381.430664062 -27.5 c 128,-1,32
 395.930664062 -35 395.930664062 -35 395.930664062 -56 c 0,33,34
 395.930664062 -66 395.930664062 -66 392.430664062 -71.5 c 128,-1,35
 388.930664062 -77 388.930664062 -77 378.430664062 -79.5 c 128,-1,36
 367.930664062 -82 367.930664062 -82 349.930664062 -82.5 c 128,-1,37
 331.930664062 -83 331.930664062 -83 301.930664062 -83 c 0,38,39
 274.930664062 -83 274.930664062 -83 259.430664062 -83 c 128,-1,40
 243.930664062 -83 243.930664062 -83 234.930664062 -81.5 c 128,-1,41
 225.930664062 -80 225.930664062 -80 221.930664062 -77.5 c 128,-1,42
 217.930664062 -75 217.930664062 -75 214.930664062 -70 c 0,0,1
251.930664062 616 m 256,43,44
 253.930664062 624 253.930664062 624 262.930664062 630 c 128,-1,45
 271.930664062 636 271.930664062 636 277.930664062 636 c 0,46,47
 286.930664062 636 286.930664062 636 286.930664062 643 c 0,48,49
 286.930664062 644 286.930664062 644 285.430664062 644 c 128,-1,50
 283.930664062 644 283.930664062 644 277.930664062 644 c 0,51,52
 262.930664062 644 262.930664062 644 248.930664062 634 c 128,-1,53
 234.930664062 624 234.930664062 624 234.930664062 610 c 0,54,55
 234.930664062 598 234.930664062 598 238.930664062 598 c 256,56,57
 242.930664062 598 242.930664062 598 246.430664062 603 c 128,-1,58
 249.930664062 608 249.930664062 608 251.930664062 616 c 256,43,44
EndSplineSet
EndChar

StartChar: backslash.guru
Encoding: 92 92 33
Width: 620
Flags: W
LayerCount: 2
Fore
SplineSet
196.5 666 m 0,0,1
 203.5 666 203.5 666 221.5 630.5 c 128,-1,2
 239.5 595 239.5 595 263 541 c 128,-1,3
 286.5 487 286.5 487 312.5 422.5 c 128,-1,4
 338.5 358 338.5 358 361.5 299.5 c 128,-1,5
 384.5 241 384.5 241 401 197.5 c 128,-1,6
 417.5 154 417.5 154 423.5 142 c 0,7,8
 429.5 129 429.5 129 441 101.5 c 128,-1,9
 452.5 74 452.5 74 464 44.5 c 128,-1,10
 475.5 15 475.5 15 484 -10.5 c 128,-1,11
 492.5 -36 492.5 -36 492.5 -44 c 0,12,13
 492.5 -51 492.5 -51 487.5 -57 c 128,-1,14
 482.5 -63 482.5 -63 475 -67.5 c 128,-1,15
 467.5 -72 467.5 -72 459 -74.5 c 128,-1,16
 450.5 -77 450.5 -77 443.5 -77 c 0,17,18
 429.5 -77 429.5 -77 418 -67.5 c 128,-1,19
 406.5 -58 406.5 -58 399.5 -47 c 0,20,21
 393.5 -37 393.5 -37 378.5 -3 c 128,-1,22
 363.5 31 363.5 31 343.5 79.5 c 128,-1,23
 323.5 128 323.5 128 299.5 187 c 128,-1,24
 275.5 246 275.5 246 251.5 306 c 128,-1,25
 227.5 366 227.5 366 205 423 c 128,-1,26
 182.5 480 182.5 480 165.5 525 c 128,-1,27
 148.5 570 148.5 570 138 598.5 c 128,-1,28
 127.5 627 127.5 627 127.5 630 c 0,29,30
 127.5 639 127.5 639 136.5 646 c 128,-1,31
 145.5 653 145.5 653 157.5 657.5 c 128,-1,32
 169.5 662 169.5 662 181 664 c 128,-1,33
 192.5 666 192.5 666 196.5 666 c 0,0,1
171.5 626 m 0,34,35
 169.5 631 169.5 631 162 629 c 128,-1,36
 154.5 627 154.5 627 154.5 620 c 0,37,38
 154.5 614 154.5 614 159.5 599.5 c 128,-1,39
 164.5 585 164.5 585 171 569.5 c 128,-1,40
 177.5 554 177.5 554 184 540.5 c 128,-1,41
 190.5 527 190.5 527 192.5 523 c 0,42,43
 195.5 518 195.5 518 200.5 518 c 128,-1,44
 205.5 518 205.5 518 207.5 519 c 0,45,46
 212.5 520 212.5 520 209 532.5 c 128,-1,47
 205.5 545 205.5 545 198.5 561.5 c 128,-1,48
 191.5 578 191.5 578 183.5 596 c 128,-1,49
 175.5 614 175.5 614 171.5 626 c 0,34,35
EndSplineSet
EndChar

StartChar: bracketright.guru
Encoding: 93 93 34
Width: 620
Flags: W
LayerCount: 2
Fore
SplineSet
239.75 -80 m 0,0,1
 224.75 -80 224.75 -80 214.25 -71.5 c 128,-1,2
 203.75 -63 203.75 -63 203.75 -55 c 0,3,4
 203.75 -33 203.75 -33 217.25 -25 c 128,-1,5
 230.75 -17 230.75 -17 250.75 -17 c 0,6,7
 274.75 -17 274.75 -17 288.25 -15 c 128,-1,8
 301.75 -13 301.75 -13 308.25 -8.5 c 128,-1,9
 314.75 -4 314.75 -4 316.25 3.5 c 128,-1,10
 317.75 11 317.75 11 317.75 21 c 2,11,-1
 317.75 551 l 2,12,13
 317.75 580 317.75 580 305.75 590 c 128,-1,14
 293.75 600 293.75 600 282.75 600 c 256,15,16
 271.75 600 271.75 600 259.75 598 c 128,-1,17
 247.75 596 247.75 596 236.75 596 c 0,18,19
 222.75 596 222.75 596 213.25 603 c 128,-1,20
 203.75 610 203.75 610 203.75 633 c 0,21,22
 203.75 645 203.75 645 220.25 653.5 c 128,-1,23
 236.75 662 236.75 662 265.75 662 c 0,24,25
 290.75 662 290.75 662 314.75 662 c 128,-1,26
 338.75 662 338.75 662 358.25 660.5 c 128,-1,27
 377.75 659 377.75 659 390.75 656 c 128,-1,28
 403.75 653 403.75 653 406.75 647 c 0,29,30
 409.75 642 409.75 642 410.25 625.5 c 128,-1,31
 410.75 609 410.75 609 410.75 570.5 c 128,-1,32
 410.75 532 410.75 532 411.25 466 c 128,-1,33
 411.75 400 411.75 400 412.75 295 c 0,34,35
 414.75 193 414.75 193 415.75 127.5 c 128,-1,36
 416.75 62 416.75 62 415.75 21 c 0,37,38
 415.75 -7 415.75 -7 411.75 -25 c 128,-1,39
 407.75 -43 407.75 -43 401.75 -54 c 128,-1,40
 395.75 -65 395.75 -65 387.25 -70 c 128,-1,41
 378.75 -75 378.75 -75 368.75 -76 c 0,42,43
 350.75 -78 350.75 -78 329.25 -79 c 128,-1,44
 307.75 -80 307.75 -80 288.75 -80 c 128,-1,45
 269.75 -80 269.75 -80 255.75 -80 c 128,-1,46
 241.75 -80 241.75 -80 239.75 -80 c 0,0,1
234.75 644 m 256,47,48
 230.75 649 230.75 649 223.75 645 c 128,-1,49
 216.75 641 216.75 641 216.75 633 c 0,50,51
 216.75 623 216.75 623 220.75 623 c 256,52,53
 224.75 623 224.75 623 224.75 630 c 0,54,55
 225.75 634 225.75 634 232.25 636.5 c 128,-1,56
 238.75 639 238.75 639 234.75 644 c 256,47,48
EndSplineSet
EndChar

StartChar: asciicircum.guru
Encoding: 94 94 35
Width: 620
Flags: W
LayerCount: 2
Fore
SplineSet
62 267 m 1,0,-1
 274 719 l 1,1,-1
 324 719 l 1,2,-1
 558 267 l 1,3,-1
 480 267 l 1,4,-1
 300 626 l 1,5,-1
 140 267 l 1,6,-1
 62 267 l 1,0,-1
EndSplineSet
EndChar

StartChar: underscore.guru
Encoding: 95 95 36
Width: 620
Flags: W
LayerCount: 2
Fore
SplineSet
534 -154 m 1,0,-1
 86 -154 l 1,1,-1
 86 -90 l 1,2,-1
 534 -90 l 1,3,-1
 534 -154 l 1,0,-1
EndSplineSet
EndChar

StartChar: braceleft.guru
Encoding: 123 123 37
Width: 620
Flags: W
LayerCount: 2
Fore
SplineSet
386.5 -77 m 0,0,1
 333.5 -77 333.5 -77 303.5 -62 c 128,-1,2
 273.5 -47 273.5 -47 258 -21 c 128,-1,3
 242.5 5 242.5 5 238 39 c 128,-1,4
 233.5 73 233.5 73 231.5 111 c 0,5,6
 229.5 156 229.5 156 219 178 c 128,-1,7
 208.5 200 208.5 200 197 213 c 128,-1,8
 185.5 226 185.5 226 176.5 238 c 128,-1,9
 167.5 250 167.5 250 167.5 276 c 256,10,11
 167.5 302 167.5 302 180.5 315.5 c 128,-1,12
 193.5 329 193.5 329 209.5 345 c 128,-1,13
 225.5 361 225.5 361 239.5 387.5 c 128,-1,14
 253.5 414 253.5 414 255.5 466 c 0,15,16
 257.5 505 257.5 505 260.5 540.5 c 128,-1,17
 263.5 576 263.5 576 277 602.5 c 128,-1,18
 290.5 629 290.5 629 319 644.5 c 128,-1,19
 347.5 660 347.5 660 401.5 660 c 0,20,21
 416.5 660 416.5 660 426.5 656 c 128,-1,22
 436.5 652 436.5 652 442.5 646 c 128,-1,23
 448.5 640 448.5 640 450.5 633.5 c 128,-1,24
 452.5 627 452.5 627 452.5 622 c 0,25,26
 452.5 606 452.5 606 440 602 c 128,-1,27
 427.5 598 427.5 598 410.5 596.5 c 128,-1,28
 393.5 595 393.5 595 375.5 591 c 128,-1,29
 357.5 587 357.5 587 345.5 572 c 0,30,31
 337.5 562 337.5 562 338.5 540.5 c 128,-1,32
 339.5 519 339.5 519 342.5 492.5 c 128,-1,33
 345.5 466 345.5 466 347 436 c 128,-1,34
 348.5 406 348.5 406 342.5 378 c 0,35,36
 339.5 364 339.5 364 326 348 c 128,-1,37
 312.5 332 312.5 332 298.5 318 c 128,-1,38
 284.5 304 284.5 304 273 293 c 128,-1,39
 261.5 282 261.5 282 261.5 277 c 256,40,41
 261.5 272 261.5 272 272.5 260.5 c 128,-1,42
 283.5 249 283.5 249 296.5 232 c 128,-1,43
 309.5 215 309.5 215 320.5 192.5 c 128,-1,44
 331.5 170 331.5 170 331.5 143 c 0,45,46
 331.5 135 331.5 135 330.5 115.5 c 128,-1,47
 329.5 96 329.5 96 329 74.5 c 128,-1,48
 328.5 53 328.5 53 330 34 c 128,-1,49
 331.5 15 331.5 15 336.5 9 c 0,50,51
 345.5 -2 345.5 -2 358.5 -10 c 128,-1,52
 371.5 -18 371.5 -18 388.5 -18 c 0,53,54
 396.5 -18 396.5 -18 406 -18.5 c 128,-1,55
 415.5 -19 415.5 -19 423 -21.5 c 128,-1,56
 430.5 -24 430.5 -24 435.5 -30 c 128,-1,57
 440.5 -36 440.5 -36 440.5 -47 c 0,58,59
 440.5 -56 440.5 -56 435 -62 c 128,-1,60
 429.5 -68 429.5 -68 421.5 -71.5 c 128,-1,61
 413.5 -75 413.5 -75 404 -76 c 128,-1,62
 394.5 -77 394.5 -77 386.5 -77 c 0,0,1
305.5 584 m 0,63,64
 312.5 594 312.5 594 321 601.5 c 128,-1,65
 329.5 609 329.5 609 337 615 c 128,-1,66
 344.5 621 344.5 621 349 626 c 128,-1,67
 353.5 631 353.5 631 353.5 636 c 0,68,69
 353.5 640 353.5 640 348.5 640 c 0,70,71
 341.5 640 341.5 640 330.5 633 c 128,-1,72
 319.5 626 319.5 626 309.5 616 c 128,-1,73
 299.5 606 299.5 606 292.5 594.5 c 128,-1,74
 285.5 583 285.5 583 285.5 574 c 0,75,76
 285.5 572 285.5 572 287.5 571 c 128,-1,77
 289.5 570 289.5 570 290.5 570 c 0,78,79
 295.5 570 295.5 570 299 575 c 128,-1,80
 302.5 580 302.5 580 305.5 584 c 0,63,64
EndSplineSet
EndChar

StartChar: bar.guru
Encoding: 124 124 38
Width: 620
Flags: W
LayerCount: 2
Fore
SplineSet
312 -99 m 256,0,1
 285 -99 285 -99 273.5 -80 c 128,-1,2
 262 -61 262 -61 262 -43 c 2,3,-1
 263 666 l 2,4,5
 263 682 263 682 273.5 694 c 128,-1,6
 284 706 284 706 304 706 c 0,7,8
 328 706 328 706 342 698 c 128,-1,9
 356 690 356 690 358 672 c 2,10,-1
 358 -38 l 2,11,12
 358 -60 358 -60 348.5 -79.5 c 128,-1,13
 339 -99 339 -99 312 -99 c 256,0,1
290 653 m 0,14,15
 290 664 290 664 292.5 671.5 c 128,-1,16
 295 679 295 679 296.5 683.5 c 128,-1,17
 298 688 298 688 298 690 c 128,-1,18
 298 692 298 692 293 692 c 0,19,20
 287 692 287 692 283.5 686.5 c 128,-1,21
 280 681 280 681 278 673.5 c 128,-1,22
 276 666 276 666 275.5 658.5 c 128,-1,23
 275 651 275 651 275 646 c 0,24,25
 275 633 275 633 278 622.5 c 128,-1,26
 281 612 281 612 287 612 c 0,27,28
 290 612 290 612 290.5 616.5 c 128,-1,29
 291 621 291 621 291 628 c 128,-1,30
 291 635 291 635 290.5 642 c 128,-1,31
 290 649 290 649 290 653 c 0,14,15
EndSplineSet
EndChar

StartChar: braceright.guru
Encoding: 125 125 39
Width: 620
Flags: W
LayerCount: 2
Fore
SplineSet
236 -74 m 0,0,1
 229 -74 229 -74 220 -72.5 c 128,-1,2
 211 -71 211 -71 202.5 -67 c 128,-1,3
 194 -63 194 -63 188 -57 c 128,-1,4
 182 -51 182 -51 182 -42 c 0,5,6
 182 -34 182 -34 187 -29.5 c 128,-1,7
 192 -25 192 -25 198.5 -23 c 128,-1,8
 205 -21 205 -21 213 -21 c 128,-1,9
 221 -21 221 -21 227 -21 c 0,10,11
 254 -21 254 -21 266 -12.5 c 128,-1,12
 278 -4 278 -4 282.5 10.5 c 128,-1,13
 287 25 287 25 287 43 c 128,-1,14
 287 61 287 61 289 80 c 0,15,16
 291 97 291 97 293 122.5 c 128,-1,17
 295 148 295 148 300.5 175 c 128,-1,18
 306 202 306 202 314.5 226.5 c 128,-1,19
 323 251 323 251 336 264 c 0,20,21
 338 267 338 267 346 271.5 c 128,-1,22
 354 276 354 276 354 280 c 0,23,24
 354 286 354 286 342.5 289.5 c 128,-1,25
 331 293 331 293 327 296 c 0,26,27
 311 306 311 306 300.5 334 c 128,-1,28
 290 362 290 362 284.5 395 c 128,-1,29
 279 428 279 428 276.5 459 c 128,-1,30
 274 490 274 490 273 505 c 0,31,32
 272 514 272 514 272.5 529 c 128,-1,33
 273 544 273 544 271.5 558 c 128,-1,34
 270 572 270 572 266.5 583 c 128,-1,35
 263 594 263 594 254 596 c 0,36,37
 236 601 236 601 218 599 c 0,38,39
 189 597 189 597 176.5 605.5 c 128,-1,40
 164 614 164 614 164 631 c 0,41,42
 164 653 164 653 186.5 660.5 c 128,-1,43
 209 668 209 668 242 663 c 0,44,45
 278 659 278 659 301.5 642.5 c 128,-1,46
 325 626 325 626 339 603 c 128,-1,47
 353 580 353 580 359.5 553.5 c 128,-1,48
 366 527 366 527 368 502 c 0,49,50
 370 472 370 472 371 443 c 128,-1,51
 372 414 372 414 376.5 389 c 128,-1,52
 381 364 381 364 391.5 344.5 c 128,-1,53
 402 325 402 325 423 315 c 0,54,55
 432 311 432 311 444 301.5 c 128,-1,56
 456 292 456 292 456 281 c 0,57,58
 456 273 456 273 450 267.5 c 128,-1,59
 444 262 444 262 438 257 c 0,60,61
 418 242 418 242 409 227.5 c 128,-1,62
 400 213 400 213 396.5 197.5 c 128,-1,63
 393 182 393 182 393 164.5 c 128,-1,64
 393 147 393 147 392 126 c 0,65,66
 390 87 390 87 386.5 51 c 128,-1,67
 383 15 383 15 368.5 -12.5 c 128,-1,68
 354 -40 354 -40 323 -57 c 128,-1,69
 292 -74 292 -74 236 -74 c 0,0,1
189 616 m 0,70,71
 192 616 192 616 195.5 620.5 c 128,-1,72
 199 625 199 625 201.5 630.5 c 128,-1,73
 204 636 204 636 205.5 641.5 c 128,-1,74
 207 647 207 647 207 649 c 0,75,76
 207 656 207 656 200 656 c 0,77,78
 194 656 194 656 190 652 c 128,-1,79
 186 648 186 648 183.5 643 c 128,-1,80
 181 638 181 638 180 632.5 c 128,-1,81
 179 627 179 627 180 625 c 0,82,83
 183 616 183 616 189 616 c 0,70,71
EndSplineSet
EndChar

StartChar: asciitilde.guru
Encoding: 126 126 40
Width: 620
Flags: W
LayerCount: 2
Fore
SplineSet
293.5 319 m 0,0,1
 257.5 335 257.5 335 234 340.5 c 128,-1,2
 210.5 346 210.5 346 188.5 346 c 0,3,4
 160.5 346 160.5 346 129.5 329 c 128,-1,5
 98.5 312 98.5 312 74.5 287 c 1,6,-1
 74.5 365 l 1,7,8
 98.5 391 98.5 391 128.5 404.5 c 128,-1,9
 158.5 418 158.5 418 194.5 418 c 0,10,11
 223.5 418 223.5 418 252 412 c 128,-1,12
 280.5 406 280.5 406 326.5 386 c 0,13,14
 362.5 370 362.5 370 386 364.5 c 128,-1,15
 409.5 359 409.5 359 430.5 359 c 0,16,17
 459.5 359 459.5 359 490.5 376 c 128,-1,18
 521.5 393 521.5 393 545.5 418 c 1,19,-1
 545.5 341 l 1,20,21
 521.5 315 521.5 315 491.5 301 c 128,-1,22
 461.5 287 461.5 287 425.5 287 c 0,23,24
 397.5 287 397.5 287 368 293.5 c 128,-1,25
 338.5 300 338.5 300 293.5 319 c 0,0,1
EndSplineSet
EndChar

StartChar: A
Encoding: 65 65 41
Width: 620
Flags: W
LayerCount: 2
Fore
SplineSet
265.5 -8 m 0,0,1
 198.5 -8 198.5 -8 161 71 c 128,-1,2
 123.5 150 123.5 150 123.5 291 c 0,3,4
 123.5 444 123.5 444 167.5 530 c 128,-1,5
 211.5 616 211.5 616 291.5 621 c 0,6,7
 320.5 623 320.5 623 339 614.5 c 128,-1,8
 357.5 606 357.5 606 369.5 595 c 128,-1,9
 381.5 584 381.5 584 387.5 575 c 128,-1,10
 393.5 566 393.5 566 396.5 566 c 256,11,12
 399.5 566 399.5 566 400.5 575 c 128,-1,13
 401.5 584 401.5 584 405.5 595 c 128,-1,14
 409.5 606 409.5 606 418 615 c 128,-1,15
 426.5 624 426.5 624 445.5 624 c 256,16,17
 464.5 624 464.5 624 477.5 615 c 128,-1,18
 490.5 606 490.5 606 490.5 592 c 2,19,-1
 490.5 204 l 2,20,21
 490.5 163 490.5 163 493.5 126.5 c 128,-1,22
 496.5 90 496.5 90 496.5 71 c 0,23,24
 496.5 36 496.5 36 483 14 c 128,-1,25
 469.5 -8 469.5 -8 448.5 -8 c 0,26,27
 424.5 -8 424.5 -8 409.5 19 c 128,-1,28
 394.5 46 394.5 46 394.5 88 c 0,29,30
 394.5 114 394.5 114 389.5 114 c 0,31,32
 385.5 114 385.5 114 378.5 95 c 128,-1,33
 371.5 76 371.5 76 358 53 c 128,-1,34
 344.5 30 344.5 30 322.5 11 c 128,-1,35
 300.5 -8 300.5 -8 265.5 -8 c 0,0,1
419.5 557 m 0,36,37
 423.5 557 423.5 557 425 563.5 c 128,-1,38
 426.5 570 426.5 570 428.5 577 c 0,39,40
 431.5 587 431.5 587 434.5 594 c 128,-1,41
 437.5 601 437.5 601 437.5 606 c 256,42,43
 437.5 611 437.5 611 433.5 611 c 0,44,45
 428.5 611 428.5 611 420.5 601 c 128,-1,46
 412.5 591 412.5 591 412.5 575 c 0,47,48
 412.5 567 412.5 567 414.5 562 c 128,-1,49
 416.5 557 416.5 557 419.5 557 c 0,36,37
289.5 90 m 0,50,51
 303.5 90 303.5 90 319.5 117 c 128,-1,52
 335.5 144 335.5 144 349 185.5 c 128,-1,53
 362.5 227 362.5 227 371.5 275.5 c 128,-1,54
 380.5 324 380.5 324 380.5 366 c 0,55,56
 380.5 399 380.5 399 375 428.5 c 128,-1,57
 369.5 458 369.5 458 359.5 480.5 c 128,-1,58
 349.5 503 349.5 503 337 516 c 128,-1,59
 324.5 529 324.5 529 310.5 529 c 0,60,61
 294.5 529 294.5 529 279.5 511.5 c 128,-1,62
 264.5 494 264.5 494 254 463.5 c 128,-1,63
 243.5 433 243.5 433 237 392.5 c 128,-1,64
 230.5 352 230.5 352 230.5 306 c 0,65,66
 230.5 265 230.5 265 235.5 226 c 128,-1,67
 240.5 187 240.5 187 249 157 c 128,-1,68
 257.5 127 257.5 127 268 108.5 c 128,-1,69
 278.5 90 278.5 90 289.5 90 c 0,50,51
217.5 33 m 0,70,71
 221.5 33 221.5 33 224 36.5 c 128,-1,72
 226.5 40 226.5 40 225.5 43 c 256,73,74
 224.5 46 224.5 46 220 51.5 c 128,-1,75
 215.5 57 215.5 57 209.5 64.5 c 128,-1,76
 203.5 72 203.5 72 198 80.5 c 128,-1,77
 192.5 89 192.5 89 190.5 97 c 0,78,79
 189.5 101 189.5 101 188 107.5 c 128,-1,80
 186.5 114 186.5 114 184.5 120.5 c 128,-1,81
 182.5 127 182.5 127 180.5 131.5 c 128,-1,82
 178.5 136 178.5 136 175.5 136 c 0,83,84
 170.5 136 170.5 136 170.5 122.5 c 128,-1,85
 170.5 109 170.5 109 177.5 89 c 0,86,87
 185.5 69 185.5 69 197.5 51 c 128,-1,88
 209.5 33 209.5 33 217.5 33 c 0,70,71
446.5 22 m 256,89,90
 446.5 25 446.5 25 443 29 c 128,-1,91
 439.5 33 439.5 33 435 38 c 128,-1,92
 430.5 43 430.5 43 427 49.5 c 128,-1,93
 423.5 56 423.5 56 423.5 63 c 0,94,95
 423.5 66 423.5 66 422.5 69 c 0,96,97
 420.5 74 420.5 74 416.5 74 c 0,98,99
 409.5 74 409.5 74 409.5 62 c 0,100,101
 409.5 46 409.5 46 418.5 29.5 c 128,-1,102
 427.5 13 427.5 13 436.5 13 c 0,103,104
 440.5 13 440.5 13 443.5 16 c 128,-1,105
 446.5 19 446.5 19 446.5 22 c 256,89,90
242.5 17 m 256,106,107
 245.5 17 245.5 17 249 21 c 128,-1,108
 252.5 25 252.5 25 254 29.5 c 128,-1,109
 255.5 34 255.5 34 254 38 c 128,-1,110
 252.5 42 252.5 42 246.5 42 c 0,111,112
 234.5 42 234.5 42 234.5 30 c 0,113,114
 234.5 25 234.5 25 237 21 c 128,-1,115
 239.5 17 239.5 17 242.5 17 c 256,106,107
EndSplineSet

EndChar

StartChar: B
Encoding: 66 66 42
Width: 620
Flags: W
LayerCount: 2
Fore
SplineSet
375 546 m 0,0,1
 335 546 335 546 306.5 574 c 128,-1,2
 278 602 278 602 278 646 c 0,3,4
 278 670 278 670 286.5 691.5 c 128,-1,5
 295 713 295 713 310 728.5 c 128,-1,6
 325 744 325 744 346 753.5 c 128,-1,7
 367 763 367 763 392 763 c 0,8,9
 412 763 412 763 429 754.5 c 128,-1,10
 446 746 446 746 458 731 c 128,-1,11
 470 716 470 716 476.5 697 c 128,-1,12
 483 678 483 678 483 657 c 0,13,14
 483 630 483 630 474.5 609.5 c 128,-1,15
 466 589 466 589 451 575 c 128,-1,16
 436 561 436 561 416.5 553.5 c 128,-1,17
 397 546 397 546 375 546 c 0,0,1
338 719 m 0,18,19
 345 726 345 726 346.5 731 c 128,-1,20
 348 736 348 736 346 736 c 0,21,22
 338 736 338 736 329 728.5 c 128,-1,23
 320 721 320 721 312.5 710.5 c 128,-1,24
 305 700 305 700 300 688 c 128,-1,25
 295 676 295 676 295 666 c 0,26,27
 295 664 295 664 296.5 658 c 128,-1,28
 298 652 298 652 301 652 c 0,29,30
 305 652 305 652 311 674 c 0,31,32
 314 688 314 688 322 699.5 c 128,-1,33
 330 711 330 711 338 719 c 0,18,19
379 603 m 0,34,35
 391 603 391 603 407.5 617 c 128,-1,36
 424 631 424 631 424 657 c 0,37,38
 424 677 424 677 413.5 690.5 c 128,-1,39
 403 704 403 704 386 704 c 256,40,41
 369 704 369 704 355 690.5 c 128,-1,42
 341 677 341 677 341 653 c 256,43,44
 341 629 341 629 352 616 c 128,-1,45
 363 603 363 603 379 603 c 0,34,35
182 655 m 0,46,47
 162 655 162 655 145 640 c 128,-1,48
 128 625 128 625 128 586 c 2,49,-1
 128 91 l 2,50,51
 128 70 128 70 136.5 53 c 128,-1,52
 145 36 145 36 159.5 24.5 c 128,-1,53
 174 13 174 13 192.5 7 c 128,-1,54
 211 1 211 1 231 1 c 2,55,-1
 290 1 l 2,56,57
 321 1 321 1 356.5 13 c 128,-1,58
 392 25 392 25 422 51 c 128,-1,59
 452 77 452 77 472 119 c 128,-1,60
 492 161 492 161 492 220 c 256,61,62
 492 279 492 279 472.5 325.5 c 128,-1,63
 453 372 453 372 424 403.5 c 128,-1,64
 395 435 395 435 361 451.5 c 128,-1,65
 327 468 327 468 297 468 c 2,66,-1
 268 468 l 2,67,68
 259 468 259 468 250.5 472 c 128,-1,69
 242 476 242 476 242 485 c 2,70,-1
 242 590 l 2,71,72
 242 608 242 608 236.5 620 c 128,-1,73
 231 632 231 632 222 640 c 128,-1,74
 213 648 213 648 202.5 651.5 c 128,-1,75
 192 655 192 655 182 655 c 0,46,47
286 379 m 2,76,77
 303 379 303 379 319 371 c 128,-1,78
 335 363 335 363 348.5 345.5 c 128,-1,79
 362 328 362 328 370 300 c 128,-1,80
 378 272 378 272 378 232 c 0,81,82
 378 189 378 189 370 160.5 c 128,-1,83
 362 132 362 132 349 115.5 c 128,-1,84
 336 99 336 99 320 92 c 128,-1,85
 304 85 304 85 289 85 c 2,86,-1
 267 85 l 2,87,88
 242 85 242 85 242 119 c 2,89,-1
 242 356 l 2,90,91
 242 379 242 379 273 379 c 2,92,-1
 286 379 l 2,76,77
168 620 m 256,93,94
 163 615 163 615 159.5 602 c 128,-1,95
 156 589 156 589 156 550.5 c 128,-1,96
 156 512 156 512 149 512 c 0,97,98
 144 512 144 512 142.5 520.5 c 128,-1,99
 141 529 141 529 141 541 c 0,100,101
 141 603 141 603 148 619 c 128,-1,102
 155 635 155 635 165 635 c 0,103,104
 167 635 167 635 170 633 c 128,-1,105
 173 631 173 631 173 629 c 0,106,107
 173 625 173 625 168 620 c 256,93,94
EndSplineSet
EndChar

StartChar: C
Encoding: 67 67 43
Width: 620
Flags: W
LayerCount: 2
Fore
SplineSet
323 584 m 0
 283 584 283 584 254.5 612 c 0
 226 640 226 640 226 684 c 0
 226 708 226 708 234.5 729.5 c 0
 243 751 243 751 258 766.5 c 0
 273 782 273 782 294 791.5 c 0
 315 801 315 801 340 801 c 0
 360 801 360 801 377 792.5 c 0
 394 784 394 784 406 769 c 0
 418 754 418 754 424.5 735 c 0
 431 716 431 716 431 695 c 0
 431 668 431 668 422.5 647.5 c 0
 414 627 414 627 399 613 c 0
 384 599 384 599 364.5 591.5 c 0
 345 584 345 584 323 584 c 0
286 757 m 0
 293 764 293 764 294.5 769 c 0
 296 774 296 774 294 774 c 0
 286 774 286 774 277 766.5 c 0
 268 759 268 759 260.5 748.5 c 0
 253 738 253 738 248 726 c 0
 243 714 243 714 243 704 c 0
 243 702 243 702 244.5 696 c 0
 246 690 246 690 249 690 c 0
 253 690 253 690 259 712 c 0
 262 726 262 726 270 737.5 c 0
 278 749 278 749 286 757 c 0
327 641 m 0
 339 641 339 641 355.5 655 c 0
 372 669 372 669 372 695 c 0
 372 715 372 715 361.5 728.5 c 0
 351 742 351 742 334 742 c 256
 317 742 317 742 303 728.5 c 0
 289 715 289 715 289 691 c 256
 289 667 289 667 300 654 c 0
 311 641 311 641 327 641 c 0
EndSplineSet
Refer: 69 99 N 1 0 0 1 0 -15 2
EndChar

StartChar: D
Encoding: 68 68 44
Width: 620
Flags: W
LayerCount: 2
Fore
SplineSet
210.5 0 m 2,0,1
 192.5 0 192.5 0 176 4 c 128,-1,2
 159.5 8 159.5 8 147 18 c 128,-1,3
 134.5 28 134.5 28 127 45 c 128,-1,4
 119.5 62 119.5 62 119.5 88 c 2,5,-1
 119.5 516 l 2,6,7
 119.5 543 119.5 543 129 562.5 c 128,-1,8
 138.5 582 138.5 582 154 594.5 c 128,-1,9
 169.5 607 169.5 607 190.5 612.5 c 128,-1,10
 211.5 618 211.5 618 234.5 618 c 2,11,-1
 279.5 618 l 2,12,13
 322.5 618 322.5 618 362.5 598.5 c 128,-1,14
 402.5 579 402.5 579 433 541.5 c 128,-1,15
 463.5 504 463.5 504 482 449.5 c 128,-1,16
 500.5 395 500.5 395 500.5 326 c 0,17,18
 500.5 253 500.5 253 481.5 192.5 c 128,-1,19
 462.5 132 462.5 132 430.5 89.5 c 128,-1,20
 398.5 47 398.5 47 355.5 23.5 c 128,-1,21
 312.5 0 312.5 0 265.5 0 c 2,22,-1
 210.5 0 l 2,0,1
260.5 96 m 2,23,24
 286.5 96 286.5 96 309.5 112.5 c 128,-1,25
 332.5 129 332.5 129 349 159.5 c 128,-1,26
 365.5 190 365.5 190 375 233 c 128,-1,27
 384.5 276 384.5 276 384.5 329 c 0,28,29
 384.5 424 384.5 424 354.5 472 c 128,-1,30
 324.5 520 324.5 520 276.5 520 c 2,31,-1
 261.5 520 l 2,32,33
 244.5 520 244.5 520 239 512.5 c 128,-1,34
 233.5 505 233.5 505 233.5 480 c 2,35,-1
 233.5 132 l 2,36,37
 233.5 112 233.5 112 237 104 c 128,-1,38
 240.5 96 240.5 96 247.5 96 c 2,39,-1
 260.5 96 l 2,23,24
150.5 83 m 0,40,41
 154.5 83 154.5 83 156 93.5 c 128,-1,42
 157.5 104 157.5 104 157.5 117.5 c 128,-1,43
 157.5 131 157.5 131 157 143.5 c 128,-1,44
 156.5 156 156.5 156 156.5 161 c 0,45,46
 156.5 216 156.5 216 150.5 216 c 0,47,48
 147.5 216 147.5 216 144.5 203.5 c 128,-1,49
 141.5 191 141.5 191 141.5 161 c 0,50,51
 141.5 116 141.5 116 142 99.5 c 128,-1,52
 142.5 83 142.5 83 150.5 83 c 0,40,41
149.5 69 m 0,53,54
 142.5 69 142.5 69 142.5 58 c 0,55,56
 142.5 40 142.5 40 150.5 40 c 0,57,58
 153.5 40 153.5 40 155.5 46 c 128,-1,59
 157.5 52 157.5 52 157.5 58 c 0,60,61
 157.5 69 157.5 69 149.5 69 c 0,53,54
EndSplineSet

EndChar

StartChar: E
Encoding: 69 69 45
Width: 620
Flags: W
AnchorPoint: "Anchor-5" 306 0 basechar 0
AnchorPoint: "Anchor-4" 332 536 basechar 0
LayerCount: 2
Fore
SplineSet
195 333.5 m 0,0,1
 183 349.5 183 349.5 174 365 c 128,-1,2
 165 380.5 165 380.5 163 395.5 c 0,3,4
 160 409.5 160 409.5 154 408.5 c 0,5,6
 146 408.5 146 408.5 149 390.5 c 0,7,8
 150 381.5 150 381.5 154.5 368.5 c 128,-1,9
 159 355.5 159 355.5 165 344.5 c 128,-1,10
 171 333.5 171 333.5 179 326 c 128,-1,11
 187 318.5 187 318.5 196 319.5 c 0,12,13
 204 321.5 204 321.5 195 333.5 c 0,0,1
181 60 m 0,14,15
 169 76 169 76 160 91.5 c 128,-1,16
 151 107 151 107 149 122 c 0,17,18
 146 136 146 136 140 135 c 0,19,20
 132 135 132 135 135 117 c 0,21,22
 136 108 136 108 140.5 95 c 128,-1,23
 145 82 145 82 151 71 c 128,-1,24
 157 60 157 60 165 52.5 c 128,-1,25
 173 45 173 45 182 46 c 0,26,27
 190 48 190 48 181 60 c 0,14,15
419 315 m 1,28,-1
 419 243 l 1,29,-1
 346 243 l 2,30,31
 295 243 295 243 261.5 232.5 c 128,-1,32
 228 222 228 222 211.5 202 c 128,-1,33
 195 182 195 182 195 151 c 0,34,35
 195 118 195 118 214 98.5 c 128,-1,36
 233 79 233 79 265 70.5 c 128,-1,37
 297 62 297 62 337 62 c 0,38,39
 393 62 393 62 435.5 75 c 128,-1,40
 478 88 478 88 511 104 c 1,41,-1
 511 27 l 1,42,43
 480 11 480 11 437 0.5 c 128,-1,44
 394 -10 394 -10 332 -10 c 0,45,46
 217 -10 217 -10 162 34.5 c 128,-1,47
 107 79 107 79 107 146 c 0,48,49
 107 186 107 186 123.5 211.5 c 128,-1,50
 140 237 140 237 167 252.5 c 128,-1,51
 194 268 194 268 226 277 c 1,52,-1
 226 282 l 1,53,54
 181 296 181 296 153.5 325.5 c 128,-1,55
 126 355 126 355 126 404 c 0,56,57
 126 449 126 449 152.5 481 c 128,-1,58
 179 513 179 513 225.5 529.5 c 128,-1,59
 272 546 272 546 332 546 c 0,60,61
 390 546 390 546 431.5 536 c 128,-1,62
 473 526 473 526 513 508 c 1,63,-1
 480 438 l 1,64,65
 447 453 447 453 412.5 463 c 128,-1,66
 378 473 378 473 331 473 c 0,67,68
 271 473 271 473 240.5 454 c 128,-1,69
 210 435 210 435 210 397 c 0,70,71
 210 353 210 353 251.5 334 c 128,-1,72
 293 315 293 315 363 315 c 2,73,-1
 419 315 l 1,28,-1
EndSplineSet

EndChar

StartChar: F
Encoding: 70 70 46
Width: 620
Flags: W
LayerCount: 2
Fore
SplineSet
221.5 0 m 0,0,1
 194.5 0 194.5 0 177 9.5 c 128,-1,2
 159.5 19 159.5 19 159.5 49 c 2,3,-1
 159.5 543 l 2,4,5
 159.5 582 159.5 582 188 599.5 c 128,-1,6
 216.5 617 216.5 617 261.5 617 c 2,7,-1
 431.5 616 l 2,8,9
 442.5 616 442.5 616 451.5 604.5 c 128,-1,10
 460.5 593 460.5 593 460.5 579 c 0,11,12
 460.5 572 460.5 572 459 561.5 c 128,-1,13
 457.5 551 457.5 551 454.5 541.5 c 128,-1,14
 451.5 532 451.5 532 447 525.5 c 128,-1,15
 442.5 519 442.5 519 436.5 519 c 2,16,-1
 299.5 520 l 2,17,18
 273.5 520 273.5 520 273.5 494 c 2,19,-1
 273.5 345 l 2,20,21
 273.5 335 273.5 335 280 330.5 c 128,-1,22
 286.5 326 286.5 326 296.5 326 c 2,23,-1
 402.5 329 l 2,24,25
 410.5 329 410.5 329 416.5 324 c 128,-1,26
 422.5 319 422.5 319 427.5 310.5 c 128,-1,27
 432.5 302 432.5 302 435 293 c 128,-1,28
 437.5 284 437.5 284 437.5 276 c 0,29,30
 437.5 237 437.5 237 399.5 236 c 2,31,-1
 293.5 233 l 2,32,33
 285.5 233 285.5 233 279.5 227 c 128,-1,34
 273.5 221 273.5 221 273.5 213 c 2,35,-1
 273.5 48 l 2,36,37
 273.5 32 273.5 32 269 22.5 c 128,-1,38
 264.5 13 264.5 13 257 8 c 128,-1,39
 249.5 3 249.5 3 240 1.5 c 128,-1,40
 230.5 0 230.5 0 221.5 0 c 0,0,1
209.5 26 m 0,41,42
 208.5 31 208.5 31 200 42 c 128,-1,43
 191.5 53 191.5 53 189.5 78 c 0,44,45
 187.5 91 187.5 91 184 94 c 128,-1,46
 180.5 97 180.5 97 178.5 97 c 256,47,48
 176.5 97 176.5 97 175 91 c 128,-1,49
 173.5 85 173.5 85 175.5 75 c 0,50,51
 175.5 70 175.5 70 177.5 60.5 c 128,-1,52
 179.5 51 179.5 51 183 41.5 c 128,-1,53
 186.5 32 186.5 32 191.5 25 c 128,-1,54
 196.5 18 196.5 18 203.5 19 c 0,55,56
 209.5 19 209.5 19 209.5 26 c 0,41,42
EndSplineSet

EndChar

StartChar: G
Encoding: 71 71 47
Width: 620
Flags: W
LayerCount: 2
Fore
SplineSet
340 621 m 0,0,1
 300 621 300 621 271.5 649 c 128,-1,2
 243 677 243 677 243 721 c 0,3,4
 243 745 243 745 251.5 766.5 c 128,-1,5
 260 788 260 788 275 803.5 c 128,-1,6
 290 819 290 819 311 828.5 c 128,-1,7
 332 838 332 838 357 838 c 0,8,9
 377 838 377 838 394 829.5 c 128,-1,10
 411 821 411 821 423 806 c 128,-1,11
 435 791 435 791 441.5 772 c 128,-1,12
 448 753 448 753 448 732 c 0,13,14
 448 705 448 705 439.5 684.5 c 128,-1,15
 431 664 431 664 416 650 c 128,-1,16
 401 636 401 636 381.5 628.5 c 128,-1,17
 362 621 362 621 340 621 c 0,0,1
303 794 m 0,18,19
 310 801 310 801 311.5 806 c 128,-1,20
 313 811 313 811 311 811 c 0,21,22
 303 811 303 811 294 803.5 c 128,-1,23
 285 796 285 796 277.5 785.5 c 128,-1,24
 270 775 270 775 265 763 c 128,-1,25
 260 751 260 751 260 741 c 0,26,27
 260 739 260 739 261.5 733 c 128,-1,28
 263 727 263 727 266 727 c 0,29,30
 270 727 270 727 276 749 c 0,31,32
 279 763 279 763 287 774.5 c 128,-1,33
 295 786 295 786 303 794 c 0,18,19
344 678 m 0,34,35
 356 678 356 678 372.5 692 c 128,-1,36
 389 706 389 706 389 732 c 0,37,38
 389 752 389 752 378.5 765.5 c 128,-1,39
 368 779 368 779 351 779 c 256,40,41
 334 779 334 779 320 765.5 c 128,-1,42
 306 752 306 752 306 728 c 256,43,44
 306 704 306 704 317 691 c 128,-1,45
 328 678 328 678 344 678 c 0,34,35
309 -37 m 0,46,47
 246 -37 246 -37 205.5 -4 c 128,-1,48
 165 29 165 29 142 79 c 128,-1,49
 119 129 119 129 110.5 187 c 128,-1,50
 102 245 102 245 102 296 c 0,51,52
 102 352 102 352 115.5 405.5 c 128,-1,53
 129 459 129 459 157.5 500.5 c 128,-1,54
 186 542 186 542 231.5 567.5 c 128,-1,55
 277 593 277 593 341 593 c 0,56,57
 368 593 368 593 397.5 587 c 128,-1,58
 427 581 427 581 451.5 564.5 c 128,-1,59
 476 548 476 548 492.5 520 c 128,-1,60
 509 492 509 492 509 448 c 0,61,62
 509 432 509 432 502.5 422.5 c 128,-1,63
 496 413 496 413 486.5 407.5 c 128,-1,64
 477 402 477 402 467 400.5 c 128,-1,65
 457 399 457 399 451 399 c 0,66,67
 437 399 437 399 424.5 409 c 128,-1,68
 412 419 412 419 412 448 c 0,69,70
 412 471 412 471 404 483 c 128,-1,71
 396 495 396 495 385 500.5 c 128,-1,72
 374 506 374 506 363.5 507 c 128,-1,73
 353 508 353 508 347 508 c 0,74,75
 321 508 321 508 298 492.5 c 128,-1,76
 275 477 275 477 257.5 448 c 128,-1,77
 240 419 240 419 230 377 c 128,-1,78
 220 335 220 335 220 282 c 0,79,80
 220 253 220 253 223.5 213 c 128,-1,81
 227 173 227 173 239 137 c 128,-1,82
 251 101 251 101 273 75.5 c 128,-1,83
 295 50 295 50 331 50 c 0,84,85
 354 50 354 50 371 65 c 128,-1,86
 388 80 388 80 399.5 102 c 128,-1,87
 411 124 411 124 417 148.5 c 128,-1,88
 423 173 423 173 422 192 c 0,89,90
 421 208 421 208 402.5 209.5 c 128,-1,91
 384 211 384 211 361 211 c 2,92,-1
 299 211 l 2,93,94
 293 211 293 211 288 217 c 128,-1,95
 283 223 283 223 280 231.5 c 128,-1,96
 277 240 277 240 275 249 c 128,-1,97
 273 258 273 258 273 264 c 0,98,99
 273 280 273 280 283.5 292.5 c 128,-1,100
 294 305 294 305 317 305 c 2,101,-1
 442 304 l 2,102,103
 455 304 455 304 468.5 298.5 c 128,-1,104
 482 293 482 293 492.5 282.5 c 128,-1,105
 503 272 503 272 510 255.5 c 128,-1,106
 517 239 517 239 517 216 c 0,107,108
 517 181 517 181 517.5 151 c 128,-1,109
 518 121 518 121 518 77 c 0,110,111
 518 43 518 43 515.5 22 c 128,-1,112
 513 1 513 1 507 -11 c 128,-1,113
 501 -23 501 -23 492.5 -27.5 c 128,-1,114
 484 -32 484 -32 472 -32 c 0,115,116
 455 -32 455 -32 447 -19.5 c 128,-1,117
 439 -7 439 -7 435.5 8 c 128,-1,118
 432 23 432 23 431 35.5 c 128,-1,119
 430 48 430 48 427 48 c 256,120,121
 424 48 424 48 418 34.5 c 128,-1,122
 412 21 412 21 399 5.5 c 128,-1,123
 386 -10 386 -10 365 -23.5 c 128,-1,124
 344 -37 344 -37 309 -37 c 0,46,47
214 44 m 0,125,126
 214 49 214 49 198 72 c 0,127,128
 191 83 191 83 184 97.5 c 128,-1,129
 177 112 177 112 172 126 c 128,-1,130
 167 140 167 140 164 152 c 128,-1,131
 161 164 161 164 162 168 c 0,132,133
 163 173 163 173 160 175.5 c 128,-1,134
 157 178 157 178 156 178 c 0,135,136
 148 178 148 178 146 167 c 256,137,138
 144 156 144 156 149.5 135 c 128,-1,139
 155 114 155 114 164.5 93 c 128,-1,140
 174 72 174 72 185.5 56 c 128,-1,141
 197 40 197 40 206 39 c 0,142,143
 213 37 213 37 214 44 c 0,125,126
477 -7 m 0,144,145
 477 1 477 1 469 6.5 c 128,-1,146
 461 12 461 12 460 24 c 0,147,148
 460 27 460 27 459.5 35 c 128,-1,149
 459 43 459 43 454 43 c 256,150,151
 449 43 449 43 448 36.5 c 128,-1,152
 447 30 447 30 447 25 c 256,153,154
 447 20 447 20 448.5 12.5 c 128,-1,155
 450 5 450 5 453 -1.5 c 128,-1,156
 456 -8 456 -8 460 -13 c 128,-1,157
 464 -18 464 -18 469 -18 c 256,158,159
 474 -18 474 -18 475.5 -14 c 128,-1,160
 477 -10 477 -10 477 -7 c 0,144,145
234 27 m 0,161,162
 235 30 235 30 232.5 32.5 c 128,-1,163
 230 35 230 35 228 35 c 0,164,165
 224 36 224 36 222.5 33 c 128,-1,166
 221 30 221 30 220 28 c 0,167,168
 219 23 219 23 221.5 21.5 c 128,-1,169
 224 20 224 20 226 20 c 0,170,171
 232 20 232 20 234 27 c 0,161,162
EndSplineSet
EndChar

StartChar: H
Encoding: 72 72 48
Width: 620
Flags: W
LayerCount: 2
Fore
SplineSet
429 0 m 256,0,1
 412 0 412 0 402 9.5 c 128,-1,2
 392 19 392 19 387 33 c 128,-1,3
 382 47 382 47 380.5 63 c 128,-1,4
 379 79 379 79 379 92 c 2,5,-1
 379 238 l 2,6,7
 379 242 379 242 379 247 c 128,-1,8
 379 252 379 252 378 256.5 c 128,-1,9
 377 261 377 261 374 263.5 c 128,-1,10
 371 266 371 266 366 264 c 2,11,-1
 259 233 l 2,12,13
 250 231 250 231 245.5 229 c 128,-1,14
 241 227 241 227 241 217 c 2,15,-1
 241 105 l 2,16,17
 241 93 241 93 239 75 c 128,-1,18
 237 57 237 57 231.5 40.5 c 128,-1,19
 226 24 226 24 216 12 c 128,-1,20
 206 0 206 0 189 0 c 0,21,22
 168 0 168 0 156 10.5 c 128,-1,23
 144 21 144 21 138 37 c 128,-1,24
 132 53 132 53 130.5 71 c 128,-1,25
 129 89 129 89 129 105 c 2,26,-1
 129 542 l 2,27,28
 129 567 129 567 143.5 589.5 c 128,-1,29
 158 612 158 612 186 612 c 0,30,31
 200 612 200 612 210.5 605.5 c 128,-1,32
 221 599 221 599 228 588.5 c 128,-1,33
 235 578 235 578 238 565 c 128,-1,34
 241 552 241 552 241 540 c 2,35,-1
 241 339 l 2,36,37
 241 332 241 332 243 324.5 c 128,-1,38
 245 317 245 317 254 319 c 2,39,-1
 368 349 l 2,40,41
 377 351 377 351 378 356 c 128,-1,42
 379 361 379 361 379 368 c 2,43,-1
 379 540 l 2,44,45
 379 551 379 551 380.5 564 c 128,-1,46
 382 577 382 577 387 588.5 c 128,-1,47
 392 600 392 600 401 608 c 128,-1,48
 410 616 410 616 424 616 c 0,49,50
 457 616 457 616 474 591.5 c 128,-1,51
 491 567 491 567 491 537 c 2,52,-1
 491 91 l 2,53,54
 491 78 491 78 487.5 62 c 128,-1,55
 484 46 484 46 476.5 32 c 128,-1,56
 469 18 469 18 457.5 9 c 128,-1,57
 446 0 446 0 429 0 c 256,0,1
400 552 m 256,58,59
 403 552 403 552 407.5 558 c 128,-1,60
 412 564 412 564 416 571.5 c 128,-1,61
 420 579 420 579 422.5 586.5 c 128,-1,62
 425 594 425 594 425 597 c 256,63,64
 425 600 425 600 421 600 c 0,65,66
 409 600 409 600 402 586 c 128,-1,67
 395 572 395 572 395 562 c 0,68,69
 395 560 395 560 396 556 c 128,-1,70
 397 552 397 552 400 552 c 256,58,59
171 30 m 1,71,72
 170 36 170 36 168 40.5 c 128,-1,73
 166 45 166 45 163.5 50.5 c 128,-1,74
 161 56 161 56 159.5 64.5 c 128,-1,75
 158 73 158 73 158 86 c 0,76,77
 158 90 158 90 157 96.5 c 128,-1,78
 156 103 156 103 151 103 c 0,79,80
 147 103 147 103 146 96 c 128,-1,81
 145 89 145 89 145 86 c 0,82,83
 145 82 145 82 146 72 c 128,-1,84
 147 62 147 62 149 52 c 128,-1,85
 151 42 151 42 155 34.5 c 128,-1,86
 159 27 159 27 165 27 c 2,87,-1
 171 30 l 1,71,72
420 20 m 0,88,89
 420 22 420 22 419 23 c 128,-1,90
 418 24 418 24 417 26 c 0,91,92
 410 35 410 35 406 50.5 c 128,-1,93
 402 66 402 66 402 77 c 1,94,-1
 400 81 l 1,95,96
 395 81 395 81 394 71 c 128,-1,97
 393 61 393 61 393 58 c 0,98,99
 393 47 393 47 397.5 32 c 128,-1,100
 402 17 402 17 417 17 c 0,101,102
 420 17 420 17 420 20 c 0,88,89
EndSplineSet
EndChar

StartChar: I
Encoding: 73 73 49
Width: 620
Flags: W
LayerCount: 2
Fore
SplineSet
177 484 m 1,0,-1
 287 792 l 1,1,-1
 337 792 l 1,2,-1
 443 484 l 1,3,-1
 365 484 l 1,4,-1
 313 699 l 1,5,-1
 255 484 l 1,6,-1
 177 484 l 1,0,-1
305 -4 m 256,7,8
 281 -4 281 -4 268 6.5 c 128,-1,9
 255 17 255 17 255 32 c 2,10,-1
 255 387 l 2,11,12
 255 396 255 396 257.5 408 c 128,-1,13
 260 420 260 420 265.5 430 c 128,-1,14
 271 440 271 440 280.5 447 c 128,-1,15
 290 454 290 454 305 454 c 256,16,17
 320 454 320 454 330.5 448 c 128,-1,18
 341 442 341 442 347.5 433 c 128,-1,19
 354 424 354 424 357.5 413 c 128,-1,20
 361 402 361 402 361 392 c 2,21,-1
 361 32 l 2,22,23
 361 16 361 16 345 6 c 128,-1,24
 329 -4 329 -4 305 -4 c 256,7,8
273 359 m 0,25,26
 276 359 276 359 277 365 c 128,-1,27
 278 371 278 371 278 379.5 c 128,-1,28
 278 388 278 388 278.5 397.5 c 128,-1,29
 279 407 279 407 281 413 c 0,30,31
 282 417 282 417 284 424 c 128,-1,32
 286 431 286 431 283 431 c 0,33,34
 278 431 278 431 274.5 425.5 c 128,-1,35
 271 420 271 420 268.5 412.5 c 128,-1,36
 266 405 266 405 265 396.5 c 128,-1,37
 264 388 264 388 264 383 c 0,38,39
 264 376 264 376 266 367.5 c 128,-1,40
 268 359 268 359 273 359 c 0,25,26
EndSplineSet
EndChar

StartChar: J
Encoding: 74 74 50
Width: 620
Flags: W
LayerCount: 2
Fore
SplineSet
313 -8 m 0,0,1
 268 -8 268 -8 236 4.5 c 128,-1,2
 204 17 204 17 184 38.5 c 128,-1,3
 164 60 164 60 155 88.5 c 128,-1,4
 146 117 146 117 146 149 c 0,5,6
 146 203 146 203 159 221.5 c 128,-1,7
 172 240 172 240 188 240 c 0,8,9
 196 240 196 240 205 238 c 128,-1,10
 214 236 214 236 222 230.5 c 128,-1,11
 230 225 230 225 235 215 c 128,-1,12
 240 205 240 205 240 188 c 0,13,14
 240 172 240 172 241.5 153 c 128,-1,15
 243 134 243 134 248.5 118 c 128,-1,16
 254 102 254 102 265 91.5 c 128,-1,17
 276 81 276 81 296 81 c 0,18,19
 314 81 314 81 326 86 c 128,-1,20
 338 91 338 91 345.5 104.5 c 128,-1,21
 353 118 353 118 356 141 c 128,-1,22
 359 164 359 164 359 199 c 0,23,24
 359 237 359 237 359.5 290 c 128,-1,25
 360 343 360 343 360 412 c 2,26,-1
 360 517 l 2,27,28
 360 525 360 525 352.5 530.5 c 128,-1,29
 345 536 345 536 337 536 c 2,30,-1
 296 536 l 2,31,32
 242 536 242 536 219.5 546 c 128,-1,33
 197 556 197 556 197 579 c 0,34,35
 197 594 197 594 205 601.5 c 128,-1,36
 213 609 213 609 231 612 c 128,-1,37
 249 615 249 615 278 615.5 c 128,-1,38
 307 616 307 616 349 616 c 0,39,40
 409 616 409 616 438.5 609 c 128,-1,41
 468 602 468 602 473 584 c 0,42,43
 474 581 474 581 474 558.5 c 128,-1,44
 474 536 474 536 474 502.5 c 128,-1,45
 474 469 474 469 473.5 429.5 c 128,-1,46
 473 390 473 390 473 353 c 0,47,48
 472 289 472 289 472 247 c 128,-1,49
 472 205 472 205 471.5 177 c 128,-1,50
 471 149 471 149 468.5 129.5 c 128,-1,51
 466 110 466 110 461 90 c 0,52,53
 454 65 454 65 438 46.5 c 128,-1,54
 422 28 422 28 401 16 c 128,-1,55
 380 4 380 4 357 -2 c 128,-1,56
 334 -8 334 -8 313 -8 c 0,0,1
253 594 m 0,57,58
 255 599 255 599 251 600 c 0,59,60
 244 602 244 602 230.5 598 c 128,-1,61
 217 594 217 594 215 587 c 0,62,63
 214 584 214 584 215 580.5 c 128,-1,64
 216 577 216 577 218 576 c 0,65,66
 226 574 226 574 238.5 581 c 128,-1,67
 251 588 251 588 253 594 c 0,57,58
167 144 m 0,68,69
 172 145 172 145 173.5 157 c 128,-1,70
 175 169 175 169 176 173 c 0,71,72
 178 183 178 183 180.5 194 c 128,-1,73
 183 205 183 205 190 214 c 0,74,75
 195 219 195 219 194 223 c 0,76,77
 194 225 194 225 192 226.5 c 128,-1,78
 190 228 190 228 188 227 c 0,79,80
 179 226 179 226 173 217 c 128,-1,81
 167 208 167 208 164 197 c 128,-1,82
 161 186 161 186 160 176 c 128,-1,83
 159 166 159 166 159 163 c 0,84,85
 160 155 160 155 162 149 c 128,-1,86
 164 143 164 143 167 144 c 0,68,69
EndSplineSet
EndChar

StartChar: K
Encoding: 75 75 51
Width: 620
Flags: W
LayerCount: 2
Fore
SplineSet
261.5 575 m 0,0,1
 221.5 575 221.5 575 193 603 c 128,-1,2
 164.5 631 164.5 631 164.5 675 c 0,3,4
 164.5 699 164.5 699 173 720.5 c 128,-1,5
 181.5 742 181.5 742 196.5 757.5 c 128,-1,6
 211.5 773 211.5 773 232.5 782.5 c 128,-1,7
 253.5 792 253.5 792 278.5 792 c 0,8,9
 298.5 792 298.5 792 315.5 783.5 c 128,-1,10
 332.5 775 332.5 775 344.5 760 c 128,-1,11
 356.5 745 356.5 745 363 726 c 128,-1,12
 369.5 707 369.5 707 369.5 686 c 0,13,14
 369.5 659 369.5 659 361 638.5 c 128,-1,15
 352.5 618 352.5 618 337.5 604 c 128,-1,16
 322.5 590 322.5 590 303 582.5 c 128,-1,17
 283.5 575 283.5 575 261.5 575 c 0,0,1
224.5 748 m 0,18,19
 231.5 755 231.5 755 233 760 c 128,-1,20
 234.5 765 234.5 765 232.5 765 c 0,21,22
 224.5 765 224.5 765 215.5 757.5 c 128,-1,23
 206.5 750 206.5 750 199 739.5 c 128,-1,24
 191.5 729 191.5 729 186.5 717 c 128,-1,25
 181.5 705 181.5 705 181.5 695 c 0,26,27
 181.5 693 181.5 693 183 687 c 128,-1,28
 184.5 681 184.5 681 187.5 681 c 0,29,30
 191.5 681 191.5 681 197.5 703 c 0,31,32
 200.5 717 200.5 717 208.5 728.5 c 128,-1,33
 216.5 740 216.5 740 224.5 748 c 0,18,19
265.5 632 m 0,34,35
 277.5 632 277.5 632 294 646 c 128,-1,36
 310.5 660 310.5 660 310.5 686 c 0,37,38
 310.5 706 310.5 706 300 719.5 c 128,-1,39
 289.5 733 289.5 733 272.5 733 c 256,40,41
 255.5 733 255.5 733 241.5 719.5 c 128,-1,42
 227.5 706 227.5 706 227.5 682 c 256,43,44
 227.5 658 227.5 658 238.5 645 c 128,-1,45
 249.5 632 249.5 632 265.5 632 c 0,34,35
176.5 0 m 0,46,47
 155.5 0 155.5 0 145.5 11 c 128,-1,48
 135.5 22 135.5 22 132 38.5 c 128,-1,49
 128.5 55 128.5 55 128.5 73 c 128,-1,50
 128.5 91 128.5 91 128.5 105 c 2,51,-1
 128.5 204 l 1,52,-1
 127.5 402 l 1,53,-1
 127.5 428 l 2,54,55
 127.5 455 127.5 455 129.5 476 c 128,-1,56
 131.5 497 131.5 497 137.5 512 c 128,-1,57
 143.5 527 143.5 527 155 535 c 128,-1,58
 166.5 543 166.5 543 186.5 543 c 0,59,60
 209.5 543 209.5 543 227 524.5 c 128,-1,61
 244.5 506 244.5 506 244.5 476 c 0,62,63
 244.5 471 244.5 471 244 456 c 128,-1,64
 243.5 441 243.5 441 243.5 421 c 2,65,-1
 243.5 429 l 1,66,-1
 243.5 410 l 2,67,68
 243.5 391 243.5 391 245 379 c 128,-1,69
 246.5 367 246.5 367 248.5 367 c 0,70,71
 252.5 367 252.5 367 264 385.5 c 128,-1,72
 275.5 404 275.5 404 291 431.5 c 128,-1,73
 306.5 459 306.5 459 324.5 491.5 c 128,-1,74
 342.5 524 342.5 524 360.5 551.5 c 128,-1,75
 378.5 579 378.5 579 395 597.5 c 128,-1,76
 411.5 616 411.5 616 422.5 616 c 0,77,78
 431.5 616 431.5 616 442.5 613 c 128,-1,79
 453.5 610 453.5 610 462.5 604 c 128,-1,80
 471.5 598 471.5 598 477.5 589 c 128,-1,81
 483.5 580 483.5 580 483.5 567 c 0,82,83
 483.5 559 483.5 559 472.5 537.5 c 128,-1,84
 461.5 516 461.5 516 445.5 489 c 128,-1,85
 429.5 462 429.5 462 410.5 432 c 128,-1,86
 391.5 402 391.5 402 375.5 376.5 c 128,-1,87
 359.5 351 359.5 351 348.5 333.5 c 128,-1,88
 337.5 316 337.5 316 337.5 313 c 0,89,90
 337.5 309 337.5 309 349 290 c 128,-1,91
 360.5 271 360.5 271 377.5 245 c 128,-1,92
 394.5 219 394.5 219 415 188.5 c 128,-1,93
 435.5 158 435.5 158 452.5 130 c 128,-1,94
 469.5 102 469.5 102 481 80 c 128,-1,95
 492.5 58 492.5 58 492.5 48 c 0,96,97
 492.5 35 492.5 35 484 26 c 128,-1,98
 475.5 17 475.5 17 463.5 11 c 128,-1,99
 451.5 5 451.5 5 439.5 2 c 128,-1,100
 427.5 -1 427.5 -1 419.5 -1 c 0,101,102
 405.5 -1 405.5 -1 390.5 17.5 c 128,-1,103
 375.5 36 375.5 36 363.5 57 c 0,104,105
 359.5 64 359.5 64 351 80.5 c 128,-1,106
 342.5 97 342.5 97 331 118 c 128,-1,107
 319.5 139 319.5 139 307 161.5 c 128,-1,108
 294.5 184 294.5 184 283 203 c 128,-1,109
 271.5 222 271.5 222 263 234 c 128,-1,110
 254.5 246 254.5 246 250.5 246 c 0,111,112
 242.5 246 242.5 246 242.5 234.5 c 128,-1,113
 242.5 223 242.5 223 242.5 215 c 2,114,-1
 242.5 164 l 1,115,-1
 243.5 125 l 1,116,-1
 243.5 102 l 2,117,118
 243.5 51 243.5 51 227.5 25.5 c 128,-1,119
 211.5 0 211.5 0 176.5 0 c 0,46,47
146.5 488 m 0,120,121
 151.5 487 151.5 487 156 491 c 128,-1,122
 160.5 495 160.5 495 164 500.5 c 128,-1,123
 167.5 506 167.5 506 170.5 512.5 c 128,-1,124
 173.5 519 173.5 519 174.5 523 c 0,125,126
 175.5 526 175.5 526 172.5 528.5 c 128,-1,127
 169.5 531 169.5 531 166.5 531 c 0,128,129
 162.5 531 162.5 531 158.5 526 c 128,-1,130
 154.5 521 154.5 521 151 514.5 c 128,-1,131
 147.5 508 147.5 508 145.5 501.5 c 128,-1,132
 143.5 495 143.5 495 143.5 492 c 0,133,134
 143.5 488 143.5 488 146.5 488 c 0,120,121
396.5 558 m 0,135,136
 399.5 558 399.5 558 405.5 562.5 c 128,-1,137
 411.5 567 411.5 567 417.5 573 c 128,-1,138
 423.5 579 423.5 579 427.5 585.5 c 128,-1,139
 431.5 592 431.5 592 430.5 596 c 0,140,141
 430.5 600 430.5 600 426.5 600 c 0,142,143
 423.5 601 423.5 601 417 596.5 c 128,-1,144
 410.5 592 410.5 592 404 585.5 c 128,-1,145
 397.5 579 397.5 579 393 573 c 128,-1,146
 388.5 567 388.5 567 389.5 564 c 0,147,148
 391.5 559 391.5 559 396.5 558 c 0,135,136
161.5 70 m 0,149,150
 161.5 74 161.5 74 161.5 84.5 c 128,-1,151
 161.5 95 161.5 95 160.5 106 c 128,-1,152
 159.5 117 159.5 117 157.5 125.5 c 128,-1,153
 155.5 134 155.5 134 151.5 134 c 0,154,155
 148.5 134 148.5 134 146 129 c 128,-1,156
 143.5 124 143.5 124 142.5 117 c 128,-1,157
 141.5 110 141.5 110 141 103.5 c 128,-1,158
 140.5 97 140.5 97 140.5 95 c 0,159,160
 140.5 91 140.5 91 140.5 82.5 c 128,-1,161
 140.5 74 140.5 74 142 65 c 128,-1,162
 143.5 56 143.5 56 146.5 49.5 c 128,-1,163
 149.5 43 149.5 43 155.5 43 c 0,164,165
 157.5 43 157.5 43 159 47 c 128,-1,166
 160.5 51 160.5 51 161 55.5 c 128,-1,167
 161.5 60 161.5 60 161.5 64.5 c 128,-1,168
 161.5 69 161.5 69 161.5 70 c 0,149,150
422.5 21 m 0,169,170
 422.5 24 422.5 24 419.5 30.5 c 128,-1,171
 416.5 37 416.5 37 412 43 c 128,-1,172
 407.5 49 407.5 49 402.5 54 c 128,-1,173
 397.5 59 397.5 59 394.5 59 c 0,174,175
 392.5 59 392.5 59 391.5 55.5 c 128,-1,176
 390.5 52 390.5 52 390.5 50 c 0,177,178
 390.5 47 390.5 47 393 41 c 128,-1,179
 395.5 35 395.5 35 399 29 c 128,-1,180
 402.5 23 402.5 23 407.5 19 c 128,-1,181
 412.5 15 412.5 15 416.5 15 c 0,182,183
 422.5 15 422.5 15 422.5 21 c 0,169,170
171.5 25 m 0,184,185
 173.5 29 173.5 29 170.5 32.5 c 128,-1,186
 167.5 36 167.5 36 163.5 36 c 0,187,188
 158.5 36 158.5 36 156 32.5 c 128,-1,189
 153.5 29 153.5 29 155.5 25 c 0,190,191
 157.5 17 157.5 17 163.5 17 c 256,192,193
 169.5 17 169.5 17 171.5 25 c 0,184,185
EndSplineSet
EndChar

StartChar: L
Encoding: 76 76 52
Width: 620
Flags: W
LayerCount: 2
Fore
SplineSet
328 569 m 0,0,1
 288 569 288 569 259.5 597 c 128,-1,2
 231 625 231 625 231 669 c 0,3,4
 231 693 231 693 239.5 714.5 c 128,-1,5
 248 736 248 736 263 751.5 c 128,-1,6
 278 767 278 767 299 776.5 c 128,-1,7
 320 786 320 786 345 786 c 0,8,9
 365 786 365 786 382 777.5 c 128,-1,10
 399 769 399 769 411 754 c 128,-1,11
 423 739 423 739 429.5 720 c 128,-1,12
 436 701 436 701 436 680 c 0,13,14
 436 653 436 653 427.5 632.5 c 128,-1,15
 419 612 419 612 404 598 c 128,-1,16
 389 584 389 584 369.5 576.5 c 128,-1,17
 350 569 350 569 328 569 c 0,0,1
291 742 m 0,18,19
 298 749 298 749 299.5 754 c 128,-1,20
 301 759 301 759 299 759 c 0,21,22
 291 759 291 759 282 751.5 c 128,-1,23
 273 744 273 744 265.5 733.5 c 128,-1,24
 258 723 258 723 253 711 c 128,-1,25
 248 699 248 699 248 689 c 0,26,27
 248 687 248 687 249.5 681 c 128,-1,28
 251 675 251 675 254 675 c 0,29,30
 258 675 258 675 264 697 c 0,31,32
 267 711 267 711 275 722.5 c 128,-1,33
 283 734 283 734 291 742 c 0,18,19
332 626 m 0,34,35
 344 626 344 626 360.5 640 c 128,-1,36
 377 654 377 654 377 680 c 0,37,38
 377 700 377 700 366.5 713.5 c 128,-1,39
 356 727 356 727 339 727 c 256,40,41
 322 727 322 727 308 713.5 c 128,-1,42
 294 700 294 700 294 676 c 256,43,44
 294 652 294 652 305 639 c 128,-1,45
 316 626 316 626 332 626 c 0,34,35
201 0 m 2,46,47
 190 0 190 0 181.5 8 c 128,-1,48
 173 16 173 16 173 27 c 2,49,-1
 173 492 l 2,50,51
 173 503 173 503 174.5 514 c 128,-1,52
 176 525 176 525 182 534 c 128,-1,53
 188 543 188 543 199.5 549 c 128,-1,54
 211 555 211 555 231 555 c 0,55,56
 254 555 254 555 270.5 537 c 128,-1,57
 287 519 287 519 287 499 c 2,58,-1
 287 121 l 2,59,60
 287 103 287 103 294 98.5 c 128,-1,61
 301 94 301 94 310 94 c 0,62,63
 327 94 327 94 340.5 94.5 c 128,-1,64
 354 95 354 95 366.5 95.5 c 128,-1,65
 379 96 379 96 392.5 96.5 c 128,-1,66
 406 97 406 97 423 97 c 0,67,68
 437 97 437 97 442 82.5 c 128,-1,69
 447 68 447 68 447 54 c 0,70,71
 447 34 447 34 434.5 16.5 c 128,-1,72
 422 -1 422 -1 408 -1 c 2,73,-1
 361 -1 l 1,74,-1
 278 0 l 1,75,-1
 201 0 l 2,46,47
191 488 m 0,76,77
 194 488 194 488 198.5 494.5 c 128,-1,78
 203 501 203 501 207.5 510 c 128,-1,79
 212 519 212 519 215.5 527 c 128,-1,80
 219 535 219 535 219 538 c 0,81,82
 219 543 219 543 211 543 c 0,83,84
 206 543 206 543 201 536.5 c 128,-1,85
 196 530 196 530 192.5 522 c 128,-1,86
 189 514 189 514 187 506 c 128,-1,87
 185 498 185 498 186 494 c 0,88,89
 186 488 186 488 191 488 c 0,76,77
202 59 m 0,90,91
 207 59 207 59 209 70 c 128,-1,92
 211 81 211 81 212 96.5 c 128,-1,93
 213 112 213 112 212.5 128.5 c 128,-1,94
 212 145 212 145 212 155 c 0,95,96
 212 159 212 159 211.5 165 c 128,-1,97
 211 171 211 171 209.5 177 c 128,-1,98
 208 183 208 183 205.5 187 c 128,-1,99
 203 191 203 191 198 191 c 0,100,101
 195 191 195 191 193.5 182.5 c 128,-1,102
 192 174 192 174 191 163 c 128,-1,103
 190 152 190 152 190 142.5 c 128,-1,104
 190 133 190 133 190 130 c 256,105,106
 190 127 190 127 190.5 115.5 c 128,-1,107
 191 104 191 104 192.5 91.5 c 128,-1,108
 194 79 194 79 196 69 c 128,-1,109
 198 59 198 59 202 59 c 0,90,91
219 30 m 0,110,111
 219 41 219 41 212 41 c 0,112,113
 202 41 202 41 202 30 c 0,114,115
 202 22 202 22 210 22 c 0,116,117
 213 22 213 22 216 24 c 128,-1,118
 219 26 219 26 219 30 c 0,110,111
EndSplineSet
EndChar

StartChar: M
Encoding: 77 77 53
Width: 620
Flags: W
LayerCount: 2
Fore
SplineSet
333.5 599 m 0,0,1
 293.5 599 293.5 599 265 627 c 128,-1,2
 236.5 655 236.5 655 236.5 699 c 0,3,4
 236.5 723 236.5 723 245 744.5 c 128,-1,5
 253.5 766 253.5 766 268.5 781.5 c 128,-1,6
 283.5 797 283.5 797 304.5 806.5 c 128,-1,7
 325.5 816 325.5 816 350.5 816 c 0,8,9
 370.5 816 370.5 816 387.5 807.5 c 128,-1,10
 404.5 799 404.5 799 416.5 784 c 128,-1,11
 428.5 769 428.5 769 435 750 c 128,-1,12
 441.5 731 441.5 731 441.5 710 c 0,13,14
 441.5 683 441.5 683 433 662.5 c 128,-1,15
 424.5 642 424.5 642 409.5 628 c 128,-1,16
 394.5 614 394.5 614 375 606.5 c 128,-1,17
 355.5 599 355.5 599 333.5 599 c 0,0,1
296.5 772 m 0,18,19
 303.5 779 303.5 779 305 784 c 128,-1,20
 306.5 789 306.5 789 304.5 789 c 0,21,22
 296.5 789 296.5 789 287.5 781.5 c 128,-1,23
 278.5 774 278.5 774 271 763.5 c 128,-1,24
 263.5 753 263.5 753 258.5 741 c 128,-1,25
 253.5 729 253.5 729 253.5 719 c 0,26,27
 253.5 717 253.5 717 255 711 c 128,-1,28
 256.5 705 256.5 705 259.5 705 c 0,29,30
 263.5 705 263.5 705 269.5 727 c 0,31,32
 272.5 741 272.5 741 280.5 752.5 c 128,-1,33
 288.5 764 288.5 764 296.5 772 c 0,18,19
337.5 656 m 0,34,35
 349.5 656 349.5 656 366 670 c 128,-1,36
 382.5 684 382.5 684 382.5 710 c 0,37,38
 382.5 730 382.5 730 372 743.5 c 128,-1,39
 361.5 757 361.5 757 344.5 757 c 256,40,41
 327.5 757 327.5 757 313.5 743.5 c 128,-1,42
 299.5 730 299.5 730 299.5 706 c 256,43,44
 299.5 682 299.5 682 310.5 669 c 128,-1,45
 321.5 656 321.5 656 337.5 656 c 0,34,35
85.5 0 m 0,46,47
 70.5 0 70.5 0 61.5 5.5 c 128,-1,48
 52.5 11 52.5 11 48 20 c 128,-1,49
 43.5 29 43.5 29 42 40.5 c 128,-1,50
 40.5 52 40.5 52 40.5 65 c 2,51,-1
 40.5 496 l 2,52,53
 40.5 507 40.5 507 41 520 c 128,-1,54
 41.5 533 41.5 533 45.5 544 c 128,-1,55
 49.5 555 49.5 555 58.5 562.5 c 128,-1,56
 67.5 570 67.5 570 83.5 570 c 0,57,58
 103.5 570 103.5 570 113.5 555.5 c 128,-1,59
 123.5 541 123.5 541 128 523 c 128,-1,60
 132.5 505 132.5 505 133.5 490.5 c 128,-1,61
 134.5 476 134.5 476 136.5 476 c 256,62,63
 138.5 476 138.5 476 142.5 491.5 c 128,-1,64
 146.5 507 146.5 507 157 525 c 128,-1,65
 167.5 543 167.5 543 186.5 558.5 c 128,-1,66
 205.5 574 205.5 574 238.5 574 c 0,67,68
 266.5 574 266.5 574 284.5 559 c 128,-1,69
 302.5 544 302.5 544 313.5 525.5 c 128,-1,70
 324.5 507 324.5 507 330.5 492 c 128,-1,71
 336.5 477 336.5 477 339.5 477 c 256,72,73
 342.5 477 342.5 477 348 492 c 128,-1,74
 353.5 507 353.5 507 364.5 525.5 c 128,-1,75
 375.5 544 375.5 544 395 559 c 128,-1,76
 414.5 574 414.5 574 446.5 574 c 0,77,78
 487.5 574 487.5 574 513.5 554 c 128,-1,79
 539.5 534 539.5 534 554 498.5 c 128,-1,80
 568.5 463 568.5 463 574 414.5 c 128,-1,81
 579.5 366 579.5 366 579.5 310 c 2,82,-1
 579.5 27 l 2,83,84
 579.5 13 579.5 13 560.5 6.5 c 128,-1,85
 541.5 0 541.5 0 521.5 0 c 256,86,87
 501.5 0 501.5 0 490.5 5.5 c 128,-1,88
 479.5 11 479.5 11 479.5 26 c 2,89,-1
 479.5 301 l 2,90,91
 479.5 313 479.5 313 479.5 341.5 c 128,-1,92
 479.5 370 479.5 370 475 400 c 128,-1,93
 470.5 430 470.5 430 460 452.5 c 128,-1,94
 449.5 475 449.5 475 428.5 475 c 0,95,96
 410.5 475 410.5 475 399 461 c 128,-1,97
 387.5 447 387.5 447 380.5 422.5 c 128,-1,98
 373.5 398 373.5 398 370 363.5 c 128,-1,99
 366.5 329 366.5 329 364.5 287 c 0,100,101
 361.5 238 361.5 238 360.5 211 c 128,-1,102
 359.5 184 359.5 184 360 141.5 c 128,-1,103
 360.5 99 360.5 99 361 69.5 c 128,-1,104
 361.5 40 361.5 40 361.5 31 c 0,105,106
 361.5 17 361.5 17 345 8.5 c 128,-1,107
 328.5 0 328.5 0 304.5 0 c 256,108,109
 280.5 0 280.5 0 270.5 7 c 128,-1,110
 260.5 14 260.5 14 260.5 38 c 2,111,-1
 260.5 301 l 2,112,113
 260.5 312 260.5 312 260.5 341 c 128,-1,114
 260.5 370 260.5 370 256.5 400 c 128,-1,115
 252.5 430 252.5 430 242.5 453 c 128,-1,116
 232.5 476 232.5 476 212.5 476 c 0,117,118
 194.5 476 194.5 476 182 460.5 c 128,-1,119
 169.5 445 169.5 445 161.5 421 c 128,-1,120
 153.5 397 153.5 397 149 367 c 128,-1,121
 144.5 337 144.5 337 142.5 309 c 128,-1,122
 140.5 281 140.5 281 140 257 c 128,-1,123
 139.5 233 139.5 233 139.5 221 c 2,124,-1
 139.5 45 l 2,125,126
 139.5 26 139.5 26 123.5 13 c 128,-1,127
 107.5 0 107.5 0 85.5 0 c 0,46,47
64.5 476 m 0,128,129
 70.5 477 70.5 477 71 487.5 c 128,-1,130
 71.5 498 71.5 498 71.5 506 c 0,131,132
 71.5 513 71.5 513 73.5 521.5 c 128,-1,133
 75.5 530 75.5 530 77 537 c 128,-1,134
 78.5 544 78.5 544 78.5 549 c 128,-1,135
 78.5 554 78.5 554 74.5 554 c 0,136,137
 67.5 554 67.5 554 63 547.5 c 128,-1,138
 58.5 541 58.5 541 56.5 532 c 128,-1,139
 54.5 523 54.5 523 53.5 515 c 128,-1,140
 52.5 507 52.5 507 52.5 504 c 0,141,142
 52.5 496 52.5 496 54.5 485.5 c 128,-1,143
 56.5 475 56.5 475 64.5 476 c 0,128,129
295.5 23 m 0,144,145
 295.5 33 295.5 33 289 36.5 c 128,-1,146
 282.5 40 282.5 40 282.5 51 c 0,147,148
 282.5 53 282.5 53 282.5 58.5 c 128,-1,149
 282.5 64 282.5 64 282 69.5 c 128,-1,150
 281.5 75 281.5 75 279.5 79.5 c 128,-1,151
 277.5 84 277.5 84 274.5 84 c 0,152,153
 272.5 84 272.5 84 271.5 79.5 c 128,-1,154
 270.5 75 270.5 75 270 69 c 128,-1,155
 269.5 63 269.5 63 269.5 57.5 c 128,-1,156
 269.5 52 269.5 52 269.5 50 c 0,157,158
 269.5 38 269.5 38 273 24.5 c 128,-1,159
 276.5 11 276.5 11 286.5 11 c 0,160,161
 295.5 11 295.5 11 295.5 23 c 0,144,145
511.5 24 m 0,162,163
 511.5 34 511.5 34 506 41.5 c 128,-1,164
 500.5 49 500.5 49 500.5 60 c 0,165,166
 500.5 64 500.5 64 500 74 c 128,-1,167
 499.5 84 499.5 84 493.5 84 c 0,168,169
 488.5 84 488.5 84 488 73 c 128,-1,170
 487.5 62 487.5 62 487.5 59 c 256,171,172
 487.5 56 487.5 56 488 48 c 128,-1,173
 488.5 40 488.5 40 490.5 32.5 c 128,-1,174
 492.5 25 492.5 25 495.5 19 c 128,-1,175
 498.5 13 498.5 13 503.5 13 c 0,176,177
 507.5 13 507.5 13 509.5 17.5 c 128,-1,178
 511.5 22 511.5 22 511.5 24 c 0,162,163
83.5 24 m 0,179,180
 83.5 35 83.5 35 79 36 c 128,-1,181
 74.5 37 74.5 37 69.5 44 c 0,182,183
 68.5 46 68.5 46 68 51.5 c 128,-1,184
 67.5 57 67.5 57 67.5 62.5 c 128,-1,185
 67.5 68 67.5 68 66 72.5 c 128,-1,186
 64.5 77 64.5 77 61.5 77 c 0,187,188
 56.5 77 56.5 77 56 67.5 c 128,-1,189
 55.5 58 55.5 58 55.5 51 c 0,190,191
 55.5 47 55.5 47 56.5 41 c 128,-1,192
 57.5 35 57.5 35 60 29 c 128,-1,193
 62.5 23 62.5 23 66 18.5 c 128,-1,194
 69.5 14 69.5 14 74.5 14 c 0,195,196
 83.5 14 83.5 14 83.5 24 c 0,179,180
EndSplineSet
EndChar

StartChar: N
Encoding: 78 78 54
Width: 620
Flags: W
LayerCount: 2
Fore
SplineSet
289.5 558 m 4,0,1
 249.5 558 249.5 558 221 586 c 132,-1,2
 192.5 614 192.5 614 192.5 658 c 4,3,4
 192.5 682 192.5 682 201 703.5 c 132,-1,5
 209.5 725 209.5 725 224.5 740.5 c 132,-1,6
 239.5 756 239.5 756 260.5 765.5 c 132,-1,7
 281.5 775 281.5 775 306.5 775 c 4,8,9
 326.5 775 326.5 775 343.5 766.5 c 132,-1,10
 360.5 758 360.5 758 372.5 743 c 132,-1,11
 384.5 728 384.5 728 391 709 c 132,-1,12
 397.5 690 397.5 690 397.5 669 c 4,13,14
 397.5 642 397.5 642 389 621.5 c 132,-1,15
 380.5 601 380.5 601 365.5 587 c 132,-1,16
 350.5 573 350.5 573 331 565.5 c 132,-1,17
 311.5 558 311.5 558 289.5 558 c 4,0,1
252.5 731 m 4,18,19
 259.5 738 259.5 738 261 743 c 132,-1,20
 262.5 748 262.5 748 260.5 748 c 4,21,22
 252.5 748 252.5 748 243.5 740.5 c 132,-1,23
 234.5 733 234.5 733 227 722.5 c 132,-1,24
 219.5 712 219.5 712 214.5 700 c 132,-1,25
 209.5 688 209.5 688 209.5 678 c 4,26,27
 209.5 676 209.5 676 211 670 c 132,-1,28
 212.5 664 212.5 664 215.5 664 c 4,29,30
 219.5 664 219.5 664 225.5 686 c 4,31,32
 228.5 700 228.5 700 236.5 711.5 c 132,-1,33
 244.5 723 244.5 723 252.5 731 c 4,18,19
293.5 615 m 4,34,35
 305.5 615 305.5 615 322 629 c 132,-1,36
 338.5 643 338.5 643 338.5 669 c 4,37,38
 338.5 689 338.5 689 328 702.5 c 132,-1,39
 317.5 716 317.5 716 300.5 716 c 260,40,41
 283.5 716 283.5 716 269.5 702.5 c 132,-1,42
 255.5 689 255.5 689 255.5 665 c 260,43,44
 255.5 641 255.5 641 266.5 628 c 132,-1,45
 277.5 615 277.5 615 293.5 615 c 4,34,35
181.5 0 m 0,46,47
 156.5 0 156.5 0 146.5 14.5 c 128,-1,48
 136.5 29 136.5 29 136.5 65 c 2,49,-1
 136.5 422 l 2,50,51
 136.5 466 136.5 466 146 481 c 128,-1,52
 155.5 496 155.5 496 184.5 496 c 0,53,54
 203.5 496 203.5 496 221.5 486.5 c 128,-1,55
 239.5 477 239.5 477 239.5 451 c 2,56,-1
 239.5 437 l 2,57,58
 239.5 397 239.5 397 243.5 397 c 256,59,60
 247.5 397 247.5 397 252.5 413 c 128,-1,61
 257.5 429 257.5 429 269.5 448.5 c 128,-1,62
 281.5 468 281.5 468 303.5 484 c 128,-1,63
 325.5 500 325.5 500 361.5 500 c 0,64,65
 425.5 500 425.5 500 454.5 437 c 128,-1,66
 483.5 374 483.5 374 483.5 236 c 2,67,-1
 483.5 31 l 2,68,69
 483.5 0 483.5 0 427.5 0 c 0,70,71
 400.5 0 400.5 0 388.5 11.5 c 128,-1,72
 376.5 23 376.5 23 376.5 34 c 2,73,-1
 376.5 227 l 2,74,75
 376.5 279 376.5 279 373.5 311 c 128,-1,76
 370.5 343 370.5 343 364.5 361 c 128,-1,77
 358.5 379 358.5 379 349 385.5 c 128,-1,78
 339.5 392 339.5 392 325.5 392 c 0,79,80
 304.5 392 304.5 392 289 372.5 c 128,-1,81
 273.5 353 273.5 353 263.5 320 c 128,-1,82
 253.5 287 253.5 287 249 242.5 c 128,-1,83
 244.5 198 244.5 198 244.5 147 c 2,84,-1
 244.5 45 l 2,85,86
 244.5 30 244.5 30 237 21 c 128,-1,87
 229.5 12 229.5 12 219.5 7.5 c 128,-1,88
 209.5 3 209.5 3 199 1.5 c 128,-1,89
 188.5 0 188.5 0 181.5 0 c 0,46,47
156.5 395 m 0,90,91
 159.5 395 159.5 395 161.5 407 c 128,-1,92
 163.5 419 163.5 419 165.5 434 c 128,-1,93
 167.5 449 167.5 449 168.5 461.5 c 128,-1,94
 169.5 474 169.5 474 169.5 475 c 0,95,96
 169.5 477 169.5 477 169 480 c 128,-1,97
 168.5 483 168.5 483 166.5 483 c 0,98,99
 161.5 483 161.5 483 158 475.5 c 128,-1,100
 154.5 468 154.5 468 152.5 458.5 c 128,-1,101
 150.5 449 150.5 449 149.5 439.5 c 128,-1,102
 148.5 430 148.5 430 148.5 427 c 0,103,104
 148.5 419 148.5 419 150.5 407 c 128,-1,105
 152.5 395 152.5 395 156.5 395 c 0,90,91
413.5 29 m 0,106,107
 413.5 35 413.5 35 411.5 38 c 128,-1,108
 409.5 41 409.5 41 407 43 c 128,-1,109
 404.5 45 404.5 45 402.5 49 c 128,-1,110
 400.5 53 400.5 53 400.5 60 c 0,111,112
 400.5 76 400.5 76 399 80 c 128,-1,113
 397.5 84 397.5 84 392.5 84 c 256,114,115
 387.5 84 387.5 84 386 76.5 c 128,-1,116
 384.5 69 384.5 69 384.5 59 c 0,117,118
 384.5 39 384.5 39 390.5 27 c 128,-1,119
 396.5 15 396.5 15 404.5 15 c 0,120,121
 407.5 15 407.5 15 410.5 18.5 c 128,-1,122
 413.5 22 413.5 22 413.5 29 c 0,106,107
180.5 26 m 0,123,124
 180.5 31 180.5 31 178 33.5 c 128,-1,125
 175.5 36 175.5 36 172.5 38.5 c 128,-1,126
 169.5 41 169.5 41 167 45 c 128,-1,127
 164.5 49 164.5 49 164.5 56 c 0,128,129
 164.5 77 164.5 77 157.5 77 c 0,130,131
 155.5 77 155.5 77 153.5 69.5 c 128,-1,132
 151.5 62 151.5 62 151.5 51 c 0,133,134
 151.5 36 151.5 36 158 24 c 128,-1,135
 164.5 12 164.5 12 172.5 12 c 0,136,137
 174.5 12 174.5 12 177.5 16 c 128,-1,138
 180.5 20 180.5 20 180.5 26 c 0,123,124
EndSplineSet
EndChar

StartChar: O
Encoding: 79 79 55
Width: 620
Flags: W
LayerCount: 2
Fore
SplineSet
183.5 341.5 m 0,0,1
 170.5 346 170.5 346 162 355 c 128,-1,2
 153.5 364 153.5 364 151 374 c 128,-1,3
 148.5 384 148.5 384 152 394.5 c 0,4,5
 156.5 406 156.5 406 165.5 411.5 c 0,6,7
 170.5 414 170.5 414 178 416.5 c 0,8,9
 185.5 418 185.5 418 199 420 c 128,-1,10
 212.5 422 212.5 422 232.5 422 c 0,11,12
 292.5 422 292.5 422 323.5 422.5 c 0,13,14
 395.5 422 395.5 422 420.5 421 c 128,-1,15
 445.5 420 445.5 420 458 414.5 c 0,16,17
 470.5 410 470.5 410 473.5 400.5 c 0,18,19
 476.5 392 476.5 392 476.5 376.5 c 0,20,21
 476.5 364 476.5 364 471 357 c 128,-1,22
 465.5 350 465.5 350 451.5 345 c 128,-1,23
 437.5 340 437.5 340 413.5 338.5 c 0,24,25
 389.5 336 389.5 336 323.5 336.5 c 0,26,27
 245.5 336 245.5 336 217 338 c 128,-1,28
 188.5 340 188.5 340 183.5 341.5 c 0,0,1
191.5 402.5 m 0,29,30
 191.5 404 191.5 404 189 406 c 0,31,32
 187.5 407 187.5 407 182.5 404.5 c 128,-1,33
 177.5 402 177.5 402 175 392.5 c 0,34,35
 172.5 384 172.5 384 172.5 376.5 c 256,36,37
 172.5 370 172.5 370 174.5 369.5 c 0,38,39
 177.5 370 177.5 370 182.5 382.5 c 0,40,41
 188.5 396 188.5 396 188.5 396.5 c 0,42,43
 191.5 399 191.5 399 191.5 402.5 c 0,29,30
181.5 180.5 m 0,44,45
 162.5 184 162.5 184 153 198 c 128,-1,46
 143.5 212 143.5 212 150.5 226.5 c 0,47,48
 155.5 236 155.5 236 163 240.5 c 0,49,50
 170.5 246 170.5 246 186 248 c 0,51,52
 209.5 251 209.5 251 226.5 251 c 0,53,54
 290.5 251 290.5 251 344 251.5 c 128,-1,55
 397.5 252 397.5 252 423 250 c 128,-1,56
 448.5 248 448.5 248 462.5 245 c 128,-1,57
 476.5 242 476.5 242 482 235 c 128,-1,58
 487.5 228 487.5 228 487.5 217.5 c 0,59,60
 487.5 204 487.5 204 481.5 195.5 c 0,61,62
 475.5 186 475.5 186 460 181.5 c 0,63,64
 444.5 176 444.5 176 418.5 174 c 0,65,66
 381.5 171 381.5 171 324.5 171.5 c 0,67,68
 246.5 172 246.5 172 218 175 c 128,-1,69
 189.5 178 189.5 178 181.5 180.5 c 0,44,45
184.5 229.5 m 0,70,71
 184.5 232 184.5 232 181.5 232.5 c 256,72,73
 178.5 232 178.5 232 177.5 231.5 c 0,74,75
 175.5 230 175.5 230 172.5 226 c 128,-1,76
 169.5 222 169.5 222 169.5 214.5 c 0,77,78
 169.5 206 169.5 206 171 204.5 c 0,79,80
 172.5 204 172.5 204 177.5 208.5 c 0,81,82
 181.5 212 181.5 212 183 218.5 c 0,83,84
 184.5 224 184.5 224 184.5 229.5 c 0,70,71
307.5 -10 m 0,85,86
 235.5 -10 235.5 -10 182 17.5 c 128,-1,87
 128.5 45 128.5 45 93.5 88.5 c 128,-1,88
 58.5 132 58.5 132 41 186 c 128,-1,89
 23.5 240 23.5 240 23.5 294 c 0,90,91
 23.5 360 23.5 360 43.5 416 c 128,-1,92
 63.5 472 63.5 472 101 512.5 c 128,-1,93
 138.5 553 138.5 553 192.5 576 c 128,-1,94
 246.5 599 246.5 599 313.5 599 c 0,95,96
 375.5 599 375.5 599 427.5 576.5 c 128,-1,97
 479.5 554 479.5 554 517 514.5 c 128,-1,98
 554.5 475 554.5 475 575.5 420.5 c 128,-1,99
 596.5 366 596.5 366 596.5 303 c 0,100,101
 596.5 239 596.5 239 575 182 c 128,-1,102
 553.5 125 553.5 125 515 82.5 c 128,-1,103
 476.5 40 476.5 40 423.5 15 c 128,-1,104
 370.5 -10 370.5 -10 307.5 -10 c 0,85,86
309.5 67 m 0,105,106
 410.5 67 410.5 67 462 130.5 c 128,-1,107
 513.5 194 513.5 194 513.5 303 c 0,108,109
 513.5 347 513.5 347 500 387.5 c 128,-1,110
 486.5 428 486.5 428 460.5 459 c 128,-1,111
 434.5 490 434.5 490 397.5 508.5 c 128,-1,112
 360.5 527 360.5 527 313.5 527 c 0,113,114
 268.5 527 268.5 527 231 509 c 128,-1,115
 193.5 491 193.5 491 166.5 461 c 128,-1,116
 139.5 431 139.5 431 124.5 391 c 128,-1,117
 109.5 351 109.5 351 109.5 306 c 256,118,119
 109.5 261 109.5 261 123 218 c 128,-1,120
 136.5 175 136.5 175 162 141.5 c 128,-1,121
 187.5 108 187.5 108 224.5 87.5 c 128,-1,122
 261.5 67 261.5 67 309.5 67 c 0,105,106
EndSplineSet

EndChar

StartChar: P
Encoding: 80 80 56
Width: 620
Flags: W
LayerCount: 2
Fore
SplineSet
182 -14 m 0,0,1
 162 -14 162 -14 145 1 c 128,-1,2
 128 16 128 16 128 69 c 2,3,-1
 128 526 l 2,4,5
 128 547 128 547 136.5 564 c 128,-1,6
 145 581 145 581 159.5 592.5 c 128,-1,7
 174 604 174 604 192.5 610 c 128,-1,8
 211 616 211 616 231 616 c 2,9,-1
 290 616 l 2,10,11
 321 616 321 616 356.5 604 c 128,-1,12
 392 592 392 592 422 566 c 128,-1,13
 452 540 452 540 472 498 c 128,-1,14
 492 456 492 456 492 397 c 256,15,16
 492 338 492 338 472.5 291.5 c 128,-1,17
 453 245 453 245 424 213.5 c 128,-1,18
 395 182 395 182 361 165.5 c 128,-1,19
 327 149 327 149 297 149 c 2,20,-1
 268 149 l 2,21,22
 259 149 259 149 250.5 145 c 128,-1,23
 242 141 242 141 242 132 c 2,24,-1
 242 65 l 2,25,26
 242 33 242 33 236.5 21 c 128,-1,27
 231 9 231 9 222 1 c 128,-1,28
 213 -7 213 -7 202.5 -10.5 c 128,-1,29
 192 -14 192 -14 182 -14 c 0,0,1
286 238 m 2,30,31
 303 238 303 238 319 246 c 128,-1,32
 335 254 335 254 348.5 271.5 c 128,-1,33
 362 289 362 289 370 317 c 128,-1,34
 378 345 378 345 378 385 c 0,35,36
 378 428 378 428 370 456.5 c 128,-1,37
 362 485 362 485 349 501.5 c 128,-1,38
 336 518 336 518 320 525 c 128,-1,39
 304 532 304 532 289 532 c 2,40,-1
 267 532 l 2,41,42
 242 532 242 532 242 498 c 2,43,-1
 242 261 l 2,44,45
 242 238 242 238 273 238 c 2,46,-1
 286 238 l 2,30,31
168 21 m 256,47,48
 163 26 163 26 159.5 39 c 128,-1,49
 156 52 156 52 156 78.5 c 128,-1,50
 156 105 156 105 149 105 c 0,51,52
 144 105 144 105 142.5 96.5 c 128,-1,53
 141 88 141 88 141 76 c 0,54,55
 141 38 141 38 148 22 c 128,-1,56
 155 6 155 6 165 6 c 0,57,58
 167 6 167 6 170 8 c 128,-1,59
 173 10 173 10 173 12 c 0,60,61
 173 16 173 16 168 21 c 256,47,48
EndSplineSet

EndChar

StartChar: Q
Encoding: 81 81 57
Width: 620
Flags: W
LayerCount: 2
Fore
SplineSet
316 616 m 0,0,1
 275 616 275 616 242 601 c 2,2,3
 242 601 242 601 209 585 c 1,4,-1
 165 537 l 1,5,6
 133 492 133 492 117 432.5 c 128,-1,7
 101 373 101 373 101 311 c 0,8,9
 101 255 101 255 113 196.5 c 128,-1,10
 125 138 125 138 151 90.5 c 128,-1,11
 177 43 177 43 218 12.5 c 128,-1,12
 259 -18 259 -18 317 -18 c 0,13,14
 354 -18 354 -18 385 -4 c 1,15,16
 393 -22 393 -22 405.5 -40.5 c 128,-1,17
 418 -59 418 -59 441 -59 c 0,18,19
 448 -59 448 -59 456.5 -56.5 c 128,-1,20
 465 -54 465 -54 472.5 -49.5 c 128,-1,21
 480 -45 480 -45 485 -39 c 128,-1,22
 490 -33 490 -33 490 -26 c 0,23,24
 490 -18 490 -18 481 8.5 c 128,-1,25
 472 35 472 35 460 65 c 1,26,27
 490 112 490 112 504.5 177.5 c 128,-1,28
 519 243 519 243 519 316 c 0,29,30
 519 371 519 371 507 425 c 128,-1,31
 495 479 495 479 470.5 521.5 c 128,-1,32
 446 564 446 564 407.5 590 c 128,-1,33
 369 616 369 616 316 616 c 0,0,1
164 139 m 0,34,35
 167 139 167 139 171 133.5 c 128,-1,36
 175 128 175 128 179.5 119.5 c 128,-1,37
 184 111 184 111 189.5 102 c 128,-1,38
 195 93 195 93 200 86 c 0,39,40
 222 57 222 57 241.5 40 c 128,-1,41
 261 23 261 23 261 18 c 0,42,43
 261 15 261 15 256 14 c 0,44,45
 244 14 244 14 227.5 28 c 128,-1,46
 211 42 211 42 196 61.5 c 128,-1,47
 181 81 181 81 170.5 101.5 c 128,-1,48
 160 122 160 122 160 134 c 0,49,50
 160 139 160 139 164 139 c 0,34,35
221 395 m 1,51,52
 237 354 237 354 254 312 c 128,-1,53
 271 270 271 270 287.5 229.5 c 128,-1,54
 304 189 304 189 319.5 151 c 128,-1,55
 335 113 335 113 348 81 c 1,56,57
 335 74 335 74 317 74 c 0,58,59
 286 74 286 74 266 102 c 128,-1,60
 246 130 246 130 234.5 168.5 c 128,-1,61
 223 207 223 207 219 247 c 128,-1,62
 215 287 215 287 215 311 c 0,63,64
 215 327 215 327 216.5 349 c 128,-1,65
 218 371 218 371 221 395 c 1,51,52
165 161 m 256,66,67
 165 153 165 153 158 151 c 0,68,69
 155 151 155 151 150 154.5 c 128,-1,70
 145 158 145 158 145 166 c 0,71,72
 145 175 145 175 153 175 c 0,73,74
 156 175 156 175 160.5 172 c 128,-1,75
 165 169 165 169 165 161 c 256,66,67
316 536 m 0,76,77
 346 536 346 536 364.5 513.5 c 128,-1,78
 383 491 383 491 393.5 457.5 c 128,-1,79
 404 424 404 424 408 384 c 128,-1,80
 412 344 412 344 412 308 c 0,81,82
 412 282 412 282 411 254 c 128,-1,83
 410 226 410 226 406 198 c 1,84,85
 396 224 396 224 381 262.5 c 128,-1,86
 366 301 366 301 348.5 344.5 c 128,-1,87
 331 388 331 388 312.5 434.5 c 128,-1,88
 294 481 294 481 276 523 c 1,89,90
 294 536 294 536 316 536 c 0,76,77
EndSplineSet

EndChar

StartChar: R
Encoding: 82 82 58
Width: 620
Flags: W
LayerCount: 2
Fore
SplineSet
291.5 584 m 4,0,1
 251.5 584 251.5 584 223 612 c 132,-1,2
 194.5 640 194.5 640 194.5 684 c 4,3,4
 194.5 708 194.5 708 203 729.5 c 132,-1,5
 211.5 751 211.5 751 226.5 766.5 c 132,-1,6
 241.5 782 241.5 782 262.5 791.5 c 132,-1,7
 283.5 801 283.5 801 308.5 801 c 4,8,9
 328.5 801 328.5 801 345.5 792.5 c 132,-1,10
 362.5 784 362.5 784 374.5 769 c 132,-1,11
 386.5 754 386.5 754 393 735 c 132,-1,12
 399.5 716 399.5 716 399.5 695 c 4,13,14
 399.5 668 399.5 668 391 647.5 c 132,-1,15
 382.5 627 382.5 627 367.5 613 c 132,-1,16
 352.5 599 352.5 599 333 591.5 c 132,-1,17
 313.5 584 313.5 584 291.5 584 c 4,0,1
254.5 757 m 4,18,19
 261.5 764 261.5 764 263 769 c 132,-1,20
 264.5 774 264.5 774 262.5 774 c 4,21,22
 254.5 774 254.5 774 245.5 766.5 c 132,-1,23
 236.5 759 236.5 759 229 748.5 c 132,-1,24
 221.5 738 221.5 738 216.5 726 c 132,-1,25
 211.5 714 211.5 714 211.5 704 c 4,26,27
 211.5 702 211.5 702 213 696 c 132,-1,28
 214.5 690 214.5 690 217.5 690 c 4,29,30
 221.5 690 221.5 690 227.5 712 c 4,31,32
 230.5 726 230.5 726 238.5 737.5 c 132,-1,33
 246.5 749 246.5 749 254.5 757 c 4,18,19
295.5 641 m 4,34,35
 307.5 641 307.5 641 324 655 c 132,-1,36
 340.5 669 340.5 669 340.5 695 c 4,37,38
 340.5 715 340.5 715 330 728.5 c 132,-1,39
 319.5 742 319.5 742 302.5 742 c 260,40,41
 285.5 742 285.5 742 271.5 728.5 c 132,-1,42
 257.5 715 257.5 715 257.5 691 c 260,43,44
 257.5 667 257.5 667 268.5 654 c 132,-1,45
 279.5 641 279.5 641 295.5 641 c 4,34,35
235.5 0 m 0,46,47
 210.5 0 210.5 0 200.5 17 c 128,-1,48
 190.5 34 190.5 34 190.5 64 c 2,49,-1
 190.5 451 l 2,50,51
 190.5 505 190.5 505 201.5 525 c 128,-1,52
 212.5 545 212.5 545 238.5 545 c 0,53,54
 261.5 545 261.5 545 275 526.5 c 128,-1,55
 288.5 508 288.5 508 288.5 473 c 0,56,57
 288.5 462 288.5 462 288.5 456.5 c 128,-1,58
 288.5 451 288.5 451 291.5 451 c 0,59,60
 293.5 451 293.5 451 294 454 c 128,-1,61
 294.5 457 294.5 457 296.5 461 c 0,62,63
 299.5 468 299.5 468 305 482 c 128,-1,64
 310.5 496 310.5 496 321 510 c 128,-1,65
 331.5 524 331.5 524 347.5 534.5 c 128,-1,66
 363.5 545 363.5 545 385.5 545 c 0,67,68
 405.5 545 405.5 545 417.5 533 c 128,-1,69
 429.5 521 429.5 521 429.5 502 c 0,70,71
 429.5 482 429.5 482 421 464.5 c 128,-1,72
 412.5 447 412.5 447 392.5 447 c 256,73,74
 372.5 447 372.5 447 355 428.5 c 128,-1,75
 337.5 410 337.5 410 325 381.5 c 128,-1,76
 312.5 353 312.5 353 305 319 c 128,-1,77
 297.5 285 297.5 285 297.5 254 c 2,78,-1
 297.5 55 l 2,79,80
 297.5 25 297.5 25 277.5 12.5 c 128,-1,81
 257.5 0 257.5 0 235.5 0 c 0,46,47
217.5 503 m 256,82,83
 218.5 507 218.5 507 220 511.5 c 128,-1,84
 221.5 516 221.5 516 222.5 520 c 128,-1,85
 223.5 524 223.5 524 223 526.5 c 128,-1,86
 222.5 529 222.5 529 218.5 529 c 0,87,88
 213.5 529 213.5 529 208.5 518.5 c 128,-1,89
 203.5 508 203.5 508 203.5 497 c 0,90,91
 203.5 476 203.5 476 210.5 476 c 0,92,93
 215.5 476 215.5 476 216 487.5 c 128,-1,94
 216.5 499 216.5 499 217.5 503 c 256,82,83
217.5 50 m 0,95,96
 214.5 62 214.5 62 213 71.5 c 128,-1,97
 211.5 81 211.5 81 208.5 81 c 0,98,99
 203.5 81 203.5 81 203.5 64 c 0,100,101
 203.5 46 203.5 46 208.5 32 c 128,-1,102
 213.5 18 213.5 18 220.5 18 c 0,103,104
 222.5 18 222.5 18 225 19 c 128,-1,105
 227.5 20 227.5 20 227.5 25 c 0,106,107
 227.5 28 227.5 28 223.5 34 c 128,-1,108
 219.5 40 219.5 40 217.5 50 c 0,95,96
EndSplineSet
EndChar

StartChar: S
Encoding: 83 83 59
Width: 620
Flags: W
LayerCount: 2
Fore
SplineSet
320 622.5 m 4,0,1
 280 622.5 280 622.5 251.5 650.5 c 132,-1,2
 223 678.5 223 678.5 223 722.5 c 4,3,4
 223 746.5 223 746.5 231.5 768 c 132,-1,5
 240 789.5 240 789.5 255 805 c 132,-1,6
 270 820.5 270 820.5 291 830 c 132,-1,7
 312 839.5 312 839.5 337 839.5 c 4,8,9
 357 839.5 357 839.5 374 831 c 132,-1,10
 391 822.5 391 822.5 403 807.5 c 132,-1,11
 415 792.5 415 792.5 421.5 773.5 c 132,-1,12
 428 754.5 428 754.5 428 733.5 c 4,13,14
 428 706.5 428 706.5 419.5 686 c 132,-1,15
 411 665.5 411 665.5 396 651.5 c 132,-1,16
 381 637.5 381 637.5 361.5 630 c 132,-1,17
 342 622.5 342 622.5 320 622.5 c 4,0,1
283 795.5 m 4,18,19
 290 802.5 290 802.5 291.5 807.5 c 132,-1,20
 293 812.5 293 812.5 291 812.5 c 4,21,22
 283 812.5 283 812.5 274 805 c 132,-1,23
 265 797.5 265 797.5 257.5 787 c 132,-1,24
 250 776.5 250 776.5 245 764.5 c 132,-1,25
 240 752.5 240 752.5 240 742.5 c 4,26,27
 240 740.5 240 740.5 241.5 734.5 c 132,-1,28
 243 728.5 243 728.5 246 728.5 c 4,29,30
 250 728.5 250 728.5 256 750.5 c 4,31,32
 259 764.5 259 764.5 267 776 c 132,-1,33
 275 787.5 275 787.5 283 795.5 c 4,18,19
324 679.5 m 4,34,35
 336 679.5 336 679.5 352.5 693.5 c 132,-1,36
 369 707.5 369 707.5 369 733.5 c 4,37,38
 369 753.5 369 753.5 358.5 767 c 132,-1,39
 348 780.5 348 780.5 331 780.5 c 260,40,41
 314 780.5 314 780.5 300 767 c 132,-1,42
 286 753.5 286 753.5 286 729.5 c 260,43,44
 286 705.5 286 705.5 297 692.5 c 132,-1,45
 308 679.5 308 679.5 324 679.5 c 4,34,35
313 -46 m 4,46,47
 282 -46 282 -46 251 -32.5 c 132,-1,48
 220 -19 220 -19 195.5 6 c 132,-1,49
 171 31 171 31 156 68 c 132,-1,50
 141 105 141 105 141 151 c 4,51,52
 141 182 141 182 159 202 c 132,-1,53
 177 222 177 222 204 220 c 4,54,55
 221 219 221 219 228.5 207.5 c 132,-1,56
 236 196 236 196 236 170 c 4,57,58
 236 152 236 152 240.5 129 c 132,-1,59
 245 106 245 106 254 86 c 132,-1,60
 263 66 263 66 275.5 52.5 c 132,-1,61
 288 39 288 39 303 39 c 4,62,63
 367 39 367 39 367 104 c 4,64,65
 367 125 367 125 360.5 143 c 132,-1,66
 354 161 354 161 343.5 176 c 132,-1,67
 333 191 333 191 320 205 c 132,-1,68
 307 219 307 219 293 232 c 4,69,70
 221 304 221 304 190.5 352 c 132,-1,71
 160 400 160 400 160 440 c 4,72,73
 160 509 160 509 202.5 548 c 132,-1,74
 245 587 245 587 319 587 c 4,75,76
 353 587 353 587 381 572 c 132,-1,77
 409 557 409 557 429.5 533 c 132,-1,78
 450 509 450 509 461 479.5 c 132,-1,79
 472 450 472 450 472 422 c 4,80,81
 472 392 472 392 454.5 367.5 c 132,-1,82
 437 343 437 343 411 343 c 4,83,84
 399 343 399 343 385 353 c 132,-1,85
 371 363 371 363 371 380 c 4,86,87
 371 439 371 439 354 466.5 c 132,-1,88
 337 494 337 494 315 494 c 4,89,90
 273 494 273 494 273 446 c 4,91,92
 273 431 273 431 277 416.5 c 132,-1,93
 281 402 281 402 291.5 385 c 132,-1,94
 302 368 302 368 319.5 347.5 c 132,-1,95
 337 327 337 327 364 300 c 4,96,97
 397 267 397 267 419 241 c 132,-1,98
 441 215 441 215 454.5 193 c 132,-1,99
 468 171 468 171 473.5 152 c 132,-1,100
 479 133 479 133 479 114 c 4,101,102
 479 79 479 79 466.5 49.5 c 132,-1,103
 454 20 454 20 432 -1 c 132,-1,104
 410 -22 410 -22 379.5 -34 c 132,-1,105
 349 -46 349 -46 313 -46 c 4,46,47
218 506 m 4,106,107
 222 513 222 513 229 522.5 c 132,-1,108
 236 532 236 532 244 538 c 4,109,110
 252 543 252 543 254.5 549.5 c 132,-1,111
 257 556 257 556 254 556 c 4,112,113
 248 557 248 557 238 549.5 c 132,-1,114
 228 542 228 542 219 531 c 132,-1,115
 210 520 210 520 203 508 c 132,-1,116
 196 496 196 496 195 487 c 4,117,118
 195 481 195 481 201 481 c 4,119,120
 206 480 206 480 209 488 c 132,-1,121
 212 496 212 496 218 506 c 4,106,107
202 461 m 4,122,123
 202 468 202 468 196 468 c 4,124,125
 193 468 193 468 190.5 465 c 132,-1,126
 188 462 188 462 188 460 c 4,127,128
 188 455 188 455 195 454 c 4,129,130
 200 454 200 454 202 461 c 4,122,123
178 153 m 260,131,132
 183 167 183 167 188.5 176 c 132,-1,133
 194 185 194 185 195 193 c 4,134,135
 195 198 195 198 192 198 c 4,136,137
 184 199 184 199 177 192.5 c 132,-1,138
 170 186 170 186 165.5 176 c 132,-1,139
 161 166 161 166 160 153.5 c 132,-1,140
 159 141 159 141 163 129 c 4,141,142
 167 119 167 119 171 119 c 4,143,144
 176 119 176 119 174.5 129 c 132,-1,145
 173 139 173 139 178 153 c 260,131,132
EndSplineSet
EndChar

StartChar: T
Encoding: 84 84 60
Width: 620
Flags: W
LayerCount: 2
Fore
SplineSet
301.5 0 m 0,0,1
 293.5 0 293.5 0 284.5 3 c 128,-1,2
 275.5 6 275.5 6 267.5 11 c 128,-1,3
 259.5 16 259.5 16 254 23.5 c 128,-1,4
 248.5 31 248.5 31 248.5 40 c 2,5,-1
 248.5 525 l 1,6,7
 236.5 525 236.5 525 196.5 525 c 128,-1,8
 156.5 525 156.5 525 140 529 c 128,-1,9
 123.5 533 123.5 533 112 542.5 c 128,-1,10
 100.5 552 100.5 552 100.5 570 c 0,11,12
 100.5 592 100.5 592 114.5 604 c 128,-1,13
 128.5 616 128.5 616 149.5 616 c 2,14,-1
 486.5 616 l 2,15,16
 502.5 616 502.5 616 511 602 c 128,-1,17
 519.5 588 519.5 588 519.5 574 c 0,18,19
 519.5 556 519.5 556 511 546.5 c 128,-1,20
 502.5 537 502.5 537 489.5 532 c 128,-1,21
 476.5 527 476.5 527 429.5 526 c 128,-1,22
 382.5 525 382.5 525 369.5 525 c 2,23,-1
 361.5 525 l 1,24,-1
 361.5 47 l 2,25,26
 361.5 24 361.5 24 341.5 12 c 128,-1,27
 321.5 0 321.5 0 301.5 0 c 0,0,1
123.5 553 m 256,28,29
 128.5 553 128.5 553 128.5 560 c 0,30,31
 128.5 568 128.5 568 131.5 578.5 c 128,-1,32
 134.5 589 134.5 589 140.5 598 c 0,33,34
 143.5 603 143.5 603 135.5 603 c 0,35,36
 126.5 603 126.5 603 120.5 591.5 c 128,-1,37
 114.5 580 114.5 580 114.5 569 c 0,38,39
 114.5 565 114.5 565 116.5 559 c 128,-1,40
 118.5 553 118.5 553 123.5 553 c 256,28,29
282.5 23 m 0,41,42
 291.5 23 291.5 23 291.5 32 c 0,43,44
 291.5 36 291.5 36 287.5 37 c 0,45,46
 281.5 39 281.5 39 279 49.5 c 128,-1,47
 276.5 60 276.5 60 276.5 65 c 0,48,49
 276.5 67 276.5 67 277 73 c 128,-1,50
 277.5 79 277.5 79 277.5 85 c 128,-1,51
 277.5 91 277.5 91 276.5 95.5 c 128,-1,52
 275.5 100 275.5 100 271.5 100 c 256,53,54
 267.5 100 267.5 100 265.5 96 c 128,-1,55
 263.5 92 263.5 92 262.5 86.5 c 128,-1,56
 261.5 81 261.5 81 261 75.5 c 128,-1,57
 260.5 70 260.5 70 260.5 68 c 0,58,59
 260.5 64 260.5 64 261.5 56 c 128,-1,60
 262.5 48 262.5 48 265 41 c 128,-1,61
 267.5 34 267.5 34 272 28.5 c 128,-1,62
 276.5 23 276.5 23 282.5 23 c 0,41,42
EndSplineSet

EndChar

StartChar: U
Encoding: 85 85 61
Width: 620
Flags: W
LayerCount: 2
Fore
SplineSet
307.5 -4 m 0,0,1
 262.5 -4 262.5 -4 226 12.5 c 128,-1,2
 189.5 29 189.5 29 164.5 58.5 c 128,-1,3
 139.5 88 139.5 88 126 129.5 c 128,-1,4
 112.5 171 112.5 171 112.5 221 c 2,5,-1
 112.5 530 l 2,6,7
 112.5 540 112.5 540 114.5 555 c 128,-1,8
 116.5 570 116.5 570 122.5 583.5 c 128,-1,9
 128.5 597 128.5 597 139 606.5 c 128,-1,10
 149.5 616 149.5 616 165.5 616 c 0,11,12
 198.5 616 198.5 616 212.5 599 c 128,-1,13
 226.5 582 226.5 582 226.5 528 c 2,14,-1
 226.5 228 l 2,15,16
 226.5 204 226.5 204 226.5 179.5 c 128,-1,17
 226.5 155 226.5 155 234 135.5 c 128,-1,18
 241.5 116 241.5 116 259 103.5 c 128,-1,19
 276.5 91 276.5 91 311.5 91 c 0,20,21
 344.5 91 344.5 91 361.5 110 c 128,-1,22
 378.5 129 378.5 129 386 157.5 c 128,-1,23
 393.5 186 393.5 186 394 220 c 128,-1,24
 394.5 254 394.5 254 394.5 284 c 2,25,-1
 394.5 531 l 2,26,27
 394.5 541 394.5 541 396.5 556 c 128,-1,28
 398.5 571 398.5 571 404 584.5 c 128,-1,29
 409.5 598 409.5 598 419 608 c 128,-1,30
 428.5 618 428.5 618 444.5 618 c 0,31,32
 475.5 618 475.5 618 491.5 597.5 c 128,-1,33
 507.5 577 507.5 577 507.5 532 c 2,34,-1
 507.5 246 l 2,35,36
 507.5 189 507.5 189 495 143 c 128,-1,37
 482.5 97 482.5 97 457 64.5 c 128,-1,38
 431.5 32 431.5 32 394.5 14 c 128,-1,39
 357.5 -4 357.5 -4 307.5 -4 c 0,0,1
422.5 556 m 0,40,41
 422.5 560 422.5 560 425.5 568 c 128,-1,42
 428.5 576 428.5 576 435.5 584 c 0,43,44
 443.5 595 443.5 595 444 599 c 128,-1,45
 444.5 603 444.5 603 435.5 603 c 0,46,47
 430.5 603 430.5 603 426 598 c 128,-1,48
 421.5 593 421.5 593 418.5 588 c 0,49,50
 416.5 583 416.5 583 413 575 c 128,-1,51
 409.5 567 409.5 567 408.5 558 c 0,52,53
 408.5 553 408.5 553 409.5 548.5 c 128,-1,54
 410.5 544 410.5 544 415.5 544 c 256,55,56
 420.5 544 420.5 544 421.5 547.5 c 128,-1,57
 422.5 551 422.5 551 422.5 556 c 0,40,41
154.5 570 m 0,58,59
 158.5 579 158.5 579 164 585 c 128,-1,60
 169.5 591 169.5 591 169.5 598 c 0,61,62
 169.5 603 169.5 603 166.5 603 c 256,63,64
 163.5 603 163.5 603 157.5 600.5 c 128,-1,65
 151.5 598 151.5 598 146.5 590 c 0,66,67
 131.5 569 131.5 569 129.5 552 c 128,-1,68
 127.5 535 127.5 535 133.5 535 c 0,69,70
 138.5 535 138.5 535 144 545.5 c 128,-1,71
 149.5 556 149.5 556 154.5 570 c 0,58,59
223.5 48 m 0,72,73
 223.5 51 223.5 51 216 57 c 128,-1,74
 208.5 63 208.5 63 200.5 72 c 0,75,76
 192.5 80 192.5 80 182 93.5 c 128,-1,77
 171.5 107 171.5 107 164.5 122 c 0,78,79
 159.5 132 159.5 132 155 136 c 128,-1,80
 150.5 140 150.5 140 148.5 140 c 0,81,82
 144.5 140 144.5 140 144.5 133 c 0,83,84
 144.5 125 144.5 125 152.5 109.5 c 128,-1,85
 160.5 94 160.5 94 171.5 79 c 128,-1,86
 182.5 64 182.5 64 195 53 c 128,-1,87
 207.5 42 207.5 42 217.5 42 c 0,88,89
 223.5 42 223.5 42 223.5 48 c 0,72,73
246.5 39 m 0,90,91
 246.5 40 246.5 40 244 43 c 128,-1,92
 241.5 46 241.5 46 238.5 46 c 0,93,94
 233.5 45 233.5 45 231.5 42 c 128,-1,95
 229.5 39 229.5 39 229.5 37 c 0,96,97
 230.5 34 230.5 34 231.5 31.5 c 128,-1,98
 232.5 29 232.5 29 237.5 30 c 0,99,100
 246.5 30 246.5 30 246.5 39 c 0,90,91
EndSplineSet
EndChar

StartChar: V
Encoding: 86 86 62
Width: 620
Flags: W
LayerCount: 2
Fore
SplineSet
348.5 103 m 1,0,-1
 277.5 103 l 1,1,-1
 277.5 783 l 1,2,-1
 348.5 783 l 1,3,-1
 348.5 103 l 1,0,-1
265.5 0 m 1,4,-1
 39.5 545 l 1,5,-1
 39.5 599 l 1,6,-1
 580.5 599 l 1,7,-1
 580.5 544 l 1,8,-1
 355.5 0 l 1,9,-1
 265.5 0 l 1,4,-1
311.5 98 m 1,10,-1
 484.5 520 l 1,11,-1
 138.5 520 l 1,12,-1
 311.5 98 l 1,10,-1
EndSplineSet
EndChar

StartChar: W
Encoding: 87 87 63
Width: 620
Flags: W
LayerCount: 2
Fore
SplineSet
612.017578125 609.5 m 0,0,1
 611.517578125 578 611.517578125 578 591.017578125 568.5 c 0,2,3
 569.517578125 558 569.517578125 558 546.017578125 557.5 c 0,4,5
 510.517578125 557 510.517578125 557 301.017578125 556 c 128,-1,6
 91.517578125 555 91.517578125 555 61.017578125 555.5 c 4,7,8
 39.517578125 556 39.517578125 556 23.517578125 566 c 4,9,10
 8.517578125 575 8.517578125 575 8.017578125 599.5 c 4,11,12
 7.517578125 614 7.517578125 614 14.017578125 622 c 4,13,14
 19.517578125 630 19.517578125 630 29.017578125 635.5 c 4,15,16
 37.517578125 640 37.517578125 640 49.517578125 642.5 c 4,17,18
 61.517578125 644 61.517578125 644 72.017578125 644.5 c 4,19,20
 103.517578125 645 103.517578125 645 317.517578125 646 c 128,-1,21
 531.517578125 647 531.517578125 647 566.017578125 646.5 c 0,22,23
 583.517578125 646 583.517578125 646 597.517578125 639 c 128,-1,24
 611.517578125 632 611.517578125 632 612.017578125 609.5 c 0,0,1
26.017578125 580.5 m 4,25,26
 30.517578125 580 30.517578125 580 34.517578125 586 c 132,-1,27
 38.517578125 592 38.517578125 592 42.517578125 598 c 132,-1,28
 46.517578125 604 46.517578125 604 48.517578125 611 c 132,-1,29
 50.517578125 618 50.517578125 618 51.017578125 619.5 c 4,30,31
 50.517578125 624 50.517578125 624 50.517578125 627 c 132,-1,32
 50.517578125 630 50.517578125 630 45.017578125 630.5 c 4,33,34
 32.517578125 630 32.517578125 630 25.517578125 617 c 4,35,36
 19.517578125 607 19.517578125 607 19.017578125 593.5 c 4,37,38
 18.517578125 586 18.517578125 586 21.517578125 583 c 132,-1,39
 24.517578125 580 24.517578125 580 26.017578125 580.5 c 4,25,26
411.517578125 0 m 0,40,41
 388.517578125 0 388.517578125 0 372.017578125 6 c 128,-1,42
 355.517578125 12 355.517578125 12 344.017578125 23.5 c 128,-1,43
 332.517578125 35 332.517578125 35 324.517578125 51 c 0,44,45
 312.517578125 75 312.517578125 75 309.517578125 87 c 0,46,47
 308.517578125 91 308.517578125 91 307.517578125 97 c 128,-1,48
 306.517578125 103 306.517578125 103 305.017578125 109 c 128,-1,49
 303.517578125 115 303.517578125 115 302.017578125 119 c 128,-1,50
 300.517578125 123 300.517578125 123 298.517578125 123 c 256,51,52
 296.517578125 123 296.517578125 123 294.517578125 115.5 c 128,-1,53
 292.517578125 108 292.517578125 108 288.517578125 97 c 0,54,55
 278.517578125 71 278.517578125 71 269.517578125 52.5 c 128,-1,56
 260.517578125 34 260.517578125 34 249.017578125 22.5 c 128,-1,57
 237.517578125 11 237.517578125 11 223.517578125 5.5 c 128,-1,58
 209.517578125 0 209.517578125 0 189.517578125 0 c 0,59,60
 149.517578125 0 149.517578125 0 120.017578125 13.5 c 128,-1,61
 90.517578125 27 90.517578125 27 71.517578125 51.5 c 128,-1,62
 52.517578125 76 52.517578125 76 43.517578125 109.5 c 128,-1,63
 34.517578125 143 34.517578125 143 34.517578125 183 c 2,64,-1
 34.517578125 462 l 2,65,66
 34.517578125 472 34.517578125 472 37.517578125 485.5 c 128,-1,67
 40.517578125 499 40.517578125 499 47.517578125 511 c 128,-1,68
 54.517578125 523 54.517578125 523 66.017578125 531.5 c 128,-1,69
 77.517578125 540 77.517578125 540 95.517578125 540 c 0,70,71
 124.517578125 540 124.517578125 540 135.517578125 519.5 c 0,72,73
 146.400390625 499.21875 146.400390625 499.21875 146.517578125 467 c 2,74,-1
 147.517578125 193 l 2,75,76
 147.517578125 183 147.517578125 183 149.517578125 166.5 c 128,-1,77
 151.517578125 150 151.517578125 150 156.017578125 134 c 128,-1,78
 160.517578125 118 160.517578125 118 169.517578125 106.5 c 128,-1,79
 178.517578125 95 178.517578125 95 191.517578125 95 c 0,80,81
 214.517578125 95 214.517578125 95 228.017578125 129 c 128,-1,82
 241.517578125 163 241.517578125 163 248.517578125 219 c 128,-1,83
 255.517578125 275 255.517578125 275 257.017578125 308.5 c 128,-1,84
 258.517578125 342 258.517578125 342 258.517578125 418 c 0,85,86
 258.517578125 482 258.517578125 482 268.517578125 506.5 c 128,-1,87
 278.517578125 531 278.517578125 531 308.517578125 531 c 0,88,89
 322.517578125 531 322.517578125 531 331.517578125 526 c 128,-1,90
 340.517578125 521 340.517578125 521 346.517578125 505 c 128,-1,91
 352.517578125 489 352.517578125 489 355.017578125 459 c 128,-1,92
 357.517578125 429 357.517578125 429 357.517578125 379 c 0,93,94
 357.517578125 300 357.517578125 300 357.517578125 285.5 c 128,-1,95
 357.517578125 271 357.517578125 271 359.017578125 236.5 c 128,-1,96
 360.517578125 202 360.517578125 202 363.017578125 181.5 c 128,-1,97
 365.517578125 161 365.517578125 161 370.517578125 146 c 0,98,99
 379.517578125 117 379.517578125 117 389.517578125 105.5 c 128,-1,100
 399.517578125 94 399.517578125 94 412.517578125 94 c 0,101,102
 471.517578125 94 471.517578125 94 471.517578125 239 c 2,103,-1
 471.517578125 479 l 2,104,105
 471.517578125 490 471.517578125 490 473.517578125 501 c 128,-1,106
 475.517578125 512 475.517578125 512 481.017578125 520.5 c 128,-1,107
 486.517578125 529 486.517578125 529 496.517578125 534.5 c 128,-1,108
 506.517578125 540 506.517578125 540 521.517578125 540 c 0,109,110
 553.517578125 540 553.517578125 540 568.017578125 522.5 c 128,-1,111
 582.517578125 505 582.517578125 505 582.517578125 479 c 2,112,-1
 582.517578125 220 l 2,113,114
 582.517578125 178 582.517578125 178 571.017578125 138.5 c 128,-1,115
 559.517578125 99 559.517578125 99 538.017578125 68 c 128,-1,116
 516.517578125 37 516.517578125 37 484.517578125 18.5 c 128,-1,117
 452.517578125 0 452.517578125 0 411.517578125 0 c 0,40,41
59.517578125 455 m 0,118,119
 66.517578125 455 66.517578125 455 69.017578125 462 c 128,-1,120
 71.517578125 469 71.517578125 469 72.517578125 474 c 0,121,122
 74.517578125 488 74.517578125 488 83.517578125 497.5 c 0,123,124
 98.517578125 513 98.517578125 513 98.517578125 519 c 0,125,126
 98.517578125 521 98.517578125 521 96.517578125 524 c 128,-1,127
 94.517578125 527 94.517578125 527 91.517578125 527 c 0,128,129
 85.517578125 527 85.517578125 527 78.517578125 520.5 c 128,-1,130
 71.517578125 514 71.517578125 514 65.517578125 505 c 128,-1,131
 59.517578125 496 59.517578125 496 56.017578125 485.5 c 128,-1,132
 52.517578125 475 52.517578125 475 52.517578125 467 c 0,133,134
 52.517578125 463 52.517578125 463 53.517578125 459 c 128,-1,135
 54.517578125 455 54.517578125 455 59.517578125 455 c 0,118,119
504.517578125 473 m 0,136,137
 504.517578125 483 504.517578125 483 507.517578125 491 c 128,-1,138
 510.517578125 499 510.517578125 499 514.517578125 506 c 0,139,140
 519.517578125 514 519.517578125 514 518.517578125 519 c 128,-1,141
 517.517578125 524 517.517578125 524 514.517578125 524 c 0,142,143
 509.517578125 524 509.517578125 524 503.017578125 520.5 c 128,-1,144
 496.517578125 517 496.517578125 517 492.517578125 507 c 0,145,146
 487.517578125 491 487.517578125 491 489.017578125 476 c 128,-1,147
 490.517578125 461 490.517578125 461 498.517578125 461 c 0,148,149
 500.517578125 461 500.517578125 461 502.517578125 464.5 c 128,-1,150
 504.517578125 468 504.517578125 468 504.517578125 473 c 0,136,137
285.517578125 467 m 0,151,152
 285.517578125 468 285.517578125 468 287.517578125 477.5 c 128,-1,153
 289.517578125 487 289.517578125 487 292.517578125 493 c 0,154,155
 299.517578125 506 299.517578125 506 301.517578125 511 c 128,-1,156
 303.517578125 516 303.517578125 516 300.517578125 516 c 0,157,158
 298.517578125 516 298.517578125 516 293.017578125 514 c 128,-1,159
 287.517578125 512 287.517578125 512 282.517578125 505 c 0,160,161
 271.517578125 490 271.517578125 490 272.017578125 473 c 128,-1,162
 272.517578125 456 272.517578125 456 280.517578125 456 c 0,163,164
 285.517578125 456 285.517578125 456 285.517578125 467 c 0,151,152
136.517578125 37 m 0,165,166
 135.517578125 42 135.517578125 42 122.517578125 51 c 128,-1,167
 109.517578125 60 109.517578125 60 103.517578125 67 c 0,168,169
 92.517578125 78 92.517578125 78 88.017578125 89 c 128,-1,170
 83.517578125 100 83.517578125 100 78.517578125 99 c 0,171,172
 74.517578125 99 74.517578125 99 75.017578125 92 c 128,-1,173
 75.517578125 85 75.517578125 85 80.017578125 75 c 128,-1,174
 84.517578125 65 84.517578125 65 93.517578125 54 c 128,-1,175
 102.517578125 43 102.517578125 43 115.517578125 34 c 0,176,177
 124.517578125 27 124.517578125 27 131.517578125 29 c 0,178,179
 136.517578125 29 136.517578125 29 136.517578125 37 c 0,165,166
402.517578125 22 m 0,180,181
 402.517578125 26 402.517578125 26 399.017578125 27 c 128,-1,182
 395.517578125 28 395.517578125 28 392.517578125 28 c 0,183,184
 387.517578125 29 387.517578125 29 377.517578125 38 c 128,-1,185
 367.517578125 47 367.517578125 47 361.517578125 57 c 0,186,187
 351.517578125 72 351.517578125 72 343.517578125 74 c 0,188,189
 340.517578125 74 340.517578125 74 340.517578125 69 c 0,190,191
 340.517578125 67 340.517578125 67 344.017578125 59 c 128,-1,192
 347.517578125 51 347.517578125 51 354.517578125 42 c 128,-1,193
 361.517578125 33 361.517578125 33 371.017578125 25.5 c 128,-1,194
 380.517578125 18 380.517578125 18 391.517578125 17 c 0,195,196
 395.517578125 17 395.517578125 17 398.517578125 17 c 128,-1,197
 401.517578125 17 401.517578125 17 402.517578125 22 c 0,180,181
EndSplineSet
EndChar

StartChar: X
Encoding: 88 88 64
Width: 620
Flags: W
LayerCount: 2
Fore
SplineSet
396.534179688 174.834960938 m 0,0,1
 406.138671875 166.602539062 406.138671875 166.602539062 419.790039062 152.40234375 c 128,-1,2
 433.44140625 138.202148438 433.44140625 138.202148438 446.081054688 125.494140625 c 128,-1,3
 458.720703125 112.786132812 458.720703125 112.786132812 468.975585938 104.829101562 c 128,-1,4
 479.231445312 96.87109375 479.231445312 96.87109375 482.043945312 101.124023438 c 0,5,6
 483.725585938 102.598632812 483.725585938 102.598632812 485.611328125 107.229492188 c 128,-1,7
 487.498046875 111.860351562 487.498046875 111.860351562 484 116.524414062 c 0,8,9
 481.049804688 119.885742188 481.049804688 119.885742188 471 131 c 128,-1,10
 460.950195312 142.112304688 460.950195312 142.112304688 449.047851562 153.98046875 c 128,-1,11
 437.146484375 165.84765625 437.146484375 165.84765625 425.604492188 175.94921875 c 128,-1,12
 414.061523438 186.05078125 414.061523438 186.05078125 408.505859375 188.313476562 c 0,13,14
 402.0234375 190.955078125 402.0234375 190.955078125 397.340820312 184.764648438 c 128,-1,15
 392.659179688 178.573242188 392.659179688 178.573242188 396.534179688 174.834960938 c 0,0,1
139.453125 485.340820312 m 0,16,17
 149.057617188 477.108398438 149.057617188 477.108398438 162.708984375 462.908203125 c 128,-1,18
 176.360351562 448.708007812 176.360351562 448.708007812 189 436 c 128,-1,19
 201.639648438 423.291992188 201.639648438 423.291992188 211.89453125 415.334960938 c 128,-1,20
 222.150390625 407.376953125 222.150390625 407.376953125 224.962890625 411.629882812 c 0,21,22
 226.64453125 413.104492188 226.64453125 413.104492188 228.530273438 417.735351562 c 128,-1,23
 230.416992188 422.366210938 230.416992188 422.366210938 226.918945312 427.030273438 c 0,24,25
 223.96875 430.391601562 223.96875 430.391601562 213.918945312 441.505859375 c 128,-1,26
 203.869140625 452.618164062 203.869140625 452.618164062 191.966796875 464.486328125 c 128,-1,27
 180.065429688 476.353515625 180.065429688 476.353515625 168.5234375 486.455078125 c 128,-1,28
 156.98046875 496.556640625 156.98046875 496.556640625 151.424804688 498.819335938 c 0,29,30
 144.942382812 501.4609375 144.942382812 501.4609375 140.259765625 495.270507812 c 128,-1,31
 135.578125 489.079101562 135.578125 489.079101562 139.453125 485.340820312 c 0,16,17
402.004882812 411.383789062 m 0,32,33
 410.94921875 420.328125 410.94921875 420.328125 426.154296875 432.850585938 c 128,-1,34
 441.360351562 445.372070312 441.360351562 445.372070312 455 457 c 128,-1,35
 468.639648438 468.627929688 468.639648438 468.627929688 477.360351562 478.2421875 c 128,-1,36
 486.081054688 487.857421875 486.081054688 487.857421875 482.056640625 490.98828125 c 0,37,38
 480.71484375 492.77734375 480.71484375 492.77734375 476.2421875 495.012695312 c 128,-1,39
 471.770507812 497.249023438 471.770507812 497.249023438 466.8515625 494.119140625 c 0,40,41
 463.2734375 491.435546875 463.2734375 491.435546875 451.421875 482.267578125 c 128,-1,42
 439.571289062 473.099609375 439.571289062 473.099609375 426.825195312 462.142578125 c 128,-1,43
 414.080078125 451.186523438 414.080078125 451.186523438 403.123046875 440.453125 c 128,-1,44
 392.166015625 429.719726562 392.166015625 429.719726562 389.483398438 424.353515625 c 0,45,46
 386.352539062 418.092773438 386.352539062 418.092773438 392.166015625 412.94921875 c 128,-1,47
 397.98046875 407.806640625 397.98046875 407.806640625 402.004882812 411.383789062 c 0,32,33
128.004882812 123.383789062 m 0,48,49
 136.94921875 132.328125 136.94921875 132.328125 152.154296875 144.850585938 c 128,-1,50
 167.360351562 157.372070312 167.360351562 157.372070312 181 169 c 128,-1,51
 194.639648438 180.627929688 194.639648438 180.627929688 203.360351562 190.2421875 c 128,-1,52
 212.081054688 199.857421875 212.081054688 199.857421875 208.056640625 202.98828125 c 0,53,54
 206.71484375 204.77734375 206.71484375 204.77734375 202.2421875 207.012695312 c 128,-1,55
 197.770507812 209.249023438 197.770507812 209.249023438 192.8515625 206.119140625 c 0,56,57
 189.2734375 203.435546875 189.2734375 203.435546875 177.421875 194.267578125 c 128,-1,58
 165.571289062 185.099609375 165.571289062 185.099609375 152.825195312 174.142578125 c 128,-1,59
 140.080078125 163.186523438 140.080078125 163.186523438 129.123046875 152.453125 c 128,-1,60
 118.166015625 141.719726562 118.166015625 141.719726562 115.483398438 136.353515625 c 0,61,62
 112.352539062 130.092773438 112.352539062 130.092773438 118.166015625 124.94921875 c 128,-1,63
 123.98046875 119.806640625 123.98046875 119.806640625 128.004882812 123.383789062 c 0,48,49
128.004882812 123.383789062 m 0,64,65
 136.94921875 132.328125 136.94921875 132.328125 152.154296875 144.850585938 c 128,-1,66
 167.360351562 157.372070312 167.360351562 157.372070312 181 169 c 128,-1,67
 194.639648438 180.627929688 194.639648438 180.627929688 203.360351562 190.2421875 c 128,-1,68
 212.081054688 199.857421875 212.081054688 199.857421875 208.056640625 202.98828125 c 0,69,70
 206.71484375 204.77734375 206.71484375 204.77734375 202.2421875 207.012695312 c 128,-1,71
 197.770507812 209.249023438 197.770507812 209.249023438 192.8515625 206.119140625 c 0,72,73
 189.2734375 203.435546875 189.2734375 203.435546875 177.421875 194.267578125 c 128,-1,74
 165.571289062 185.099609375 165.571289062 185.099609375 152.825195312 174.142578125 c 128,-1,75
 140.080078125 163.186523438 140.080078125 163.186523438 129.123046875 152.453125 c 128,-1,76
 118.166015625 141.719726562 118.166015625 141.719726562 115.483398438 136.353515625 c 0,77,78
 112.352539062 130.092773438 112.352539062 130.092773438 118.166015625 124.94921875 c 128,-1,79
 123.98046875 119.806640625 123.98046875 119.806640625 128.004882812 123.383789062 c 0,64,65
149 71 m 1,80,-1
 80 140 l 1,81,-1
 241 301 l 1,82,-1
 80 462 l 1,83,-1
 149 531 l 1,84,-1
 310 370 l 1,85,-1
 471 531 l 1,86,-1
 540 462 l 1,87,-1
 379 301 l 1,88,-1
 540 140 l 1,89,-1
 471 71 l 1,90,-1
 310 232 l 1,91,-1
 149 71 l 1,80,-1
EndSplineSet
EndChar

StartChar: Y
Encoding: 89 89 65
Width: 620
Flags: W
LayerCount: 2
Fore
SplineSet
310.36328125 0 m 0,0,1
 284.36328125 0 284.36328125 0 270.86328125 16.5 c 128,-1,2
 257.36328125 33 257.36328125 33 257.36328125 52 c 2,3,-1
 257.36328125 191 l 2,4,5
 257.36328125 204 257.36328125 204 255.86328125 214.5 c 128,-1,6
 254.36328125 225 254.36328125 225 250.86328125 236 c 128,-1,7
 247.36328125 247 247.36328125 247 241.36328125 260.5 c 128,-1,8
 235.36328125 274 235.36328125 274 226.36328125 294 c 2,9,-1
 107.36328125 556 l 2,10,11
 104.36328125 563 104.36328125 563 106.86328125 573.5 c 128,-1,12
 109.36328125 584 109.36328125 584 116.86328125 593.5 c 128,-1,13
 124.36328125 603 124.36328125 603 136.36328125 609.5 c 128,-1,14
 148.36328125 616 148.36328125 616 164.36328125 616 c 0,15,16
 173.36328125 616 173.36328125 616 181.86328125 611.5 c 128,-1,17
 190.36328125 607 190.36328125 607 195.36328125 595 c 2,18,-1
 288.36328125 377 l 2,19,20
 293.36328125 366 293.36328125 366 299.86328125 354 c 128,-1,21
 306.36328125 342 306.36328125 342 312.36328125 342 c 256,22,23
 318.36328125 342 318.36328125 342 324.36328125 351.5 c 128,-1,24
 330.36328125 361 330.36328125 361 337.36328125 377 c 2,25,-1
 437.36328125 600 l 2,26,27
 442.36328125 611 442.36328125 611 452.36328125 613.5 c 128,-1,28
 462.36328125 616 462.36328125 616 469.36328125 616 c 0,29,30
 482.36328125 616 482.36328125 616 491.86328125 609 c 128,-1,31
 501.36328125 602 501.36328125 602 506.86328125 592 c 128,-1,32
 512.36328125 582 512.36328125 582 513.86328125 571 c 128,-1,33
 515.36328125 560 515.36328125 560 511.36328125 552 c 2,34,-1
 386.36328125 281 l 2,35,36
 379.36328125 266 379.36328125 266 375.36328125 255.5 c 128,-1,37
 371.36328125 245 371.36328125 245 369.86328125 234 c 128,-1,38
 368.36328125 223 368.36328125 223 367.86328125 209.5 c 128,-1,39
 367.36328125 196 367.36328125 196 367.36328125 174 c 2,40,-1
 367.36328125 52 l 2,41,42
 367.36328125 37 367.36328125 37 361.86328125 27 c 128,-1,43
 356.36328125 17 356.36328125 17 347.86328125 11 c 128,-1,44
 339.36328125 5 339.36328125 5 329.36328125 2.5 c 128,-1,45
 319.36328125 0 319.36328125 0 310.36328125 0 c 0,0,1
138.36328125 551 m 0,46,47
 136.36328125 559 136.36328125 559 136.86328125 564.5 c 128,-1,48
 137.36328125 570 137.36328125 570 136.36328125 575 c 256,49,50
 135.36328125 580 135.36328125 580 133.36328125 584 c 128,-1,51
 131.36328125 588 131.36328125 588 129.36328125 587 c 0,52,53
 118.36328125 582 118.36328125 582 119.86328125 568 c 128,-1,54
 121.36328125 554 121.36328125 554 124.36328125 546 c 0,55,56
 129.36328125 535 129.36328125 535 136.36328125 537 c 0,57,58
 140.36328125 539 140.36328125 539 140.36328125 543 c 128,-1,59
 140.36328125 547 140.36328125 547 138.36328125 551 c 0,46,47
294.36328125 33 m 0,60,61
 292.36328125 37 292.36328125 37 288.86328125 47 c 128,-1,62
 285.36328125 57 285.36328125 57 283.36328125 74 c 0,63,64
 282.36328125 97 282.36328125 97 278.36328125 97 c 0,65,66
 277.36328125 97 277.36328125 97 275.36328125 93.5 c 128,-1,67
 273.36328125 90 273.36328125 90 272.36328125 81 c 0,68,69
 270.36328125 49 270.36328125 49 277.86328125 35 c 128,-1,70
 285.36328125 21 285.36328125 21 294.36328125 21 c 0,71,72
 298.36328125 21 298.36328125 21 297.36328125 24.5 c 128,-1,73
 296.36328125 28 296.36328125 28 294.36328125 33 c 0,60,61
EndSplineSet

EndChar

StartChar: Z
Encoding: 90 90 66
Width: 620
Flags: W
LayerCount: 2
Fore
SplineSet
209.5 0 m 2,0,1
 198.5 0 198.5 0 186 2.5 c 128,-1,2
 173.5 5 173.5 5 163.5 11.5 c 128,-1,3
 153.5 18 153.5 18 147 28.5 c 128,-1,4
 140.5 39 140.5 39 140.5 55 c 0,5,6
 140.5 65 140.5 65 142 76 c 128,-1,7
 143.5 87 143.5 87 151.5 102 c 2,8,-1
 232.5 262 l 1,9,-1
 208.5 262 l 2,10,11
 193.5 262 193.5 262 185.5 273 c 128,-1,12
 177.5 284 177.5 284 177.5 301 c 256,13,14
 177.5 318 177.5 318 184 328 c 128,-1,15
 190.5 338 190.5 338 208.5 338 c 2,16,-1
 270.5 338 l 1,17,-1
 359.5 513 l 2,18,19
 362.5 519 362.5 519 362.5 525 c 0,20,21
 361.5 531 361.5 531 351.5 531 c 2,22,-1
 173.5 533 l 2,23,24
 160.5 533 160.5 533 152 543.5 c 128,-1,25
 143.5 554 143.5 554 143.5 569 c 0,26,27
 143.5 598 143.5 598 158 608 c 128,-1,28
 172.5 618 172.5 618 191.5 618 c 2,29,-1
 437.5 616 l 2,30,31
 449.5 616 449.5 616 457.5 609.5 c 128,-1,32
 465.5 603 465.5 603 470 593.5 c 128,-1,33
 474.5 584 474.5 584 476.5 572 c 128,-1,34
 478.5 560 478.5 560 478.5 548 c 0,35,36
 478.5 518 478.5 518 463.5 488 c 2,37,-1
 384.5 338 l 1,38,-1
 414.5 338 l 2,39,40
 432.5 338 432.5 338 440 329.5 c 128,-1,41
 447.5 321 447.5 321 447.5 307 c 0,42,43
 447.5 287 447.5 287 441 274.5 c 128,-1,44
 434.5 262 434.5 262 418.5 262 c 2,45,-1
 344.5 262 l 1,46,-1
 289.5 158 l 2,47,48
 277.5 135 277.5 135 271 121.5 c 128,-1,49
 264.5 108 264.5 108 264.5 100 c 0,50,51
 264.5 87 264.5 87 292.5 87 c 2,52,-1
 440.5 86 l 2,53,54
 460.5 86 460.5 86 470 72 c 128,-1,55
 479.5 58 479.5 58 479.5 35 c 0,56,57
 479.5 21 479.5 21 470 10.5 c 128,-1,58
 460.5 0 460.5 0 452.5 0 c 2,59,-1
 209.5 0 l 2,0,1
173.5 574 m 0,60,61
 175.5 578 175.5 578 179.5 585 c 128,-1,62
 183.5 592 183.5 592 182.5 595 c 0,63,64
 182.5 597 182.5 597 179 599.5 c 128,-1,65
 175.5 602 175.5 602 173.5 602 c 0,66,67
 162.5 600 162.5 600 159.5 586 c 128,-1,68
 156.5 572 156.5 572 158.5 560 c 0,69,70
 158.5 558 158.5 558 160.5 555 c 128,-1,71
 162.5 552 162.5 552 164.5 552 c 0,72,73
 168.5 553 168.5 553 170.5 562.5 c 128,-1,74
 172.5 572 172.5 572 173.5 574 c 0,60,61
200.5 306 m 0,75,76
 200.5 311 200.5 311 203.5 318.5 c 128,-1,77
 206.5 326 206.5 326 201.5 326 c 256,78,79
 196.5 326 196.5 326 191.5 318.5 c 128,-1,80
 186.5 311 186.5 311 186.5 300 c 0,81,82
 186.5 293 186.5 293 189 285.5 c 128,-1,83
 191.5 278 191.5 278 196.5 278 c 256,84,85
 201.5 278 201.5 278 201 287.5 c 128,-1,86
 200.5 297 200.5 297 200.5 306 c 0,75,76
166.5 49 m 0,87,88
 170.5 49 170.5 49 174.5 57.5 c 128,-1,89
 178.5 66 178.5 66 182.5 77.5 c 128,-1,90
 186.5 89 186.5 89 189 100.5 c 128,-1,91
 191.5 112 191.5 112 191.5 117 c 0,92,93
 191.5 121 191.5 121 187.5 121 c 0,94,95
 182.5 121 182.5 121 177.5 114 c 128,-1,96
 172.5 107 172.5 107 168 99 c 128,-1,97
 163.5 91 163.5 91 160.5 82.5 c 128,-1,98
 157.5 74 157.5 74 157.5 71 c 0,99,100
 156.5 63 156.5 63 159 56 c 128,-1,101
 161.5 49 161.5 49 166.5 49 c 0,87,88
181.5 27 m 0,102,103
 181.5 34 181.5 34 176.5 34 c 0,104,105
 167.5 34 167.5 34 167.5 25 c 0,106,107
 167.5 19 167.5 19 172.5 19 c 0,108,109
 175.5 19 175.5 19 178.5 21.5 c 128,-1,110
 181.5 24 181.5 24 181.5 27 c 0,102,103
EndSplineSet
EndChar

StartChar: a
Encoding: 97 97 67
Width: 620
Flags: W
LayerCount: 2
Fore
SplineSet
316 621 m 0,0,1
 348 621 348 621 369 611 c 128,-1,2
 390 601 390 601 398 587 c 0,3,4
 404 575 404 575 415.5 534 c 128,-1,5
 427 493 427 493 440.5 437 c 128,-1,6
 454 381 454 381 468.5 318 c 128,-1,7
 483 255 483 255 495 199 c 128,-1,8
 507 143 507 143 514.5 101.5 c 128,-1,9
 522 60 522 60 522 48 c 0,10,11
 522 28 522 28 501 12.5 c 128,-1,12
 480 -3 480 -3 456 -3 c 256,13,14
 432 -3 432 -3 423 11 c 0,15,16
 419 17 419 17 413 32 c 128,-1,17
 407 47 407 47 401 67 c 128,-1,18
 395 87 395 87 389.5 109 c 128,-1,19
 384 131 384 131 380 152 c 0,20,21
 376 172 376 172 368.5 176.5 c 128,-1,22
 361 181 361 181 351 181 c 0,23,24
 322 181 322 181 300 181.5 c 128,-1,25
 278 182 278 182 267 182 c 0,26,27
 247 182 247 182 237.5 177.5 c 128,-1,28
 228 173 228 173 225 162 c 2,29,-1
 199 62 l 2,30,31
 191 33 191 33 173.5 15.5 c 128,-1,32
 156 -2 156 -2 134 -2 c 0,33,34
 98 -2 98 -2 98 48 c 0,35,36
 98 65 98 65 102 95.5 c 128,-1,37
 106 126 106 126 112.5 164.5 c 128,-1,38
 119 203 119 203 128.5 246.5 c 128,-1,39
 138 290 138 290 148.5 334.5 c 128,-1,40
 159 379 159 379 170 421 c 128,-1,41
 181 463 181 463 192 497 c 0,42,43
 204 535 204 535 216.5 559 c 128,-1,44
 229 583 229 583 243 597 c 128,-1,45
 257 611 257 611 274.5 616 c 128,-1,46
 292 621 292 621 316 621 c 0,0,1
255 561 m 0,47,48
 266 574 266 574 275 585.5 c 128,-1,49
 284 597 284 597 277 598 c 0,50,51
 261 601 261 601 245 579 c 0,52,53
 234 562 234 562 229 543 c 128,-1,54
 224 524 224 524 232 522 c 0,55,56
 234 522 234 522 236 525.5 c 128,-1,57
 238 529 238 529 240 535 c 128,-1,58
 242 541 242 541 245.5 548 c 128,-1,59
 249 555 249 555 255 561 c 0,47,48
271 377 m 0,60,61
 260 320 260 320 256.5 298.5 c 128,-1,62
 253 277 253 277 262 277 c 2,63,-1
 350 277 l 2,64,65
 358 277 358 277 354 296.5 c 128,-1,66
 350 316 350 316 342 357 c 0,67,68
 340 368 340 368 337 393.5 c 128,-1,69
 334 419 334 419 329.5 445 c 128,-1,70
 325 471 325 471 320 491.5 c 128,-1,71
 315 512 315 512 309 512 c 0,72,73
 304 512 304 512 298 494 c 128,-1,74
 292 476 292 476 286.5 452.5 c 128,-1,75
 281 429 281 429 277 407 c 128,-1,76
 273 385 273 385 271 377 c 0,60,61
130 63 m 0,77,78
 132 75 132 75 130 82 c 128,-1,79
 128 89 128 89 124 90 c 0,80,81
 122 90 122 90 119.5 87.5 c 128,-1,82
 117 85 117 85 115 77 c 0,83,84
 111 57 111 57 114 38.5 c 128,-1,85
 117 20 117 20 125 18 c 0,86,87
 135 16 135 16 129 33 c 0,88,89
 127 39 127 39 127.5 46.5 c 128,-1,90
 128 54 128 54 130 63 c 0,77,78
435 64 m 0,91,92
 428 78 428 78 426 83 c 128,-1,93
 424 88 424 88 422 88 c 0,94,95
 419 88 419 88 417 78 c 0,96,97
 417 74 417 74 419.5 63.5 c 128,-1,98
 422 53 422 53 426 42.5 c 128,-1,99
 430 32 430 32 435.5 24 c 128,-1,100
 441 16 441 16 446 16 c 0,101,102
 449 16 449 16 449 21 c 128,-1,103
 449 26 449 26 446.5 34 c 128,-1,104
 444 42 444 42 441 50 c 128,-1,105
 438 58 438 58 435 64 c 0,91,92
EndSplineSet
EndChar

StartChar: b
Encoding: 98 98 68
Width: 620
Flags: W
LayerCount: 2
Fore
SplineSet
49 248 m 1,0,1
 64 271 64 271 86 292.5 c 128,-1,2
 108 314 108 314 136 332 c 128,-1,3
 164 350 164 350 197 361 c 1,4,-1
 204 343 l 1,5,6
 161 358 161 358 130 384 c 128,-1,7
 99 410 99 410 83 452 c 128,-1,8
 67 494 67 494 67 555 c 1,9,-1
 103 551 l 1,10,-1
 41 551 l 1,11,-1
 41 622 l 1,12,-1
 559 622 l 1,13,-1
 559 551 l 1,14,-1
 113 551 l 1,15,-1
 149 554 l 1,16,17
 149 511 149 511 158.5 477.5 c 128,-1,18
 168 444 168 444 190 423 c 0,19,20
 208 407 208 407 232.5 399.5 c 128,-1,21
 257 392 257 392 304 392 c 2,22,-1
 464 392 l 1,23,-1
 462 322 l 1,24,-1
 321 322 l 2,25,26
 280 322 280 322 246 312 c 128,-1,27
 212 302 212 302 183 281 c 128,-1,28
 154 260 154 260 128 225 c 1,29,-1
 130 268 l 1,30,31
 150 226 150 226 176 198 c 128,-1,32
 202 170 202 170 236.5 156.5 c 128,-1,33
 271 143 271 143 315 143 c 0,34,35
 353 143 353 143 388 151 c 128,-1,36
 423 159 423 159 454 176 c 1,37,-1
 460 100 l 1,38,39
 428 85 428 85 392 77 c 128,-1,40
 356 69 356 69 315 69 c 0,41,42
 248 69 248 69 197 92.5 c 128,-1,43
 146 116 146 116 109.5 156.5 c 128,-1,44
 73 197 73 197 49 248 c 1,0,1
446 0 m 1,45,-1
 446 551 l 1,46,-1
 350 551 l 1,47,-1
 350 622 l 1,48,-1
 579 622 l 1,49,-1
 579 551 l 1,50,-1
 527 551 l 1,51,-1
 527 0 l 1,52,-1
 446 0 l 1,45,-1
EndSplineSet
EndChar

StartChar: c
Encoding: 99 99 69
Width: 620
Flags: W
LayerCount: 2
Fore
SplineSet
419 17 m 0,0,1
 301 17 301 17 236 84 c 128,-1,2
 171 151 171 151 171 272 c 0,3,4
 171 352 171 352 200 407.5 c 128,-1,5
 229 463 229 463 283 492 c 1,6,-1
 55 492 l 1,7,-1
 55 564 l 1,8,-1
 565 564 l 1,9,-1
 565 492 l 1,10,-1
 463 492 l 2,11,12
 369 492 369 492 315.5 438.5 c 128,-1,13
 262 385 262 385 262 279 c 0,14,15
 262 192 262 192 305 141.5 c 128,-1,16
 348 91 348 91 428 91 c 0,17,18
 465 91 465 91 499 100.5 c 128,-1,19
 533 110 533 110 565 126 c 1,20,-1
 565 48 l 1,21,22
 536 32 536 32 501 24.5 c 128,-1,23
 466 17 466 17 419 17 c 0,0,1
EndSplineSet
EndChar

StartChar: d
Encoding: 100 100 70
Width: 620
Flags: W
LayerCount: 2
Fore
SplineSet
267 0 m 0,0,1
 193 0 193 0 145.5 15.5 c 128,-1,2
 98 31 98 31 75.5 59.5 c 128,-1,3
 53 88 53 88 53 127 c 0,4,5
 53 157 53 157 69 182 c 128,-1,6
 85 207 85 207 116.5 222 c 128,-1,7
 148 237 148 237 196 237 c 0,8,9
 254 237 254 237 300.5 217 c 128,-1,10
 347 197 347 197 383 165.5 c 128,-1,11
 419 134 419 134 442 101 c 1,12,-1
 380 67 l 1,13,14
 348 104 348 104 302 135 c 128,-1,15
 256 166 256 166 200 166 c 0,16,17
 167 166 167 166 150.5 155 c 128,-1,18
 134 144 134 144 134 125 c 0,19,20
 134 97 134 97 167.5 83 c 128,-1,21
 201 69 201 69 266 69 c 0,22,23
 302 69 302 69 339.5 74 c 128,-1,24
 377 79 377 79 408.5 93 c 128,-1,25
 440 107 440 107 459.5 133 c 128,-1,26
 479 159 479 159 479 202 c 0,27,28
 479 243 479 243 448 276 c 128,-1,29
 417 309 417 309 367 324 c 1,30,31
 344 320 344 320 314.5 316 c 128,-1,32
 285 312 285 312 254 312 c 0,33,34
 209 312 209 312 185 320.5 c 128,-1,35
 161 329 161 329 152 342 c 128,-1,36
 143 355 143 355 143 369 c 0,37,38
 143 398 143 398 168.5 408.5 c 128,-1,39
 194 419 194 419 230 419 c 0,40,41
 270 419 270 419 305.5 412.5 c 128,-1,42
 341 406 341 406 375 393 c 1,43,44
 410 407 410 407 432.5 436 c 128,-1,45
 455 465 455 465 455 512 c 0,46,47
 455 526 455 526 452.5 542.5 c 128,-1,48
 450 559 450 559 443 578 c 1,49,-1
 476 551 l 1,50,-1
 90 551 l 1,51,-1
 90 622 l 1,52,-1
 567 622 l 1,53,-1
 567 551 l 1,54,-1
 505 551 l 1,55,-1
 528 576 l 1,56,57
 532 560 532 560 534 543 c 128,-1,58
 536 526 536 526 536 511 c 0,59,60
 536 449 536 449 511.5 416.5 c 128,-1,61
 487 384 487 384 450 362 c 1,62,63
 506 333 506 333 533.5 293 c 128,-1,64
 561 253 561 253 561 199 c 0,65,66
 561 149 561 149 539.5 111.5 c 128,-1,67
 518 74 518 74 479 49.5 c 128,-1,68
 440 25 440 25 386 12.5 c 128,-1,69
 332 0 332 0 267 0 c 0,0,1
EndSplineSet
EndChar

StartChar: e
Encoding: 101 101 71
Width: 620
Flags: W
LayerCount: 2
Fore
SplineSet
326.83984375 -10 m 0,0,1
 281.83984375 -10 281.83984375 -10 245.33984375 11.5 c 128,-1,2
 208.83984375 33 208.83984375 33 182.83984375 73 c 128,-1,3
 156.83984375 113 156.83984375 113 142.33984375 168.5 c 128,-1,4
 127.83984375 224 127.83984375 224 127.83984375 292 c 0,5,6
 127.83984375 364 127.83984375 364 143.83984375 424.5 c 128,-1,7
 159.83984375 485 159.83984375 485 188.33984375 529.5 c 128,-1,8
 216.83984375 574 216.83984375 574 256.33984375 598.5 c 128,-1,9
 295.83984375 623 295.83984375 623 341.83984375 623 c 0,10,11
 375.83984375 623 375.83984375 623 404.33984375 610 c 128,-1,12
 432.83984375 597 432.83984375 597 452.83984375 573.5 c 128,-1,13
 472.83984375 550 472.83984375 550 483.33984375 518.5 c 128,-1,14
 493.83984375 487 493.83984375 487 491.83984375 450 c 0,15,16
 489.83984375 407 489.83984375 407 471.83984375 366.5 c 128,-1,17
 453.83984375 326 453.83984375 326 423.83984375 295 c 128,-1,18
 393.83984375 264 393.83984375 264 354.33984375 245.5 c 128,-1,19
 314.83984375 227 314.83984375 227 269.83984375 227 c 0,20,21
 252.83984375 227 252.83984375 227 252.83984375 213 c 0,22,23
 252.83984375 149 252.83984375 149 275.33984375 118.5 c 128,-1,24
 297.83984375 88 297.83984375 88 332.83984375 88 c 0,25,26
 358.83984375 88 358.83984375 88 376.33984375 107 c 128,-1,27
 393.83984375 126 393.83984375 126 393.83984375 155 c 0,28,29
 393.83984375 179 393.83984375 179 406.83984375 193.5 c 128,-1,30
 419.83984375 208 419.83984375 208 439.83984375 208 c 0,31,32
 462.83984375 208 462.83984375 208 476.33984375 189.5 c 128,-1,33
 489.83984375 171 489.83984375 171 489.83984375 139 c 0,34,35
 489.83984375 109 489.83984375 109 476.83984375 81.5 c 128,-1,36
 463.83984375 54 463.83984375 54 441.83984375 34 c 128,-1,37
 419.83984375 14 419.83984375 14 389.83984375 2 c 128,-1,38
 359.83984375 -10 359.83984375 -10 326.83984375 -10 c 0,0,1
196.83984375 477 m 0,39,40
 199.83984375 477 199.83984375 477 209.33984375 491.5 c 128,-1,41
 218.83984375 506 218.83984375 506 231.83984375 523.5 c 128,-1,42
 244.83984375 541 244.83984375 541 259.83984375 556.5 c 128,-1,43
 274.83984375 572 274.83984375 572 289.83984375 573 c 0,44,45
 294.83984375 574 294.83984375 574 299.33984375 576.5 c 128,-1,46
 303.83984375 579 303.83984375 579 302.83984375 582 c 0,47,48
 302.83984375 592 302.83984375 592 289.83984375 590 c 0,49,50
 272.83984375 589 272.83984375 589 255.33984375 576 c 128,-1,51
 237.83984375 563 237.83984375 563 223.33984375 545.5 c 128,-1,52
 208.83984375 528 208.83984375 528 199.83984375 510 c 128,-1,53
 190.83984375 492 190.83984375 492 191.83984375 481 c 0,54,55
 193.83984375 474 193.83984375 474 196.83984375 477 c 0,39,40
249.83984375 315 m 0,56,57
 252.83984375 311 252.83984375 311 263.83984375 311 c 0,58,59
 289.83984375 311 289.83984375 311 313.83984375 324 c 128,-1,60
 337.83984375 337 337.83984375 337 355.83984375 357 c 128,-1,61
 373.83984375 377 373.83984375 377 384.83984375 403 c 128,-1,62
 395.83984375 429 395.83984375 429 395.83984375 454 c 0,63,64
 395.83984375 486 395.83984375 486 380.33984375 507 c 128,-1,65
 364.83984375 528 364.83984375 528 341.83984375 528 c 0,66,67
 324.83984375 528 324.83984375 528 310.33984375 513.5 c 128,-1,68
 295.83984375 499 295.83984375 499 284.33984375 477.5 c 128,-1,69
 272.83984375 456 272.83984375 456 264.83984375 429.5 c 128,-1,70
 256.83984375 403 256.83984375 403 252.33984375 379.5 c 128,-1,71
 247.83984375 356 247.83984375 356 246.83984375 338 c 128,-1,72
 245.83984375 320 245.83984375 320 249.83984375 315 c 0,56,57
183.83984375 467 m 0,73,74
 178.83984375 466 178.83984375 466 175.83984375 459.5 c 128,-1,75
 172.83984375 453 172.83984375 453 173.83984375 445 c 0,76,77
 175.83984375 436 175.83984375 436 177.83984375 437 c 0,78,79
 182.83984375 437 182.83984375 437 186.83984375 446 c 128,-1,80
 190.83984375 455 190.83984375 455 188.83984375 462 c 0,81,82
 186.83984375 468 186.83984375 468 183.83984375 467 c 0,73,74
EndSplineSet
EndChar

StartChar: f
Encoding: 102 102 72
Width: 620
Flags: W
LayerCount: 2
Fore
SplineSet
359 0 m 0,0,1
 294 0 294 0 239 20 c 128,-1,2
 184 40 184 40 144 76.5 c 128,-1,3
 104 113 104 113 82 161 c 128,-1,4
 60 209 60 209 60 264 c 0,5,6
 60 299 60 299 72 327.5 c 128,-1,7
 84 356 84 356 105 374 c 0,8,9
 124 390 124 390 146.5 400 c 128,-1,10
 169 410 169 410 203.5 415 c 128,-1,11
 238 420 238 420 291 420 c 2,12,-1
 431 420 l 1,13,-1
 431 551 l 1,14,-1
 100 551 l 1,15,-1
 100 622 l 1,16,-1
 555 622 l 1,17,-1
 555 551 l 1,18,-1
 512 551 l 1,19,-1
 512 378 l 1,20,-1
 483 349 l 1,21,-1
 302 349 l 2,22,23
 262 349 262 349 236 346 c 128,-1,24
 210 343 210 343 193.5 337 c 128,-1,25
 177 331 177 331 164 320 c 0,26,27
 151 310 151 310 146 294 c 128,-1,28
 141 278 141 278 141 259 c 0,29,30
 141 219 141 219 157.5 184 c 128,-1,31
 174 149 174 149 204 123.5 c 128,-1,32
 234 98 234 98 275 83.5 c 128,-1,33
 316 69 316 69 364 69 c 0,34,35
 423 69 423 69 451.5 82.5 c 128,-1,36
 480 96 480 96 480 124 c 0,37,38
 480 143 480 143 463 154.5 c 128,-1,39
 446 166 446 166 411 166 c 0,40,41
 373 166 373 166 339 151.5 c 128,-1,42
 305 137 305 137 277 114.5 c 128,-1,43
 249 92 249 92 227 67 c 1,44,-1
 167 100 l 1,45,46
 192 133 192 133 227.5 164.5 c 128,-1,47
 263 196 263 196 310.5 216.5 c 128,-1,48
 358 237 358 237 419 237 c 0,49,50
 468 237 468 237 499 222 c 128,-1,51
 530 207 530 207 545 182 c 128,-1,52
 560 157 560 157 560 127 c 0,53,54
 560 98 560 98 549 74.5 c 128,-1,55
 538 51 538 51 514 34.5 c 128,-1,56
 490 18 490 18 452 9 c 128,-1,57
 414 0 414 0 359 0 c 0,0,1
EndSplineSet
EndChar

StartChar: g
Encoding: 103 103 73
Width: 620
Flags: W
LayerCount: 2
Fore
SplineSet
329.5 -5 m 0,0,1
 262.5 -5 262.5 -5 218.5 28 c 128,-1,2
 174.5 61 174.5 61 148.5 111 c 128,-1,3
 122.5 161 122.5 161 112.5 219 c 128,-1,4
 102.5 277 102.5 277 102.5 328 c 0,5,6
 102.5 384 102.5 384 114 437.5 c 128,-1,7
 125.5 491 125.5 491 152.5 532.5 c 128,-1,8
 179.5 574 179.5 574 223 599.5 c 128,-1,9
 266.5 625 266.5 625 330.5 625 c 0,10,11
 361.5 625 361.5 625 390 616.5 c 128,-1,12
 418.5 608 418.5 608 440.5 589.5 c 128,-1,13
 462.5 571 462.5 571 475.5 540.5 c 128,-1,14
 488.5 510 488.5 510 488.5 466 c 0,15,16
 488.5 450 488.5 450 482 440.5 c 128,-1,17
 475.5 431 475.5 431 466 425.5 c 128,-1,18
 456.5 420 456.5 420 446.5 418.5 c 128,-1,19
 436.5 417 436.5 417 430.5 417 c 0,20,21
 416.5 417 416.5 417 404 427 c 128,-1,22
 391.5 437 391.5 437 391.5 466 c 0,23,24
 391.5 511 391.5 511 371 529 c 128,-1,25
 350.5 547 350.5 547 321.5 547 c 0,26,27
 301.5 547 301.5 547 283 530.5 c 128,-1,28
 264.5 514 264.5 514 250.5 483.5 c 128,-1,29
 236.5 453 236.5 453 228.5 410 c 128,-1,30
 220.5 367 220.5 367 220.5 314 c 0,31,32
 220.5 285 220.5 285 224 245 c 128,-1,33
 227.5 205 227.5 205 239.5 169 c 128,-1,34
 251.5 133 251.5 133 273.5 107.5 c 128,-1,35
 295.5 82 295.5 82 331.5 82 c 0,36,37
 360.5 82 360.5 82 377 96.5 c 128,-1,38
 393.5 111 393.5 111 401 132 c 128,-1,39
 408.5 153 408.5 153 410 175.5 c 128,-1,40
 411.5 198 411.5 198 410.5 214 c 256,41,42
 409.5 230 409.5 230 397 231.5 c 128,-1,43
 384.5 233 384.5 233 361.5 233 c 2,44,-1
 310.5 233 l 2,45,46
 304.5 233 304.5 233 299.5 239 c 128,-1,47
 294.5 245 294.5 245 291.5 253.5 c 128,-1,48
 288.5 262 288.5 262 286.5 271 c 128,-1,49
 284.5 280 284.5 280 284.5 286 c 0,50,51
 284.5 302 284.5 302 295 314.5 c 128,-1,52
 305.5 327 305.5 327 328.5 327 c 2,53,-1
 436.5 326 l 2,54,55
 467.5 326 467.5 326 492.5 306 c 128,-1,56
 517.5 286 517.5 286 517.5 249 c 0,57,58
 517.5 206 517.5 206 508 161 c 128,-1,59
 498.5 116 498.5 116 476.5 79 c 128,-1,60
 454.5 42 454.5 42 418.5 18.5 c 128,-1,61
 382.5 -5 382.5 -5 329.5 -5 c 0,0,1
234.5 58 m 0,62,63
 234.5 62 234.5 62 214.5 84 c 0,64,65
 205.5 93 205.5 93 196.5 106.5 c 128,-1,66
 187.5 120 187.5 120 180 133 c 128,-1,67
 172.5 146 172.5 146 168 157.5 c 128,-1,68
 163.5 169 163.5 169 163.5 173 c 0,69,70
 163.5 178 163.5 178 160.5 179.5 c 128,-1,71
 157.5 181 157.5 181 156.5 181 c 0,72,73
 148.5 181 148.5 181 148.5 170 c 256,74,75
 148.5 159 148.5 159 157.5 139 c 128,-1,76
 166.5 119 166.5 119 179 99.5 c 128,-1,77
 191.5 80 191.5 80 205 66 c 128,-1,78
 218.5 52 218.5 52 228.5 52 c 0,79,80
 234.5 52 234.5 52 234.5 58 c 0,62,63
257.5 45 m 0,81,82
 257.5 52 257.5 52 250.5 52 c 0,83,84
 246.5 52 246.5 52 245 49 c 128,-1,85
 243.5 46 243.5 46 243.5 44 c 0,86,87
 243.5 39 243.5 39 246 38 c 128,-1,88
 248.5 37 248.5 37 250.5 37 c 0,89,90
 257.5 37 257.5 37 257.5 45 c 0,81,82
EndSplineSet
EndChar

StartChar: h
Encoding: 104 104 74
Width: 620
Flags: W
LayerCount: 2
Fore
SplineSet
182.509765625 0 m 0,0,1
 157.509765625 0 157.509765625 0 147.509765625 14.5 c 128,-1,2
 137.509765625 29 137.509765625 29 137.509765625 65 c 2,3,-1
 137.509765625 343 l 2,4,5
 137.509765625 434 137.509765625 434 135.509765625 518 c 0,6,7
 134.509765625 616 134.509765625 616 185.509765625 616 c 0,8,9
 204.509765625 616 204.509765625 616 222.509765625 606.5 c 128,-1,10
 240.509765625 597 240.509765625 597 240.509765625 571 c 2,11,-1
 240.509765625 358 l 2,12,13
 240.509765625 318 240.509765625 318 244.509765625 318 c 256,14,15
 248.509765625 318 248.509765625 318 253.509765625 334 c 128,-1,16
 258.509765625 350 258.509765625 350 270.509765625 369.5 c 128,-1,17
 282.509765625 389 282.509765625 389 304.509765625 405 c 128,-1,18
 326.509765625 421 326.509765625 421 362.509765625 421 c 0,19,20
 426.509765625 421 426.509765625 421 455.509765625 358 c 128,-1,21
 484.509765625 295 484.509765625 295 484.509765625 157 c 2,22,-1
 484.509765625 31 l 2,23,24
 484.509765625 0 484.509765625 0 428.509765625 0 c 0,25,26
 401.509765625 0 401.509765625 0 389.509765625 11.5 c 128,-1,27
 377.509765625 23 377.509765625 23 377.509765625 34 c 2,28,-1
 377.509765625 148 l 2,29,30
 377.509765625 200 377.509765625 200 374.509765625 232 c 128,-1,31
 371.509765625 264 371.509765625 264 365.509765625 282 c 128,-1,32
 359.509765625 300 359.509765625 300 350.009765625 306.5 c 128,-1,33
 340.509765625 313 340.509765625 313 326.509765625 313 c 0,34,35
 305.509765625 313 305.509765625 313 290.009765625 293.5 c 128,-1,36
 274.509765625 274 274.509765625 274 264.509765625 241 c 128,-1,37
 254.509765625 208 254.509765625 208 250.009765625 163.5 c 0,38,39
 245.509765625 123 245.509765625 123 245.509765625 121 c 2,40,-1
 245.509765625 45 l 2,41,42
 245.509765625 30 245.509765625 30 238.009765625 21 c 128,-1,43
 230.509765625 12 230.509765625 12 220.509765625 7.5 c 128,-1,44
 210.509765625 3 210.509765625 3 200.009765625 1.5 c 128,-1,45
 189.509765625 0 189.509765625 0 182.509765625 0 c 0,0,1
157.509765625 316 m 0,46,47
 160.509765625 316 160.509765625 316 162.509765625 328 c 128,-1,48
 164.509765625 340 164.509765625 340 166.509765625 355 c 128,-1,49
 168.509765625 370 168.509765625 370 169.509765625 482 c 128,-1,50
 170.509765625 594 170.509765625 594 170.509765625 595 c 0,51,52
 170.509765625 597 170.509765625 597 170.009765625 600 c 128,-1,53
 169.509765625 603 169.509765625 603 167.509765625 603 c 0,54,55
 162.509765625 603 162.509765625 603 159.009765625 595.5 c 128,-1,56
 155.509765625 588 155.509765625 588 153.509765625 479 c 128,-1,57
 151.509765625 370 151.509765625 370 150.509765625 360.5 c 128,-1,58
 149.509765625 351 149.509765625 351 149.509765625 348 c 0,59,60
 149.509765625 340 149.509765625 340 151.509765625 328 c 128,-1,61
 153.509765625 316 153.509765625 316 157.509765625 316 c 0,46,47
414.509765625 29 m 0,62,63
 414.509765625 35 414.509765625 35 412.509765625 38 c 128,-1,64
 410.509765625 41 410.509765625 41 408.009765625 43 c 128,-1,65
 405.509765625 45 405.509765625 45 403.509765625 49 c 128,-1,66
 401.509765625 53 401.509765625 53 401.509765625 60 c 0,67,68
 401.509765625 76 401.509765625 76 400.009765625 80 c 128,-1,69
 398.509765625 84 398.509765625 84 393.509765625 84 c 256,70,71
 388.509765625 84 388.509765625 84 387.009765625 76.5 c 128,-1,72
 385.509765625 69 385.509765625 69 385.509765625 59 c 0,73,74
 385.509765625 39 385.509765625 39 391.509765625 27 c 128,-1,75
 397.509765625 15 397.509765625 15 405.509765625 15 c 0,76,77
 408.509765625 15 408.509765625 15 411.509765625 18.5 c 128,-1,78
 414.509765625 22 414.509765625 22 414.509765625 29 c 0,62,63
181.509765625 26 m 0,79,80
 181.509765625 31 181.509765625 31 179.009765625 33.5 c 128,-1,81
 176.509765625 36 176.509765625 36 173.509765625 38.5 c 128,-1,82
 170.509765625 41 170.509765625 41 168.009765625 45 c 128,-1,83
 165.509765625 49 165.509765625 49 165.509765625 56 c 0,84,85
 165.509765625 77 165.509765625 77 158.509765625 77 c 0,86,87
 156.509765625 77 156.509765625 77 154.509765625 69.5 c 128,-1,88
 152.509765625 62 152.509765625 62 152.509765625 51 c 0,89,90
 152.509765625 36 152.509765625 36 159.009765625 24 c 128,-1,91
 165.509765625 12 165.509765625 12 173.509765625 12 c 0,92,93
 175.509765625 12 175.509765625 12 178.509765625 16 c 128,-1,94
 181.509765625 20 181.509765625 20 181.509765625 26 c 0,79,80
EndSplineSet
EndChar

StartChar: i
Encoding: 105 105 75
Width: 620
Flags: W
LayerCount: 2
Fore
SplineSet
301.674804688 -4 m 256,0,1
 277.674804688 -4 277.674804688 -4 264.674804688 6.5 c 128,-1,2
 251.674804688 17 251.674804688 17 251.674804688 32 c 2,3,-1
 251.674804688 387 l 2,4,5
 251.674804688 396 251.674804688 396 254.174804688 408 c 128,-1,6
 256.674804688 420 256.674804688 420 262.174804688 430 c 128,-1,7
 267.674804688 440 267.674804688 440 277.174804688 447 c 128,-1,8
 286.674804688 454 286.674804688 454 301.674804688 454 c 256,9,10
 316.674804688 454 316.674804688 454 327.174804688 448 c 128,-1,11
 337.674804688 442 337.674804688 442 344.174804688 433 c 128,-1,12
 350.674804688 424 350.674804688 424 354.174804688 413 c 128,-1,13
 357.674804688 402 357.674804688 402 357.674804688 392 c 2,14,-1
 357.674804688 32 l 2,15,16
 357.674804688 16 357.674804688 16 341.674804688 6 c 128,-1,17
 325.674804688 -4 325.674804688 -4 301.674804688 -4 c 256,0,1
269.674804688 357 m 0,18,19
 272.674804688 357 272.674804688 357 273.674804688 363 c 128,-1,20
 274.674804688 369 274.674804688 369 274.674804688 377.5 c 128,-1,21
 274.674804688 386 274.674804688 386 275.174804688 395.5 c 128,-1,22
 275.674804688 405 275.674804688 405 277.674804688 411 c 0,23,24
 278.674804688 415 278.674804688 415 280.674804688 422 c 128,-1,25
 282.674804688 429 282.674804688 429 279.674804688 429 c 0,26,27
 274.674804688 429 274.674804688 429 271.174804688 423.5 c 128,-1,28
 267.674804688 418 267.674804688 418 265.174804688 410.5 c 128,-1,29
 262.674804688 403 262.674804688 403 261.674804688 395.5 c 128,-1,30
 260.674804688 388 260.674804688 388 260.674804688 383 c 0,31,32
 260.674804688 374 260.674804688 374 262.674804688 365.5 c 128,-1,33
 264.674804688 357 264.674804688 357 269.674804688 357 c 0,18,19
305.141601562 523.2265625 m 4,34,35
 269.674804688 523 269.674804688 523 244.676757812 552.055664062 c 132,-1,36
 219.674804688 581 219.674804688 581 219.51953125 626.186523438 c 4,37,38
 219.674804688 651 219.674804688 651 227.022460938 673.033203125 c 4,39,40
 234.674804688 695 234.674804688 695 247.765625 711.12890625 c 4,41,42
 260.674804688 727 260.674804688 727 279.54296875 736.868164062 c 4,43,44
 297.674804688 747 297.674804688 747 320.147460938 746.649414062 c 4,45,46
 337.674804688 747 337.674804688 747 352.806640625 737.8984375 c 4,47,48
 367.674804688 729 367.674804688 729 378.40625 713.702148438 c 4,49,50
 388.674804688 698 388.674804688 698 394.735351562 678.696289062 c 4,51,52
 400.674804688 659 400.674804688 659 400.473632812 637.51171875 c 4,53,54
 400.674804688 610 400.674804688 610 392.969726562 588.606445312 c 4,55,56
 385.674804688 567 385.674804688 567 372.2265625 553.083984375 c 132,-1,57
 358.674804688 539 358.674804688 539 341.7734375 530.948242188 c 4,58,59
 323.674804688 523 323.674804688 523 305.141601562 523.2265625 c 4,34,35
272.481445312 701.34765625 m 4,60,61
 278.674804688 709 278.674804688 709 279.984375 713.702148438 c 4,62,63
 281.674804688 719 281.674804688 719 279.54296875 718.850585938 c 4,64,65
 272.674804688 719 272.674804688 719 264.537109375 711.12890625 c 4,66,67
 256.674804688 703 256.674804688 703 249.97265625 692.595703125 c 4,68,69
 243.674804688 682 243.674804688 682 238.939453125 669.4296875 c 4,70,71
 233.674804688 654 233.674804688 654 234.525390625 646.778320312 c 4,72,73
 234.674804688 645 234.674804688 645 235.848632812 638.541015625 c 4,74,75
 236.674804688 632 236.674804688 632 239.822265625 632.36328125 c 4,76,77
 243.674804688 633 243.674804688 633 248.6484375 655.015625 c 4,78,79
 251.674804688 669 251.674804688 669 258.358398438 681.26953125 c 4,80,81
 264.674804688 693 264.674804688 693 272.481445312 701.34765625 c 4,60,61
308.671875 581.913085938 m 4,82,83
 319.674804688 582 319.674804688 582 333.829101562 596.328125 c 4,84,85
 348.674804688 611 348.674804688 611 348.393554688 637.51171875 c 4,86,87
 348.674804688 658 348.674804688 658 339.125976562 672.002929688 c 132,-1,88
 329.674804688 686 329.674804688 686 314.850585938 685.903320312 c 260,89,90
 299.674804688 686 299.674804688 686 287.487304688 672.002929688 c 4,91,92
 274.674804688 657 274.674804688 657 275.12890625 633.393554688 c 260,93,94
 275.674804688 609 275.674804688 609 284.838867188 595.298828125 c 4,95,96
 294.674804688 582 294.674804688 582 308.671875 581.913085938 c 4,82,83
EndSplineSet


EndChar

StartChar: j
Encoding: 106 106 76
Width: 620
Flags: W
LayerCount: 2
Fore
SplineSet
346 559 m 256,0,1
 320 559 320 559 304 574.5 c 128,-1,2
 288 590 288 590 288 616 c 0,3,4
 288 643 288 643 304.5 660 c 128,-1,5
 321 677 321 677 348 677 c 256,6,7
 375 677 375 677 392 661.5 c 128,-1,8
 409 646 409 646 409 621 c 0,9,10
 409 595 409 595 390.5 577 c 128,-1,11
 372 559 372 559 346 559 c 256,0,1
314 618 m 0,12,13
 316 627 316 627 319.5 631.5 c 128,-1,14
 323 636 323 636 327 638.5 c 128,-1,15
 331 641 331 641 334 643.5 c 128,-1,16
 337 646 337 646 337 650 c 0,17,18
 337 660 337 660 327 660 c 0,19,20
 315 660 315 660 307 646.5 c 128,-1,21
 299 633 299 633 299 618 c 0,22,23
 299 611 299 611 300.5 601.5 c 128,-1,24
 302 592 302 592 308 592 c 0,25,26
 313 592 313 592 313 603.5 c 128,-1,27
 313 615 313 615 314 618 c 0,12,13
401 82 m 2,28,29
 401 35 401 35 394.5 -3.5 c 128,-1,30
 388 -42 388 -42 373 -69.5 c 128,-1,31
 358 -97 358 -97 332.5 -112 c 128,-1,32
 307 -127 307 -127 268 -127 c 0,33,34
 237 -127 237 -127 224 -113.5 c 128,-1,35
 211 -100 211 -100 211 -72 c 0,36,37
 211 -56 211 -56 216 -38.5 c 128,-1,38
 221 -21 221 -21 235 -21 c 0,39,40
 242 -21 242 -21 248.5 -23.5 c 128,-1,41
 255 -26 255 -26 263 -26 c 0,42,43
 279 -26 279 -26 287 -3 c 128,-1,44
 295 20 295 20 295 82 c 2,45,-1
 295 439 l 2,46,47
 295 448 295 448 297.5 460 c 128,-1,48
 300 472 300 472 305.5 482 c 128,-1,49
 311 492 311 492 320.5 499 c 128,-1,50
 330 506 330 506 345 506 c 256,51,52
 360 506 360 506 370.5 500 c 128,-1,53
 381 494 381 494 387.5 485 c 128,-1,54
 394 476 394 476 397.5 465 c 128,-1,55
 401 454 401 454 401 444 c 2,56,-1
 401 82 l 2,28,29
313 409 m 0,57,58
 316 409 316 409 317 415 c 128,-1,59
 318 421 318 421 318 429.5 c 128,-1,60
 318 438 318 438 318.5 447.5 c 128,-1,61
 319 457 319 457 321 463 c 0,62,63
 322 467 322 467 324 474 c 128,-1,64
 326 481 326 481 323 481 c 0,65,66
 318 481 318 481 314.5 475.5 c 128,-1,67
 311 470 311 470 308.5 462.5 c 128,-1,68
 306 455 306 455 305 447.5 c 128,-1,69
 304 440 304 440 304 435 c 0,70,71
 304 426 304 426 306 417.5 c 128,-1,72
 308 409 308 409 313 409 c 0,57,58
255 -103 m 0,73,74
 255 -91 255 -91 246.5 -83 c 128,-1,75
 238 -75 238 -75 238 -66 c 0,76,77
 238 -52 238 -52 235.5 -47.5 c 128,-1,78
 233 -43 233 -43 229 -43 c 0,79,80
 226 -43 226 -43 224.5 -49.5 c 128,-1,81
 223 -56 223 -56 223 -64 c 0,82,83
 223 -83 223 -83 230 -97 c 128,-1,84
 237 -111 237 -111 245 -111 c 0,85,86
 248 -111 248 -111 251.5 -109.5 c 128,-1,87
 255 -108 255 -108 255 -103 c 0,73,74
EndSplineSet


EndChar

StartChar: k
Encoding: 107 107 77
Width: 620
Flags: W
LayerCount: 2
Fore
SplineSet
496 0 m 1,0,1
 490 75 490 75 478 126 c 0,2,3
 467.3203125 171.630859375 467.3203125 171.630859375 443 230 c 2,4,-1
 433 254 l 1,5,6
 399 309 399 309 352 339.5 c 128,-1,7
 305 370 305 370 245 370 c 0,8,9
 193 370 193 370 159 344.5 c 128,-1,10
 125 319 125 319 125 267 c 0,11,12
 125 217 125 217 157 191.5 c 128,-1,13
 189 166 189 166 238 166 c 0,14,15
 312 166 312 166 358.5 202 c 128,-1,16
 405 238 405 238 431 286 c 1,17,-1
 438 312 l 1,18,19
 453 347 453 347 458 386 c 128,-1,20
 463 425 463 425 463 458 c 0,21,22
 463 478 463 478 460 505 c 128,-1,23
 457 532 457 532 453 551 c 1,24,-1
 73 551 l 1,25,-1
 73 622 l 1,26,-1
 574 622 l 1,27,-1
 574 551 l 1,28,-1
 534 551 l 1,29,30
 537 536 537 536 540 507.5 c 128,-1,31
 543 479 543 479 543 458 c 0,32,33
 543 403 543 403 529.5 347 c 0,34,35
 518.967773438 303.869140625 518.967773438 303.869140625 483 243 c 2,36,-1
 470 221 l 2,37,38
 439 169 439 169 375 129.5 c 0,39,40
 317 94 317 94 237 94 c 0,41,42
 178 94 178 94 134 115 c 128,-1,43
 90 136 90 136 66.5 175 c 128,-1,44
 43 214 43 214 43 268 c 0,45,46
 43 324 43 324 69.5 362.5 c 128,-1,47
 96 401 96 401 140 421 c 128,-1,48
 184 441 184 441 238 441 c 0,49,50
 315 441 315 441 370 411.5 c 0,51,52
 422.708984375 382.611328125 422.708984375 382.611328125 466 326 c 2,53,-1
 479 309 l 2,54,55
 510 268 510 268 530.5 213.5 c 0,56,57
 550 161 550 161 561 106 c 128,-1,58
 572 51 572 51 577 0 c 1,59,-1
 496 0 l 1,0,1
EndSplineSet
EndChar

StartChar: l
Encoding: 108 108 78
Width: 620
Flags: W
LayerCount: 2
Fore
SplineSet
310 250 m 1,0,1
 255 281 255 281 209 328.5 c 128,-1,2
 163 376 163 376 132 433.5 c 128,-1,3
 101 491 101 491 90 551 c 1,4,-1
 33 551 l 1,5,-1
 33 622 l 1,6,-1
 593 622 l 1,7,-1
 593 551 l 1,8,-1
 530 551 l 1,9,10
 522 504 522 504 502.5 460.5 c 128,-1,11
 483 417 483 417 454.5 378 c 128,-1,12
 426 339 426 339 389.5 306.5 c 128,-1,13
 353 274 353 274 310 250 c 1,0,1
448 551 m 1,14,-1
 172 551 l 1,15,16
 180 498 180 498 202.5 455 c 128,-1,17
 225 412 225 412 258 379 c 128,-1,18
 291 346 291 346 329 322 c 1,19,-1
 291 323 l 1,20,21
 330 345 330 345 362.5 378 c 128,-1,22
 395 411 395 411 417.5 454.5 c 128,-1,23
 440 498 440 498 448 551 c 1,14,-1
12 193 m 0,24,25
 12 261 12 261 56 317.5 c 128,-1,26
 100 374 100 374 179 408 c 1,27,-1
 219 353 l 1,28,29
 167 329 167 329 129.5 289.5 c 128,-1,30
 92 250 92 250 92 195 c 0,31,32
 92 141 92 141 124 107 c 128,-1,33
 156 73 156 73 227 73 c 2,34,-1
 232 73 l 1,35,-1
 227 0 l 1,36,-1
 221 0 l 2,37,38
 159 0 159 0 118.5 19 c 128,-1,39
 78 38 78 38 54.5 67.5 c 128,-1,40
 31 97 31 97 21.5 130.5 c 128,-1,41
 12 164 12 164 12 193 c 0,24,25
608 194 m 0,42,43
 608 165 608 165 598 131.5 c 128,-1,44
 588 98 588 98 565 68 c 128,-1,45
 542 38 542 38 501.5 19 c 128,-1,46
 461 0 461 0 399 0 c 2,47,-1
 393 0 l 1,48,-1
 388 73 l 1,49,-1
 399 73 l 2,50,51
 466 73 466 73 497 106.5 c 128,-1,52
 528 140 528 140 528 191 c 0,53,54
 528 241 528 241 495.5 283 c 128,-1,55
 463 325 463 325 394 353 c 1,56,-1
 437 412 l 1,57,58
 529 370 529 370 568.5 312.5 c 128,-1,59
 608 255 608 255 608 194 c 0,42,43
EndSplineSet
EndChar

StartChar: m
Encoding: 109 109 79
Width: 620
Flags: W
LayerCount: 2
Fore
SplineSet
442 0 m 1,0,-1
 442 261 l 1,1,-1
 208 261 l 1,2,3
 206 206 206 206 195.5 165.5 c 128,-1,4
 185 125 185 125 166.5 103 c 128,-1,5
 148 81 148 81 121 81 c 0,6,7
 101 81 101 81 87.5 93 c 128,-1,8
 74 105 74 105 74 139 c 0,9,10
 74 154 74 154 79 178.5 c 128,-1,11
 84 203 84 203 97.5 232 c 128,-1,12
 111 261 111 261 135 288 c 1,13,14
 133 331 133 331 126.5 376.5 c 128,-1,15
 120 422 120 422 109 466.5 c 128,-1,16
 98 511 98 511 83 551 c 1,17,-1
 38 551 l 1,18,-1
 38 622 l 1,19,-1
 146 622 l 1,20,21
 165 576 165 576 179 526 c 128,-1,22
 193 476 193 476 201 427 c 128,-1,23
 209 378 209 378 209 332 c 1,24,-1
 442 332 l 1,25,-1
 442 622 l 1,26,-1
 582 622 l 1,27,-1
 582 551 l 1,28,-1
 523 551 l 1,29,-1
 523 0 l 1,30,-1
 442 0 l 1,0,-1
EndSplineSet
EndChar

StartChar: n
Encoding: 110 110 80
Width: 620
Flags: W
LayerCount: 2
Fore
SplineSet
226 0 m 1,0,1
 167 0 167 0 128 19 c 128,-1,2
 89 38 89 38 66.5 68 c 128,-1,3
 44 98 44 98 34.5 131.5 c 128,-1,4
 25 165 25 165 25 194 c 0,5,6
 25 245 25 245 51 292.5 c 128,-1,7
 77 340 77 340 131.5 378 c 128,-1,8
 186 416 186 416 270 438 c 1,9,-1
 270 551 l 1,10,-1
 51 551 l 1,11,-1
 51 622 l 1,12,-1
 576 622 l 1,13,-1
 576 551 l 1,14,-1
 350 551 l 1,15,-1
 350 438 l 1,16,17
 435 416 435 416 489 378 c 128,-1,18
 543 340 543 340 569 292.5 c 128,-1,19
 595 245 595 245 595 194 c 0,20,21
 595 165 595 165 586 131.5 c 128,-1,22
 577 98 577 98 554.5 68 c 128,-1,23
 532 38 532 38 493 19 c 128,-1,24
 454 0 454 0 395 0 c 1,25,-1
 390 73 l 1,26,27
 457 73 457 73 486 107 c 128,-1,28
 515 141 515 141 515 195 c 0,29,30
 515 257 515 257 463 305 c 128,-1,31
 411 353 411 353 310 378 c 1,32,33
 209 353 209 353 157 305 c 128,-1,34
 105 257 105 257 105 195 c 0,35,36
 105 141 105 141 134.5 107 c 128,-1,37
 164 73 164 73 231 73 c 1,38,-1
 226 0 l 1,0,1
EndSplineSet
EndChar

StartChar: o
Encoding: 111 111 81
Width: 620
Flags: W
LayerCount: 2
Fore
SplineSet
320 247.5 m 4,0,1
 295 247.5 295 247.5 277.5 263 c 132,-1,2
 260 278.5 260 278.5 260 305.5 c 4,3,4
 260 331.5 260 331.5 277.5 353 c 132,-1,5
 295 374.5 295 374.5 323 374.5 c 4,6,7
 382 374.5 382 374.5 382 314.5 c 4,8,9
 382 290.5 382 290.5 364.5 269 c 132,-1,10
 347 247.5 347 247.5 320 247.5 c 4,0,1
286 294.5 m 260,11,12
 291 294.5 291 294.5 291.5 301.5 c 132,-1,13
 292 308.5 292 308.5 294 312.5 c 4,14,15
 298 323.5 298 323.5 305 331.5 c 132,-1,16
 312 339.5 312 339.5 318 350.5 c 4,17,18
 319 352.5 319 352.5 317.5 355.5 c 132,-1,19
 316 358.5 316 358.5 314 358.5 c 4,20,21
 308 358.5 308 358.5 302 352.5 c 132,-1,22
 296 346.5 296 346.5 291 338 c 132,-1,23
 286 329.5 286 329.5 283 320.5 c 132,-1,24
 280 311.5 280 311.5 280 306.5 c 4,25,26
 280 304.5 280 304.5 280.5 299.5 c 132,-1,27
 281 294.5 281 294.5 286 294.5 c 260,11,12
307.5 -10 m 0,28,29
 235.5 -10 235.5 -10 182 17.5 c 128,-1,30
 128.5 45 128.5 45 93.5 88.5 c 128,-1,31
 58.5 132 58.5 132 41 186 c 128,-1,32
 23.5 240 23.5 240 23.5 294 c 0,33,34
 23.5 360 23.5 360 43.5 416 c 128,-1,35
 63.5 472 63.5 472 101 512.5 c 128,-1,36
 138.5 553 138.5 553 192.5 576 c 128,-1,37
 246.5 599 246.5 599 313.5 599 c 0,38,39
 375.5 599 375.5 599 427.5 576.5 c 128,-1,40
 479.5 554 479.5 554 517 514.5 c 128,-1,41
 554.5 475 554.5 475 575.5 420.5 c 128,-1,42
 596.5 366 596.5 366 596.5 303 c 0,43,44
 596.5 239 596.5 239 575 182 c 128,-1,45
 553.5 125 553.5 125 515 82.5 c 128,-1,46
 476.5 40 476.5 40 423.5 15 c 128,-1,47
 370.5 -10 370.5 -10 307.5 -10 c 0,28,29
309.5 67 m 0,48,49
 410.5 67 410.5 67 462 130.5 c 128,-1,50
 513.5 194 513.5 194 513.5 303 c 0,51,52
 513.5 347 513.5 347 500 387.5 c 128,-1,53
 486.5 428 486.5 428 460.5 459 c 128,-1,54
 434.5 490 434.5 490 397.5 508.5 c 128,-1,55
 360.5 527 360.5 527 313.5 527 c 0,56,57
 268.5 527 268.5 527 231 509 c 128,-1,58
 193.5 491 193.5 491 166.5 461 c 128,-1,59
 139.5 431 139.5 431 124.5 391 c 128,-1,60
 109.5 351 109.5 351 109.5 306 c 256,61,62
 109.5 261 109.5 261 123 218 c 128,-1,63
 136.5 175 136.5 175 162 141.5 c 128,-1,64
 187.5 108 187.5 108 224.5 87.5 c 128,-1,65
 261.5 67 261.5 67 309.5 67 c 0,48,49
EndSplineSet
EndChar

StartChar: p
Encoding: 112 112 82
Width: 620
Flags: W
LayerCount: 2
Fore
SplineSet
443 0 m 1,0,-1
 443 180 l 1,1,-1
 449 165 l 1,2,3
 415 149 415 149 381 140.5 c 128,-1,4
 347 132 347 132 304 132 c 0,5,6
 216 132 216 132 156 186.5 c 128,-1,7
 96 241 96 241 58 333 c 1,8,9
 88 359 88 359 108 389 c 128,-1,10
 128 419 128 419 128 459 c 0,11,12
 128 481 128 481 121.5 506.5 c 128,-1,13
 115 532 115 532 104 551 c 1,14,-1
 55 551 l 1,15,-1
 55 622 l 1,16,-1
 162 622 l 1,17,18
 184 582 184 582 196 539.5 c 128,-1,19
 208 497 208 497 208 460 c 0,20,21
 208 407 208 407 187.5 371.5 c 128,-1,22
 167 336 167 336 134 313 c 1,23,-1
 138 357 l 1,24,25
 170 282 170 282 208 244 c 128,-1,26
 246 206 246 206 304 206 c 0,27,28
 345 206 345 206 379 217.5 c 128,-1,29
 413 229 413 229 449 251 c 1,30,-1
 443 240 l 1,31,-1
 443 622 l 1,32,-1
 565 622 l 1,33,-1
 565 551 l 1,34,-1
 524 551 l 1,35,-1
 524 0 l 1,36,-1
 443 0 l 1,0,-1
EndSplineSet
EndChar

StartChar: q
Encoding: 113 113 83
Width: 620
Flags: W
LayerCount: 2
Fore
SplineSet
356.487304688 55.400390625 m 0,0,1
 353.756835938 54 353.756835938 54 353.231445312 46.400390625 c 128,-1,2
 352.756835938 39 352.756835938 39 353.231445312 28.400390625 c 0,3,4
 354.756835938 6 354.756835938 6 357.227539062 -16.7001953125 c 0,5,6
 360.756835938 -70 360.756835938 -70 360.756835938 -83 c 0,7,8
 360.756835938 -95 360.756835938 -95 351.756835938 -109.5 c 128,-1,9
 342.756835938 -124 342.756835938 -124 317.756835938 -124 c 260,10,11
 292.756835938 -124 292.756835938 -124 284.256835938 -108.5 c 128,-1,12
 275.756835938 -93 275.756835938 -93 275.756835938 -75 c 0,13,14
 275.756835938 -61 275.756835938 -61 277.0625 -9.0498046875 c 0,15,16
 278.756835938 33 278.756835938 33 278.3671875 35.599609375 c 0,17,18
 278.756835938 51 278.756835938 51 273.716796875 53.599609375 c 0,19,20
 237.756835938 68 237.756835938 68 211.872070312 95 c 0,21,22
 186.756835938 122 186.756835938 122 170.952148438 158 c 0,23,24
 155.756835938 194 155.756835938 194 148.631835938 236.75 c 0,25,26
 141.756835938 279 141.756835938 279 141.657226562 323.599609375 c 0,27,28
 141.756835938 373 141.756835938 373 149.561523438 424.849609375 c 0,29,30
 157.756835938 477 157.756835938 477 176.997070312 519.349609375 c 0,31,32
 196.756835938 562 196.756835938 562 229.077148438 589.099609375 c 0,33,34
 261.756835938 616 261.756835938 616 310.916992188 616.099609375 c 256,35,36
 359.756835938 616 359.756835938 616 392.291992188 592.25 c 0,37,38
 424.756835938 568 424.756835938 568 443.44140625 528.349609375 c 0,39,40
 462.756835938 488 462.756835938 488 470.412109375 437 c 0,41,42
 478.756835938 386 478.756835938 386 478.31640625 331.700195312 c 0,43,44
 478.756835938 285 478.756835938 285 471.806640625 241.25 c 0,45,46
 465.756835938 198 465.756835938 198 450.416992188 161.150390625 c 0,47,48
 435.756835938 125 435.756835938 125 412.287109375 97.7001953125 c 0,49,50
 391.756835938 73 391.756835938 73 356.487304688 55.400390625 c 0,0,1
206.756835938 509.900390625 m 0,51,52
 211.756835938 520 211.756835938 520 221.63671875 535.549804688 c 0,53,54
 231.756835938 551 231.756835938 551 243.026367188 560.299804688 c 0,55,56
 248.756835938 565 248.756835938 565 244.421875 569.75 c 0,57,58
 239.756835938 575 239.756835938 575 238.376953125 574.700195312 c 0,59,60
 232.756835938 575 232.756835938 575 224.891601562 565.700195312 c 0,61,62
 216.756835938 557 216.756835938 557 209.08203125 544.549804688 c 0,63,64
 200.756835938 532 200.756835938 532 195.596679688 518.900390625 c 0,65,66
 189.756835938 505 189.756835938 505 190.016601562 497.299804688 c 0,67,68
 189.756835938 490 189.756835938 490 194.666992188 490.099609375 c 0,69,70
 196.756835938 490 196.756835938 490 206.756835938 509.900390625 c 0,51,52
310.916992188 105.799804688 m 0,71,72
 333.756835938 106 333.756835938 106 348.58203125 130.549804688 c 0,73,74
 362.756835938 155 362.756835938 155 370.901367188 190.849609375 c 0,75,76
 378.756835938 226 378.756835938 226 381.596679688 265.549804688 c 0,77,78
 383.028320312 283.423828125 383.028320312 283.423828125 384.38671875 332.599609375 c 0,79,80
 384.756835938 346 384.756835938 346 382.9921875 367.700195312 c 0,81,82
 381.756835938 389 381.756835938 389 378.341796875 414.5 c 128,-1,83
 374.756835938 440 374.756835938 440 369.971679688 465.799804688 c 0,84,85
 364.756835938 492 364.756835938 492 356.487304688 513.049804688 c 0,86,87
 347.756835938 534 347.756835938 534 336.95703125 547.25 c 0,88,89
 325.756835938 560 325.756835938 560 310.916992188 560.299804688 c 256,90,91
 295.756835938 560 295.756835938 560 284.876953125 546.799804688 c 0,92,93
 273.756835938 533 273.756835938 533 265.811523438 511.700195312 c 0,94,95
 257.756835938 490 257.756835938 490 252.791992188 464 c 128,-1,96
 247.756835938 438 247.756835938 438 244.88671875 412.700195312 c 0,97,98
 241.756835938 387 241.756835938 387 241.166992188 365.900390625 c 0,99,100
 239.756835938 344 239.756835938 344 240.237304688 331.700195312 c 0,101,102
 239.756835938 304 239.756835938 304 243.026367188 264.650390625 c 0,103,104
 245.756835938 225 245.756835938 225 253.721679688 190.400390625 c 0,105,106
 261.756835938 155 261.756835938 155 275.112304688 130.549804688 c 0,107,108
 288.756835938 106 288.756835938 106 310.916992188 105.799804688 c 0,71,72
193.737304688 470.299804688 m 0,109,110
 193.756835938 479 193.756835938 479 191.876953125 481.549804688 c 0,111,112
 189.756835938 484 189.756835938 484 185.3671875 483.799804688 c 256,113,114
 180.756835938 484 180.756835938 484 178.391601562 478.849609375 c 0,115,116
 175.756835938 474 175.756835938 474 176.06640625 468.5 c 0,117,118
 175.756835938 461 175.756835938 461 179.322265625 458.599609375 c 128,-1,119
 182.756835938 456 182.756835938 456 185.3671875 455.900390625 c 0,120,121
 186.756835938 456 186.756835938 456 190.481445312 459.5 c 0,122,123
 193.756835938 463 193.756835938 463 193.737304688 470.299804688 c 0,109,110
322.756835938 -97 m 0,124,125
 322.756835938 -91 322.756835938 -91 319.756835938 -87.5 c 128,-1,126
 316.756835938 -84 316.756835938 -84 313.256835938 -81 c 128,-1,127
 309.756835938 -78 309.756835938 -78 306.756835938 -75.5 c 128,-1,128
 303.756835938 -73 303.756835938 -73 303.756835938 -68 c 0,129,130
 303.756835938 -50 303.756835938 -50 294.756835938 -50 c 0,131,132
 289.756835938 -50 289.756835938 -50 289.756835938 -70 c 0,133,134
 289.756835938 -80 289.756835938 -80 295.256835938 -94.5 c 128,-1,135
 300.756835938 -109 300.756835938 -109 311.756835938 -109 c 0,136,137
 315.756835938 -109 315.756835938 -109 319.256835938 -106.5 c 128,-1,138
 322.756835938 -104 322.756835938 -104 322.756835938 -97 c 0,124,125
EndSplineSet
EndChar

